<svg xmlns="http://www.w3.org/2000/svg" xmlns:xlink="http://www.w3.org/1999/xlink" width="606" height="484" viewBox="0 0 606 484">
  <defs>
    <filter id="_404" x="0" y="0" width="606" height="484" filterUnits="userSpaceOnUse">
      <feOffset dy="3" input="SourceAlpha"/>
      <feGaussianBlur stdDeviation="3" result="blur"/>
      <feFlood flood-opacity="0.161"/>
      <feComposite operator="in" in2="blur"/>
      <feComposite in="SourceGraphic"/>
    </filter>
    <linearGradient id="linear-gradient" x1="86.256" y1="0.41" x2="86.861" y2="0.82" gradientUnits="objectBoundingBox">
      <stop offset="0" stop-color="#4e9cff"/>
      <stop offset="0.984" stop-color="#176ad4"/>
    </linearGradient>
    <linearGradient id="linear-gradient-2" x1="1.153" y1="0.57" x2="0.419" y2="0.492" gradientUnits="objectBoundingBox">
      <stop offset="0" stop-color="#f2bfad"/>
      <stop offset="1" stop-color="#f2dad4"/>
    </linearGradient>
    <linearGradient id="linear-gradient-3" x1="0.202" y1="0.241" x2="1.023" y2="0.871" xlink:href="#linear-gradient"/>
    <linearGradient id="linear-gradient-4" x1="0.51" y1="0.622" x2="0.569" y2="1.823" gradientUnits="objectBoundingBox">
      <stop offset="0" stop-color="#f2bfad"/>
      <stop offset="0.704" stop-color="#f2dad4"/>
    </linearGradient>
    <linearGradient id="linear-gradient-5" x1="0.402" y1="0.306" x2="0.833" y2="1.077" xlink:href="#linear-gradient-2"/>
    <linearGradient id="linear-gradient-6" x1="0.386" y1="0.076" x2="0.681" y2="1.171" gradientUnits="objectBoundingBox">
      <stop offset="0" stop-color="#f6dbdb"/>
      <stop offset="1" stop-color="#eb9a99"/>
    </linearGradient>
    <linearGradient id="linear-gradient-7" x1="0.317" y1="0.41" x2="0.922" y2="0.82" xlink:href="#linear-gradient"/>
    <linearGradient id="linear-gradient-8" x1="0.5" y1="1.062" x2="0.5" y2="-1.067" gradientUnits="objectBoundingBox">
      <stop offset="0" stop-color="#fff"/>
      <stop offset="1" stop-color="#e6e7e8"/>
    </linearGradient>
  </defs>
  <g id="Group_9854" data-name="Group 9854" transform="translate(-380 -63)">
    <g id="_400" data-name="400" transform="translate(389 254.91)">
      <g transform="matrix(1, 0, 0, 1, -9, -191.91)" filter="url(#_404)">
        <text id="_404-2" data-name="404" transform="translate(9 371)" fill="#fff" font-size="371" font-family="SourceSansPro-Bold, Source Sans Pro" font-weight="700"><tspan x="0" y="0">404</tspan></text>
      </g>
      <g id="Group_9848" data-name="Group 9848" transform="translate(54.761 -38.127)">
        <g id="Group_9846" data-name="Group 9846" transform="translate(17 204.864)">
          <path id="Path_2947" data-name="Path 2947" d="M797.109,432.632a3.337,3.337,0,1,0-6.593,1.035c.49,3.106,1.09,12.8-2.289,16.728a4.362,4.362,0,0,1-2.724,1.58l.327-18.471a4.8,4.8,0,1,0-9.59,0l.872,35.09a4.512,4.512,0,0,1-2.833-1.58c-3.324-3.923-2.724-13.622-2.289-16.728a3.337,3.337,0,1,0-6.593-1.035c-.218,1.526-2.18,15.148,3.76,22.068a11.311,11.311,0,0,0,8.064,3.978l.381,15.257h7.247l.545-31.93a11.188,11.188,0,0,0,7.846-3.923C799.234,447.78,797.327,434.158,797.109,432.632Z" transform="translate(-384.887 -442.6)" fill="#bdbdbd"/>
          <path id="Path_2948" data-name="Path 2948" d="M237.847,488.461a2.1,2.1,0,1,0-4.141.654c.327,1.962.708,8.173-1.471,10.68a2.694,2.694,0,0,1-1.744.981l.218-11.769a3.053,3.053,0,1,0-6.1.054l.545,22.395a2.962,2.962,0,0,1-1.8-.981c-2.125-2.506-1.744-8.664-1.471-10.68a2.1,2.1,0,0,0-4.141-.654c-.163.981-1.362,9.644,2.4,14.058a7.043,7.043,0,0,0,5.122,2.506l.218,9.753h4.632l.327-20.324a7.213,7.213,0,0,0,5.013-2.506C239.209,498.105,238.011,489.442,237.847,488.461Z" transform="translate(-125.717 -477.678)" fill="#bdbdbd"/>
        </g>
        <g id="Group_9847" data-name="Group 9847" transform="translate(200.516 7)">
          <path id="Path_2949" data-name="Path 2949" d="M602.45,472.247s-.163,8.173,0,8.991c.109.817-3.215,5.612-4.577,5.394s-4.087-.654-4.468-1.144c-.381-.436-.218-1.526-.054-2.506s1.144-9.862,1.144-10.3C594.44,472.247,600.924,470.994,602.45,472.247Z" transform="translate(-523.24 -258.354)" fill="#ffd3bc"/>
          <path id="Path_2950" data-name="Path 2950" d="M596.389,487.789c-1.689.926-2.67,3.705-2.888,3.76s-.708-.055-.708-.327.054-1.2-.218-1.2c-.327,0-.654,1.526-.708,3.76s-.872,7.519,0,8.173c.545.436,5.449,3,5.612,3.378.163.327-.109,2.779.327,3.16s1.362,1.308,2.125,1.362,5.176.49,7.247,0,4.686-1.471,4.795-1.744c.055-.272-.545-6.157-1.2-6.865S605.379,494,605,493.4a6.772,6.772,0,0,1-.654-2.833,3.75,3.75,0,0,0-2.125-3.106A10,10,0,0,0,596.389,487.789Z" transform="translate(-522.464 -265.395)" fill="url(#linear-gradient)"/>
          <path id="Path_2951" data-name="Path 2951" d="M518.761,480.936s0,4.74-.163,5.558c-.109.817,3.215,5.612,4.577,5.394s4.087-.654,4.468-1.144c.381-.436.218-1.526.054-2.506s-1.035-6.43-1.035-6.92C526.717,480.882,520.287,479.683,518.761,480.936Z" transform="translate(-489.299 -262.302)" fill="#ffd3bc"/>
          <path id="Path_2952" data-name="Path 2952" d="M521.219,288.009c-1.907,7.029-5.558,31-5.558,42.719,0,11.66-1.144,41.411-1.144,45.934s-.49,15.747.708,16.346a11.377,11.377,0,0,0,7.574,1.744c3.705-.6,4.686-2.942,4.795-5.067s.981-17.545,1.853-23.484,3.978-17.382,6.048-24.792c2.071-7.356,6.811-22.177,8.064-22.122s9.154,32.529,9.808,34.382,1.907,28.007,2.016,30.186c.055,2.18,0,4.3,1.362,5.176s5.612,3.106,7.792,3.269,3.651-3.324,4.087-4.414c.381-1.035,1.144-36.017.872-45.607s.49-27.462.055-33.292-1.853-18.308-2.779-20.978C565.79,285.339,521.219,288.009,521.219,288.009Z" transform="translate(-487.398 -174.21)" fill="#192b59"/>
          <path id="Path_2953" data-name="Path 2953" d="M494.176,113.615c1.853-2.071,10.407-11.715,12.151-12.042,1.689-.327,5.83-1.09,6.757-2.071s4.849-13.241,3.269-15.475c-1.526-2.234-7.519-1.58-9.317,2.18-1.8,3.814-1.744,5.776-4.686,8.391-3,2.615-16.02,13.241-17.218,14.33s1.2,6.321,3.106,7.192C490.09,117.1,494.176,113.615,494.176,113.615Z" transform="translate(-473.922 -81.33)" fill="url(#linear-gradient-2)"/>
          <path id="Path_2954" data-name="Path 2954" d="M508.785,137.591c-4.414.926-11.661,1.689-14.058,2.452s-11.878,4.087-11.824,2.67,4.414-7.628,3.6-8.282c-.763-.654-5.449-1.417-6.212-2.4s-1.853-3.324-2.888-3.051-13.35,11.769-12.532,16.129c1.962,10.353,31.058,17.872,31.712,22.395s-2.234,47.786-.654,49.366,18.471,7.683,26.917,8.228c8.5.545,23.375-2.452,24.193-4.686s-4.141-45.225-3.542-45.225.763,13.513,7.192,17.055c4.25,2.289,10.135-.055,11.279-1.362,1.144-1.253-4.032-19.289-6.321-25.337-2.343-6.048-4.523-18.58-9.808-23.049-5.231-4.468-12.7-3.705-15.257-4.74s-11.116-.272-13.3-.545C515.16,137.1,508.785,137.591,508.785,137.591Z" transform="translate(-464.829 -102.364)" fill="url(#linear-gradient-3)"/>
          <path id="Path_2955" data-name="Path 2955" d="M638.539,222.041s-7.574,2.288-8.173,3.051-1.635,3.923,0,5.231,3.433,2.288,5.394.763,3.705-3.542,4.849-3.814,4.468.218,5.885-.327,4.087-11.225,3-11.878S638.539,222.041,638.539,222.041Z" transform="translate(-539.768 -141.535)" fill="url(#linear-gradient-4)"/>
          <path id="Path_2956" data-name="Path 2956" d="M538.633,113.96c-2.452-.49-7.138-5.122-7.574-9.808-.436-4.577-3.76-17.382,7.9-22.177,10.952-4.523,22.231.109,23.866,5.721,1.526,5.176-11.334,5.449-16.074,8.827s-5.013,5.612-6.212,5.122C539.341,101.046,538.633,113.96,538.633,113.96Z" transform="translate(-494.622 -80.15)" fill="#e64d4e"/>
          <path id="Path_2957" data-name="Path 2957" d="M544.962,123.623c-.163,2.071-.654,12.205.218,13.677.817,1.362,2.234,5.34,7.846,5.176s9.208-5.776,9.535-6.43-.327-8.773-.327-10.08c0-1.362-7.519-4.577-10.571-4.468C548.612,121.552,545.125,121.661,544.962,123.623Z" transform="translate(-501.169 -98.967)" fill="url(#linear-gradient-5)"/>
          <path id="Path_2958" data-name="Path 2958" d="M541.795,111.814c.654,0-.109,3.814,1.035,5.067s6.1,7.846,11.388,7.192c4.577-.545,3.923-4.468,4.577-7.737.6-2.942,2.506-3.215,3.16-10.843.272-2.942,1.635-7.628-.926-8.446-2.561-.872-12.26-3.16-14.657,0s-2.615,10.68-3.869,9.753c-1.253-.981-3.869-5.721-5.449-3.16C535.529,106.2,538.471,111.923,541.795,111.814Z" transform="translate(-497.512 -87.103)" fill="#f2dad4"/>
          <path id="Path_2959" data-name="Path 2959" d="M607.728,196.717l-15.311,19.4a1.5,1.5,0,0,0,1.2,2.452l28.334-.49a1.447,1.447,0,0,0,1.2-.6l14.494-19.343A1.4,1.4,0,0,0,636.5,195.9l-27.625.218A1.813,1.813,0,0,0,607.728,196.717Z" transform="translate(-522.742 -132.83)" fill="url(#linear-gradient-6)"/>
          <path id="Path_2960" data-name="Path 2960" d="M655.333,211.778c-1.471.163-3.651.981-3.651,1.744s1.744.981,2.234,1.09c.49.054,1.09.218.926.436s-.545,1.417-1.526,1.253a57.073,57.073,0,0,0-5.994-.272c-.817,0-1.744.545-1.853,1.144-.055.6-.218.708-.708.763s-1.362.49-1.362,1.253,1.907,1.471,1.907,1.744,3.76,2.561,4.523,3,2.125,1.526,2.888,1.526a2.416,2.416,0,0,0,2.18-1.8c.109-1.09,1.635-1.853,1.635-2.4s-.49-.926-.436-1.253,1.417-.817,1.417-1.635a11.962,11.962,0,0,0-.6-2.343c-.055-.327-.381-1.09-.055-1.2s1.417-1.09,1.2-2.071C657.948,211.887,656.041,211.669,655.333,211.778Z" transform="translate(-546.1 -140.045)" fill="#ffd3bc"/>
          <path id="Path_2961" data-name="Path 2961" d="M515.281,490.189c1.689.926,2.67,3.705,2.888,3.76s.708-.054.708-.327-.054-1.2.218-1.2c.327,0,.654,1.526.708,3.76s.872,7.519,0,8.173c-.545.436-5.449,3-5.612,3.378-.163.327.109,2.779-.327,3.16s-1.362,1.308-2.125,1.362-5.176.49-7.247,0-4.686-1.471-4.795-1.744c-.055-.272.545-6.157,1.2-6.866s5.394-7.247,5.776-7.846a6.772,6.772,0,0,0,.654-2.833,3.75,3.75,0,0,1,2.125-3.106A10,10,0,0,1,515.281,490.189Z" transform="translate(-480.696 -266.487)" fill="url(#linear-gradient-7)"/>
        </g>
      </g>
    </g>
    <ellipse id="Ellipse_1429" data-name="Ellipse 1429" cx="246.14" cy="8.019" rx="246.14" ry="8.019" transform="translate(437 468.791)" fill="url(#linear-gradient-8)"/>
  </g>
</svg>
