<svg xmlns="http://www.w3.org/2000/svg" xmlns:xlink="http://www.w3.org/1999/xlink" width="606" height="484" viewBox="0 0 606 484">
  <defs>
    <filter id="_500" x="0" y="0" width="606" height="484" filterUnits="userSpaceOnUse">
      <feOffset dy="3" input="SourceAlpha"/>
      <feGaussianBlur stdDeviation="3" result="blur"/>
      <feFlood flood-opacity="0.161"/>
      <feComposite operator="in" in2="blur"/>
      <feComposite in="SourceGraphic"/>
    </filter>
    <linearGradient id="linear-gradient" x1="0.5" y1="1.062" x2="0.5" y2="-1.067" gradientUnits="objectBoundingBox">
      <stop offset="0" stop-color="#fff"/>
      <stop offset="1" stop-color="#e6e7e8"/>
    </linearGradient>
    <linearGradient id="linear-gradient-2" x1="1.094" y1="0.505" x2="0.021" y2="0.495" gradientUnits="objectBoundingBox">
      <stop offset="0" stop-color="#4e9cff"/>
      <stop offset="0.95" stop-color="#176ad4"/>
    </linearGradient>
    <linearGradient id="linear-gradient-3" x1="-0.001" y1="0.502" x2="1.001" y2="0.502" gradientUnits="objectBoundingBox">
      <stop offset="0" stop-color="#4e9cff"/>
      <stop offset="0.747" stop-color="#176ad4"/>
    </linearGradient>
    <linearGradient id="linear-gradient-4" x1="0" y1="0.5" x2="1" y2="0.5" xlink:href="#linear-gradient-3"/>
    <linearGradient id="linear-gradient-5" x1="0.001" y1="0.501" x2="1.002" y2="0.501" xlink:href="#linear-gradient-3"/>
    <linearGradient id="linear-gradient-6" x1="0.428" y1="0.568" x2="1.328" y2="0.568" xlink:href="#linear-gradient-3"/>
    <linearGradient id="linear-gradient-7" x1="-0.12" y1="0.424" x2="1.055" y2="0.424" xlink:href="#linear-gradient-3"/>
    <linearGradient id="linear-gradient-8" x1="0.063" y1="0.537" x2="0.933" y2="0.537" xlink:href="#linear-gradient-3"/>
    <linearGradient id="linear-gradient-9" x1="-0.234" y1="0.243" x2="0.3" y2="0.553" gradientUnits="objectBoundingBox">
      <stop offset="0" stop-color="#f4840f"/>
      <stop offset="1" stop-color="#f4ce0f"/>
    </linearGradient>
    <linearGradient id="linear-gradient-10" x1="-0.166" y1="0.23" x2="0.782" y2="0.563" gradientUnits="objectBoundingBox">
      <stop offset="0" stop-color="#f4ce0f"/>
      <stop offset="1" stop-color="#f4f1e0"/>
    </linearGradient>
  </defs>
  <g id="_500-2" data-name="500" transform="translate(9 192.723)">
    <g transform="matrix(1, 0, 0, 1, -9, -192.72)" filter="url(#_500)">
      <text id="_500-3" data-name="500" transform="translate(9 371)" fill="#fff" font-size="371" font-family="SourceSansPro-Bold, Source Sans Pro" font-weight="700"><tspan x="0" y="0">500</tspan></text>
    </g>
    <ellipse id="Ellipse_1429" data-name="Ellipse 1429" cx="246.14" cy="8.019" rx="246.14" ry="8.019" transform="translate(48.443 204.069)" fill="url(#linear-gradient)"/>
    <g id="Group_9849" data-name="Group 9849" transform="translate(210.07 -34.76)">
      <path id="Path_2963" data-name="Path 2963" d="M415.283,268.184c-2.128,2.237-4.964,7.637-5.564,9.274L408.3,262.347l9.547-9.547Z" transform="translate(-395.632 -164.918)" fill="url(#linear-gradient-2)"/>
      <path id="Path_2964" data-name="Path 2964" d="M434.328,516.778c-2.073,1.637-7.146,3.982-10.256,5.019s-5.783,1.691-7.092,2.455a3.337,3.337,0,0,0-1.091,3.873c.546.764,5.673,6.819,11.947,6.874s7.91-.218,9.056-.927,2.618-1.8,3-1.746c.327.055.982.818,1.637.982a7.93,7.93,0,0,0,4.255-1.418,11.624,11.624,0,0,0,1.473-4.582c0-1.037,1.146-6.6.655-6.928C447.421,520.16,437.056,514.6,434.328,516.778Z" transform="translate(-398.967 -284.66)" fill="url(#linear-gradient-3)"/>
      <path id="Path_2965" data-name="Path 2965" d="M496.519,267.456c-5.728,9.056-26.731,42.769-28.858,52.752S452.222,373.615,450.8,376.67c-1.473,3.055-2.946,3.6-9.165,1.364-6.274-2.237-6.765-3.546-6.765-6.11s9.983-42.551,11.729-49.643,13.965-47.242,13.965-49.152-9.165-8.837-10.583-19.748c-1.473-10.91-.327-20.566-1.746-20.73-1.473-.164-22.476,12.056-24.6,12.22-2.073.164-4.037,2.237-4.037,1.473,0-.818,2.728-19.584,2.728-19.584s12.383-10.256,15.766-13.147,17.839-13.638,23.13-10.256,7.365,20.566,8.347,25.858.164,8.183,2.237,8.183,6.274-1.473,6.274-1.473Z" transform="translate(-400.768 -142.152)" fill="#192b59"/>
      <path id="Path_2966" data-name="Path 2966" d="M540.363,128.818c.655-1.255-2.618-4.8-4.473-6.164-1.8-1.309-2.782-1.364-3.764-2.182s-1.909-2.455-4.2-1.036-4.91,6.11-3.328,8.347c1.637,2.237,4.2,3.273,5.619,4.146,1.473.818.818,1.527,2.509,1.255C534.526,133.073,538.127,133.073,540.363,128.818Z" transform="translate(-448.267 -104.054)" fill="#f2dad4"/>
      <path id="Path_2967" data-name="Path 2967" d="M576.023,176.478c-1.364-1.036-6.328-4.8-11.238-5.564-4.855-.764-7.746-.273-8.456-.655-.655-.382-5.073-1.691-7.746-8.619-2.728-6.928-13.311-26.24-14.238-26.24s-2.346,2.509-5.619,3.6-5.4.382-5.455,2.128,5.892,9.438,8.347,16.42c2.4,6.983,6.928,16.857,8.237,18.6s2.618,3.055,1.909,3.382-27.494,23.185-29.731,26.4-2.291,17.839,3.546,23.621c7.856,7.8,15.493,9.874,21.166,9.874,4.037,0,3-8.728,20.075-21.057,4.473-3.219,12.329-6.764,15.384-5.728s8.4,14.947,17.893,18.166,16.147-2.237,21.712-5.019c5.619-2.728,15.766-9.274,12-14.729s-4.528-3.491-9.274-1.091c-4.746,2.346-15.329,5.728-16.148,4.31-.873-1.418-7.746-13.093-8.292-16.038s-.709-7.8-2.4-11.892S576.023,176.478,576.023,176.478Z" transform="translate(-442.139 -111.563)" fill="url(#linear-gradient-4)"/>
      <path id="Path_2968" data-name="Path 2968" d="M653.2,185.663c2.728-2.018,5.728-3.328,6-4.855.327-1.582,3.382-2.782,6.383-1.473s4.637.218,5.837,2.509,3.982,6.928,4.255,11.074c.327,4.146-4.692,12.274-9.983,13.584S653.2,185.663,653.2,185.663Z" transform="translate(-506.933 -131.277)" fill="#e64d4e"/>
      <path id="Path_2969" data-name="Path 2969" d="M650.028,185.076c-3.328.546-8.947,3.71-11.456,4.855s-11.892,9.492-11.02,15.875c.927,6.383,16.693,6.11,17.675,5.783.982-.382,1.309,2.291,5.946.164,4.582-2.182,4.037-3.819,3.219-4.037-1.855-.491-2.837-3.219-1.418-3.819,1.473-.6,3.273-3.328,4.746-4.091,2.891-1.527-.327-6.383-3.6-8.456C650.628,189.222,652.592,184.639,650.028,185.076Z" transform="translate(-495.251 -134.126)" fill="#f2dad4"/>
      <path id="Path_2970" data-name="Path 2970" d="M652.206,208.065a32.152,32.152,0,0,1-8.074,3.6c-5.346,1.637-5.619.327-7.2-.273-1.309-.491-4.473-1.418-5.946-3.328-1.418-1.964-.927-3.819-.218-5.946.218-.6,6.983-8.019,6.983-8.019-1.582.6-6.328,4.473-9.6,8.51-3.328,4.037-2.346,7.2-1.637,8.783s7.037,5.619,12.492,4.964c5.455-.6,5.128-4.037,8.456-4.473a15.2,15.2,0,0,1,5.892-.055C655.643,212.157,652.206,208.065,652.206,208.065Z" transform="translate(-494.484 -138.241)" fill="#e64d4e"/>
      <path id="Path_2971" data-name="Path 2971" d="M536.132,117.273c1.364-.382,1.037,2.728,1.364,3.219s-2.4.491-2.891-.6S535.314,117.546,536.132,117.273Z" transform="translate(-452.983 -103.31)" fill="#f2dad4"/>
      <path id="Path_2972" data-name="Path 2972" d="M402.056,223.005c-8.292-2.291-14.62,12.929-15.6,16.857s2.182,10.747.6,12.22c-1.582,1.527-2.346,8.947-1.8,11.62.546,2.618,3.764,5.292,6.928,5.346a8.178,8.178,0,0,0,7.528-5.128c.927-2.837-.436-11.511,0-13.256s5.946-7.8,6.383-10.583S410.185,225.242,402.056,223.005Z" transform="translate(-385.079 -151.271)" fill="#176ad4"/>
      <path id="Path_2973" data-name="Path 2973" d="M707.627,247.985c-1.855.273-1.309,3.273-1.309,4.473a68.447,68.447,0,0,1-.927,7.092,3.177,3.177,0,0,1-1.909,2.346c-.818.491-1.8,3.819.164,5.837s5.837.109,7.2,0a6.071,6.071,0,0,0,2.837-1.418s2.127.655,2.891-.545a2.776,2.776,0,0,0,0-2.564c0-.164,1.309.382,1.909-1.255s-.491-1.746-.546-2.291c0-.546,2.782.055,3.055-2.018s-1.418-1.909-1.418-2.291,1.418-.273,1.473-1.091-.6-2.891-1.255-3.055-1.855-.382-2.182.164a2.807,2.807,0,0,0-.218,1.309c-.054.164-.655.382-1.527.491-.873.055-4.146.873-4.583.491-.491-.436-1.855-1.146-1.855-2.018C709.482,250.713,709.373,247.713,707.627,247.985Z" transform="translate(-529.338 -162.722)" fill="#f2dad4"/>
      <path id="Path_2974" data-name="Path 2974" d="M523.629,108.945c-.109.055-.382.218-.382.218-.546.655-.546,2.891,1.636,5.783s4.364,3.764,5.455,3.873a3.31,3.31,0,0,0,.382-.546c.436-1.146-.818-4.091-2.455-6C526.63,110.309,524.939,108.509,523.629,108.945Z" transform="translate(-447.735 -99.51)" fill="#192b59"/>
      <path id="Path_2975" data-name="Path 2975" d="M516.823,115.083c-2.182-2.891-2.182-5.073-1.637-5.783-4.2,2.346-9.438,7.255-9.929,9.71-.491,2.564,2.673,6.055,4.473,6,1.8-.109,5.946-2.291,7.91-3.219,1.637-.818,3.764-1.855,4.637-2.837C521.241,118.847,519,117.974,516.823,115.083Z" transform="translate(-439.674 -99.701)" fill="url(#linear-gradient-5)"/>
      <path id="Path_2976" data-name="Path 2976" d="M537.892,95.03a5.545,5.545,0,0,1-1.2-1.473,2.672,2.672,0,0,1-.109-1.418c0-.109.436-.164.164-.382a.39.39,0,0,0-.491.109s.218.546.164.655a1.366,1.366,0,0,0-.055,1.2c.218.6.709.764,1.255,1.255.491.546.164.982,0,1.527s.109,1.364-.436,2.018-.873.164-.927-.109a3.45,3.45,0,0,0-.655-1.255c-.218-.164-.436.055-.6.327s0,.6.273.546c.273,0-.164-.327.164-.6s.437.546.818,1.909-1.582,1.036-2.673.818-.491.709-.109,1.473c.382.818-1.418.927-2.946,1.746-1.036.546-3.328,1.527-5.128,2.564.218.327.436.655.709,1.036a10.1,10.1,0,0,0,4.692,3.71c1.364-.982,2.291-2.182,2.182-2.346-.218-.327.164-.6-.273-.655-.382-.109-1.255,1.036-1.855.436-.545-.6-.055-.546.709-1.8s3.6-2.4,4.146-2.673c.6-.273.273-1.637.764-1.691s2.128-1.8,2.618-3C539.529,97.812,538.765,95.957,537.892,95.03Z" transform="translate(-448.851 -91.704)" fill="#4f2d05"/>
      <path id="Path_2977" data-name="Path 2977" d="M537.3,125.273V125C537.354,125.109,537.3,125.218,537.3,125.273Z" transform="translate(-454.26 -106.836)" fill="url(#linear-gradient-6)"/>
      <path id="Path_2978" data-name="Path 2978" d="M537.109,126c-.055.109-.055.164-.109.273A.922.922,0,0,0,537.109,126Z" transform="translate(-454.123 -107.291)" fill="url(#linear-gradient-7)"/>
      <path id="Path_2979" data-name="Path 2979" d="M536.764,126.6l-.164.164Z" transform="translate(-453.942 -107.563)" fill="url(#linear-gradient-8)"/>
    </g>
    <g id="Group_9850" data-name="Group 9850" transform="translate(165.722 199.638)">
      <path id="Path_2980" data-name="Path 2980" d="M338.611,531.9c-.491-.927-3.6-1.746-5.346-2.182a65.222,65.222,0,0,0-8.128-1.2c-1.2,0-3.873-3.109-4.31-4.037a15.411,15.411,0,0,0-1.691-2.782c-.164-.055-.436.655-.436.655s-.055,7.583,1.091,7.856,8.292.491,9.274.873a9.41,9.41,0,0,0,3.6,1.255,6.139,6.139,0,0,0,1.909-.382,4.456,4.456,0,0,0,2.128.491C338.066,532.5,338.993,532.663,338.611,531.9Z" transform="translate(-310.563 -521.522)" fill="url(#linear-gradient-9)"/>
      <path id="Path_2981" data-name="Path 2981" d="M317.466,530.754c1.146-.873,4.091.709,7.092,0,1.037-.218,2.182-1.909,3.328-.709s.327,3.491-.327,4.255-3.655,1.637-5.128,1.473-5.128-.055-6.274-.764-.164-2.073.382-3.219S317.139,530.972,317.466,530.754Z" transform="translate(-309.166 -525.123)" fill="url(#linear-gradient-10)"/>
      <path id="Path_2982" data-name="Path 2982" d="M310.012,523.572c-.982,1.691-2.291,5.346-3.382,5.4-1.091.109-2.619.327-2.837,1.637-.218,1.255,3.764,3.328,6.928,3.055,3.164-.218,3.764-1.255,4.528-1.2.818.109.982-.382.982-.382a14.791,14.791,0,0,0-3.928-1.255c-1.364-.055-1.582-.164-1.255-.873a17.378,17.378,0,0,0,1.364-2.673,33.091,33.091,0,0,0,0-5.728c-.055-.164-.218,0-.382,0-.109,0-.109-.218-.327-.164-.218,0-.055.109-.273.109s-.382-.273-.6,0a2.749,2.749,0,0,0-.655,1.255A2.589,2.589,0,0,1,310.012,523.572Z" transform="translate(-303.784 -521.378)" fill="#f4ce0f"/>
    </g>
    <g id="Group_9853" data-name="Group 9853" transform="translate(386.919 110.834)">
      <g id="Group_9851" data-name="Group 9851" transform="translate(42.457 17.433)">
        <path id="Path_2983" data-name="Path 2983" d="M787.313,468.314l-.218,3.164a3.235,3.235,0,0,0,3,3.437l4.2.273a3.23,3.23,0,0,0,3.437-3.164l-7.146-81.447C790.586,388.886,787.531,464.768,787.313,468.314Z" transform="translate(-787.089 -390.549)" fill="#f28c11"/>
      </g>
      <g id="Group_9852" data-name="Group 9852">
        <path id="Path_2984" data-name="Path 2984" d="M719.156,384.254l-9.874,87.72a3.466,3.466,0,0,0,3.273,3.873l4.582.273a3.524,3.524,0,0,0,3.71-3.273l.218-3.437a7.065,7.065,0,0,1,7.474-6.6l7.419.491a7.065,7.065,0,0,1,6.6,7.474l-.218,3.437a3.523,3.523,0,0,0,3.273,3.71l4.582.273a3.489,3.489,0,0,0,3.71-3.437l1.255-88.266A3.408,3.408,0,0,0,752,383.053L722.7,381.2A3.416,3.416,0,0,0,719.156,384.254Z" transform="translate(-709.261 -368.865)" fill="#f4ce0f"/>
        <path id="Path_2985" data-name="Path 2985" d="M735.727,362.851l-.927,14.4,3.764.218.818-12.874a2.228,2.228,0,0,1,2.4-2.128l15.438.982a2.228,2.228,0,0,1,2.128,2.4l-.818,12.874,3.764.218.927-14.4a4.517,4.517,0,0,0-4.2-4.8L740.528,358.6A4.6,4.6,0,0,0,735.727,362.851Z" transform="translate(-720.868 -358.592)" fill="#f4ce0f"/>
      </g>
      <path id="Path_2986" data-name="Path 2986" d="M755.876,452.4l-27.549-1.746a1.881,1.881,0,0,1-1.473-.982,1.806,1.806,0,0,1,.109-1.746l15.275-22.967a1.635,1.635,0,0,1,1.582-.764,1.881,1.881,0,0,1,1.473.982l12.274,24.712a1.806,1.806,0,0,1-.109,1.746A1.742,1.742,0,0,1,755.876,452.4Zm-24.221-5.073,21.439,1.364-9.547-19.257Z" transform="translate(-717.177 -388.403)" fill="#f28c11"/>
    </g>
  </g>
</svg>
