<?xml version="1.0" encoding="utf-8"?>
<!-- Generator: Adobe Illustrator 25.0.1, SVG Export Plug-In . SVG Version: 6.00 Build 0)  -->
<svg version="1.1" id="Layer_1" xmlns="http://www.w3.org/2000/svg" xmlns:xlink="http://www.w3.org/1999/xlink" x="0px" y="0px"
	 viewBox="0 0 606.33 453.81" style="enable-background:new 0 0 606.33 453.81;" xml:space="preserve">
<style type="text/css">
	.st0{fill:#5A6060;}
	.st1{fill:#111111;}
	.st2{fill:#DEDEDE;}
	.st3{fill:#212320;}
	.st4{fill:url(#SVGID_1_);}
	.st5{fill:#C3C3C3;}
	.st6{fill:url(#SVGID_2_);}
	.st7{fill:#202022;}
	.st8{fill:#2E3430;}
	.st9{fill:#292929;}
	.st10{fill:#FFFFFF;}
	.st11{fill:url(#SVGID_3_);}
	.st12{fill:url(#SVGID_4_);}
	.st13{fill:url(#SVGID_5_);}
	.st14{fill:#D4D4D4;}
	.st15{fill:url(#SVGID_6_);}
	.st16{fill:url(#SVGID_7_);}
	.st17{fill:url(#SVGID_8_);}
	.st18{opacity:0.5;fill:#FFFFFF;}
	.st19{fill:#C3BCC3;}
	.st20{fill:#806D67;}
	.st21{fill:url(#SVGID_9_);}
	.st22{fill:url(#SVGID_10_);}
	.st23{fill:url(#SVGID_11_);}
	.st24{fill:url(#SVGID_12_);}
	.st25{fill:url(#SVGID_13_);}
	.st26{fill:url(#SVGID_14_);}
	.st27{fill:#030303;}
	.st28{fill:#323232;}
	.st29{fill:#0A0A0A;}
	.st30{fill:#141414;}
</style>
<g>
	<g>
		<path class="st0" d="M512.49,110.8c-10.94-26.55-34.89-67.09-41.73-78.49c-40.1-2.97-87.69-4.48-141.53-4.48
			c-94.05,0-178.85,4.65-194.27,5.55c-11.67,11.44-26.52,39.23-44.18,82.69c-0.66,1.62-1.17,2.88-1.51,3.69
			c-0.55,1.29-1.15,2.46-1.69,3.51c-0.21,0.41-0.47,0.9-0.7,1.37c2.6,1.19,9.84,3.28,29.83,5.08c16.51,1.48,69.24,2.31,148.44,2.31
			c101.7,0,217.56-1.4,229.59-2.76c3.82-0.43,7.45-0.59,10.66-0.74c4-0.18,10.04-0.45,11.16-1.4
			C516.63,127.03,517.97,124.1,512.49,110.8z M431.76,109.07H185.04c-7.77,0-14.07-6.3-14.07-14.07l14.07-30.96
			c0-7.77,6.3-14.07,14.07-14.07c0,0,54.88-5.63,110.23-5.63c55.35,0,105.54,5.63,105.54,5.63c7.77,0,14.07,6.3,14.07,14.07
			l16.89,30.96C445.83,102.77,439.53,109.07,431.76,109.07z"/>
	</g>
	<path class="st1" d="M92.4,438.33c0,7.77-6.3,15.48-14.07,15.48H36.12c-7.78,0-12.67-6.33-15.48-15.48c0,0-3.65-20.63-3.65-59.1
		c0-27.92,0.83-40.33,0.83-40.33c0-7.78,9.12-14.08,16.89-14.08h43.62c7.77,0,14.07,6.3,14.07,14.08V438.33z"/>
	<path class="st1" d="M512.3,438.33c0,7.77,6.3,15.48,14.08,15.48h42.21c7.77,0,12.67-6.33,15.48-15.48c0,0,3.65-20.63,3.65-59.1
		c0-27.92-0.84-40.33-0.84-40.33c0-7.78-9.11-14.08-16.88-14.08h-43.62c-7.77,0-14.08,6.3-14.08,14.08V438.33z"/>
	<path class="st2" d="M534.01,154.56c0,0,52.77-2.11,64.02-9.85c11.25-7.74,13.36-27.43-8.45-31.66
		c-21.81-4.22-45.74-19.7-39.4,23.21c0,0-16.18,5.64-26.73,0L534.01,154.56z"/>
	<g>
		<path class="st3" d="M529.94,147.52l4.07,7.04c0,0,52.77-2.11,64.02-9.85c4.25-2.92,7.19-7.55,8.04-12.41
			C589.72,142.54,548.03,146.33,529.94,147.52z"/>
	</g>
	<path class="st2" d="M72.32,154.56c0,0-52.77-2.11-64.03-9.85c-11.25-7.74-13.37-27.43,8.45-31.66
		c21.81-4.22,45.73-19.7,39.4,23.21c0,0,16.19,5.64,26.74,0L72.32,154.56z"/>
	<g>
		<path class="st3" d="M76.38,147.52l-4.06,7.04c0,0-52.77-2.11-64.03-9.85c-4.25-2.92-7.19-7.55-8.04-12.41
			C16.61,142.54,58.3,146.33,76.38,147.52z"/>
	</g>
	<g>
		<linearGradient id="SVGID_1_" gradientUnits="userSpaceOnUse" x1="303.313" y1="412.4745" x2="303.313" y2="-2.1287">
			<stop  offset="0" style="stop-color:#FFFFFF"/>
			<stop  offset="0.1436" style="stop-color:#E9E9E9"/>
			<stop  offset="0.3571" style="stop-color:#CFCFCF"/>
			<stop  offset="0.4835" style="stop-color:#C5C5C5"/>
			<stop  offset="0.6602" style="stop-color:#D6D6D6"/>
			<stop  offset="0.989" style="stop-color:#FFFFFF"/>
		</linearGradient>
		<path class="st4" d="M588.93,225.61c-0.24-1.07-0.5-2.01-0.78-2.8c-7.84-21.81-33.48-37.29-39.18-59.8
			c-5.69-22.51-44.16-104.13-56.26-121.01C480.59,25.1,467.77,9.83,442.13,5.61C418.24,1.68,317.16,0.19,303.39,0v0
			c-0.02,0-0.05,0-0.08,0c-0.02,0-0.05,0-0.07,0v0C289.47,0.19,188.38,1.68,164.5,5.61c-25.64,4.22-38.46,19.5-50.57,36.38
			C101.81,58.88,63.35,140.49,57.65,163c-5.7,22.52-31.34,38-39.17,59.8c-0.29,0.79-0.55,1.73-0.79,2.8
			c-6.34,28.31,2.92,149.17,2.92,149.17c3.56,8.45,27.78,26.03,27.78,26.03c20.62,8.14,239.57,11.05,254.84,11.25l0,0
			c0.02,0,0.05,0,0.07,0c0.02,0,0.06,0,0.08,0l0,0c15.27-0.19,234.22-3.1,254.84-11.25c0,0,24.22-17.59,27.78-26.03
			C586.01,374.78,595.27,253.91,588.93,225.61z M516.57,127.14c-1.12,0.95-7.16,1.22-11.16,1.4c-3.21,0.14-6.84,0.3-10.66,0.74
			c-12.02,1.37-127.89,2.76-229.59,2.76c-79.2,0-131.93-0.82-148.44-2.31c-19.99-1.8-27.23-3.89-29.83-5.08
			c0.23-0.47,0.49-0.97,0.7-1.37c0.54-1.04,1.15-2.22,1.69-3.51c0.34-0.81,0.85-2.07,1.51-3.69c17.66-43.46,32.51-71.25,44.18-82.69
			c15.43-0.9,100.22-5.55,194.27-5.55c53.84,0,101.43,1.51,141.53,4.48c6.85,11.4,30.8,51.93,41.73,78.49
			C517.97,124.1,516.63,127.03,516.57,127.14z"/>
	</g>
	<path class="st5" d="M139.54,322.49c0,0,109.76-23.46,331.14-2.82l-6.57,45.96l-319.89,0.94L139.54,322.49z"/>
	<g>
		<g>
			<linearGradient id="SVGID_2_" gradientUnits="userSpaceOnUse" x1="303.3068" y1="304.3667" x2="303.3068" y2="411.1242">
				<stop  offset="0" style="stop-color:#C3C3C3"/>
				<stop  offset="1" style="stop-color:#BFBFBF"/>
			</linearGradient>
			<path class="st6" d="M586.57,281.68c0,0-7.97,11.73-12.66,9.85l-5.16-16.41c0,0-3.28,27.67-104.13,29.08l-8.91,29.08
				l-27.67,61.91l-32.35,15.13c67.97-1.66,150.29-4.65,162.54-9.5c0,0,24.22-17.59,27.78-26.03c0,0,3.84-50.13,4.88-93.38
				L586.57,281.68z M162.08,333.27l-8.91-29.08c-100.85-1.41-104.13-29.08-104.13-29.08l-5.16,16.41
				c-4.69,1.88-12.66-9.85-12.66-9.85l-15.5-1c1.02,43.41,4.89,94.1,4.89,94.1c3.56,8.45,27.78,26.03,27.78,26.03
				c12.97,5.13,104.44,8.18,174.31,9.79l-32.95-15.41L162.08,333.27z"/>
		</g>
	</g>
	<g>
		<path class="st7" d="M519,108.12c-13.13-31.89-44.09-82.55-44.09-82.55c-145.87-11.26-342.87,0.94-342.87,0.94
			c-21.11,18.29-45.5,81.61-49.25,90.53c-3.75,8.91-13.61,15.47,33.31,19.7c46.9,4.22,358.81,1.88,379.45-0.47
			C516.18,133.92,532.13,140.02,519,108.12z M516.57,127.14c-1.12,0.95-7.16,1.22-11.16,1.4c-3.21,0.14-6.84,0.3-10.66,0.74
			c-12.02,1.37-127.89,2.76-229.59,2.76c-79.2,0-131.93-0.82-148.44-2.31c-19.99-1.8-27.23-3.89-29.83-5.08
			c0.23-0.47,0.49-0.97,0.7-1.37c0.54-1.04,1.15-2.22,1.69-3.51c0.34-0.81,0.85-2.07,1.51-3.69c17.66-43.46,32.51-71.25,44.18-82.69
			c15.43-0.9,100.22-5.55,194.27-5.55c53.84,0,101.43,1.51,141.53,4.48c6.85,11.4,30.8,51.93,41.73,78.49
			C517.97,124.1,516.63,127.03,516.57,127.14z"/>
	</g>
	<path class="st3" d="M548.78,324.82c-33.2,9.48-232.89,9.18-247.46,9.15l0,0c-0.03,0-0.07,0-0.1,0c-0.02,0-0.07,0-0.09,0l0,0
		c-14.58,0.03-214.27,0.33-247.47-9.15c0,0-11.26,36.58,26.03,46.44c37.17,9.82,56.2,19.63,221.44,19.7l0,0c0.03,0,0.06,0,0.09,0
		c0.03,0,0.06,0,0.1,0l0,0c165.24-0.07,184.27-9.88,221.43-19.7C560.04,361.41,548.78,324.82,548.78,324.82z"/>
	<g>
		<path class="st7" d="M69.96,172.81c-0.02-35.19,14.33-44.08,14.53-44.18l0,0l0.73,1.2c0,0-0.18,0.1-0.54,0.39l0,0
			c-0.37,0.28-0.9,0.73-1.54,1.39l0,0c-1.29,1.3-3.02,3.42-4.76,6.62l0,0c-3.48,6.4-7,17.17-7,34.57l0,0
			c0,7.69,0.69,16.67,2.37,27.14l0,0l-1.39,0.22C70.66,189.64,69.96,180.58,69.96,172.81L69.96,172.81z"/>
	</g>
	<g>
		<path class="st7" d="M536.9,172.81c0.02-35.19-14.33-44.08-14.53-44.18l0,0l-0.73,1.2c0,0,0.18,0.1,0.54,0.39l0,0
			c0.37,0.28,0.9,0.73,1.54,1.39l0,0c1.29,1.3,3.01,3.42,4.76,6.62l0,0c3.49,6.4,7.01,17.17,7.01,34.57l0,0
			c0,7.69-0.68,16.67-2.37,27.14l0,0l1.39,0.22C536.2,189.64,536.9,180.58,536.9,172.81L536.9,172.81z"/>
	</g>
	<g>
		<path class="st8" d="M91.63,114.01c-0.29,0.69-0.56,1.37-0.85,2.07c-0.66,1.62-1.17,2.88-1.51,3.69
			c-0.55,1.29-1.15,2.46-1.69,3.51c-0.21,0.41-0.47,0.9-0.7,1.37c2.6,1.19,9.84,3.28,29.83,5.08c16.51,1.48,69.24,2.31,148.44,2.31
			c101.7,0,217.56-1.4,229.59-2.76c3.82-0.43,7.45-0.59,10.66-0.74c4-0.18,10.04-0.45,11.16-1.4c0.07-0.11,1.31-2.93-3.69-15.38
			c-39.85-7.62-116.89-12.77-205.41-12.77C210.45,98.98,127.22,105.17,91.63,114.01z"/>
	</g>
	<polygon class="st7" points="249.77,106.25 178.47,106.25 192.54,51.37 234.29,51.37 	"/>
	<polygon class="st7" points="434.1,107.66 362.8,107.66 376.88,52.78 418.62,52.78 	"/>
	<path class="st7" d="M335.6,121.69c0,2.63-2.13,4.77-4.76,4.77h-50.51c-2.63,0-4.76-2.13-4.76-4.77V98.82
		c0-2.63,2.13-4.76,4.76-4.76h50.51c2.63,0,4.76,2.13,4.76,4.76V121.69z"/>
	<path d="M454.2,235.9l-8.39,25.84l15.28,12.91l3.03-0.01c118.67-2.82,106.94-46.44,91.46-71.76
		C540.71,178.54,460.48,231.69,454.2,235.9z"/>
	<path class="st9" d="M453.74,237.31l-8.4,25.84l15.28,12.91l3.03-0.02c118.67-2.82,106.94-46.44,91.46-71.77
		C540.25,179.95,460.01,233.1,453.74,237.31z"/>
	<polygon class="st3" points="444.46,264.2 443.76,263.61 444.04,262.73 452.21,237.58 149.72,237.58 157.89,262.73 158.17,263.61 
		157.46,264.2 143.41,276.07 302.3,276.95 302.3,276.99 304.68,276.97 307.17,276.99 307.17,276.95 458.51,276.08 	"/>
	<g>
		<path class="st10" d="M548.35,235.47c0,14.3-11.59,25.89-25.89,25.89c-14.3,0-25.89-11.59-25.89-25.89
			c0-14.29,11.6-25.89,25.89-25.89C536.76,209.58,548.35,221.18,548.35,235.47z"/>
		<radialGradient id="SVGID_3_" cx="527.9323" cy="235.4742" r="25.8911" gradientUnits="userSpaceOnUse">
			<stop  offset="0" style="stop-color:#969696"/>
			<stop  offset="0.2489" style="stop-color:#868686"/>
			<stop  offset="0.7394" style="stop-color:#5A5A5A"/>
			<stop  offset="1" style="stop-color:#404040"/>
		</radialGradient>
		<path class="st11" d="M553.82,235.47c0,14.3-11.59,25.89-25.89,25.89c-14.3,0-25.89-11.59-25.89-25.89
			c0-14.29,11.59-25.89,25.89-25.89C542.23,209.58,553.82,221.18,553.82,235.47z"/>
		<g>
			<linearGradient id="SVGID_4_" gradientUnits="userSpaceOnUse" x1="527.9323" y1="291.7253" x2="527.9323" y2="200.3138">
				<stop  offset="0" style="stop-color:#616161"/>
				<stop  offset="0.043" style="stop-color:#737373"/>
				<stop  offset="0.1947" style="stop-color:#AFAFAF"/>
				<stop  offset="0.324" style="stop-color:#DADADA"/>
				<stop  offset="0.4244" style="stop-color:#F5F5F5"/>
				<stop  offset="0.4835" style="stop-color:#FFFFFF"/>
				<stop  offset="0.579" style="stop-color:#EEEEEE"/>
				<stop  offset="0.7681" style="stop-color:#C2C2C2"/>
				<stop  offset="0.989" style="stop-color:#878787"/>
			</linearGradient>
			<path class="st12" d="M546.17,217.1c-3.32,10.06-9.23,16.55-9.23,16.55c4.88,7.17,7.49,14.13,8.78,20.6
				c4.98-4.72,8.1-11.37,8.1-18.78C553.82,228.29,550.9,221.79,546.17,217.1z M506.36,221.18c-2.72,4.1-4.32,9.01-4.32,14.3
				c0,8.08,3.7,15.28,9.49,20.03c1.86,0.24,3.06,0.27,3.06,0.27c-4.33-9.81,8.44-17.34,8.44-17.34
				C518.01,236.15,510.93,227.38,506.36,221.18z"/>
		</g>
		<linearGradient id="SVGID_5_" gradientUnits="userSpaceOnUse" x1="529.3004" y1="245.889" x2="529.3004" y2="228.1053">
			<stop  offset="0" style="stop-color:#616161"/>
			<stop  offset="0.043" style="stop-color:#737373"/>
			<stop  offset="0.1947" style="stop-color:#AFAFAF"/>
			<stop  offset="0.324" style="stop-color:#DADADA"/>
			<stop  offset="0.4244" style="stop-color:#F5F5F5"/>
			<stop  offset="0.4835" style="stop-color:#FFFFFF"/>
			<stop  offset="0.579" style="stop-color:#EEEEEE"/>
			<stop  offset="0.7681" style="stop-color:#C2C2C2"/>
			<stop  offset="0.989" style="stop-color:#878787"/>
		</linearGradient>
		<path class="st13" d="M533.06,235.13c0,2.08-1.68,3.76-3.76,3.76c-2.08,0-3.76-1.68-3.76-3.76c0-2.08,1.69-3.76,3.76-3.76
			C531.38,231.37,533.06,233.05,533.06,235.13z"/>
		<g>
			<polygon class="st14" points="523.5,258.96 523.72,238.88 525.52,238.9 525.3,258.98 523.5,258.96 			"/>
		</g>
		<g>
			<polygon class="st14" points="527.62,244.76 529.39,244.43 531.9,257.89 530.12,258.22 527.62,244.76 			"/>
		</g>
		<g>
			<path class="st14" d="M533.31,237.56l1.8-0.06c0,0.01,0.47,14.92,0.67,16.07l0,0l-1.78,0.29
				C533.75,252.28,533.31,237.6,533.31,237.56L533.31,237.56z"/>
		</g>
		<g>
			<polygon class="st14" points="515.52,215.97 517.3,215.74 519.58,233.53 517.8,233.76 515.52,215.97 			"/>
		</g>
		<g>
			<polygon class="st14" points="521.67,214.54 523.47,214.43 524.38,229.26 522.58,229.37 521.67,214.54 			"/>
		</g>
		<g>
			<polygon class="st14" points="528.51,230.16 529.66,213.51 531.45,213.63 530.31,230.29 528.51,230.16 			"/>
		</g>
		<g>
			<polygon class="st14" points="532.18,227.51 535.15,214.97 536.91,215.38 533.93,227.93 532.18,227.51 			"/>
		</g>
	</g>
	<g>
		<radialGradient id="SVGID_6_" cx="471.1339" cy="252.5835" r="18.7068" gradientUnits="userSpaceOnUse">
			<stop  offset="0" style="stop-color:#969696"/>
			<stop  offset="0.2489" style="stop-color:#868686"/>
			<stop  offset="0.7394" style="stop-color:#5A5A5A"/>
			<stop  offset="1" style="stop-color:#404040"/>
		</radialGradient>
		<path class="st15" d="M489.84,252.58c0,10.33-8.38,18.71-18.71,18.71c-10.33,0-18.71-8.38-18.71-18.71
			c0-10.33,8.38-18.71,18.71-18.71C481.47,233.88,489.84,242.25,489.84,252.58z"/>
		<g>
			<linearGradient id="SVGID_7_" gradientUnits="userSpaceOnUse" x1="471.1339" y1="293.2163" x2="471.1339" y2="227.1869">
				<stop  offset="0" style="stop-color:#616161"/>
				<stop  offset="0.043" style="stop-color:#737373"/>
				<stop  offset="0.1947" style="stop-color:#AFAFAF"/>
				<stop  offset="0.324" style="stop-color:#DADADA"/>
				<stop  offset="0.4244" style="stop-color:#F5F5F5"/>
				<stop  offset="0.4835" style="stop-color:#FFFFFF"/>
				<stop  offset="0.579" style="stop-color:#EEEEEE"/>
				<stop  offset="0.7681" style="stop-color:#C2C2C2"/>
				<stop  offset="0.989" style="stop-color:#878787"/>
			</linearGradient>
			<path class="st16" d="M484.31,239.31c-2.39,7.26-6.67,11.95-6.67,11.95c3.53,5.18,5.41,10.21,6.35,14.88
				c3.59-3.41,5.85-8.22,5.85-13.56C489.84,247.39,487.72,242.7,484.31,239.31z M455.55,242.25c-1.97,2.96-3.12,6.51-3.12,10.33
				c0,5.83,2.68,11.04,6.86,14.47c1.34,0.17,2.2,0.2,2.2,0.2c-3.13-7.09,6.1-12.52,6.1-12.52
				C463.97,253.07,458.85,246.74,455.55,242.25z"/>
		</g>
		<linearGradient id="SVGID_8_" gradientUnits="userSpaceOnUse" x1="472.1203" y1="260.1047" x2="472.1203" y2="247.2557">
			<stop  offset="0" style="stop-color:#616161"/>
			<stop  offset="0.043" style="stop-color:#737373"/>
			<stop  offset="0.1947" style="stop-color:#AFAFAF"/>
			<stop  offset="0.324" style="stop-color:#DADADA"/>
			<stop  offset="0.4244" style="stop-color:#F5F5F5"/>
			<stop  offset="0.4835" style="stop-color:#FFFFFF"/>
			<stop  offset="0.579" style="stop-color:#EEEEEE"/>
			<stop  offset="0.7681" style="stop-color:#C2C2C2"/>
			<stop  offset="0.989" style="stop-color:#878787"/>
		</linearGradient>
		<path class="st17" d="M474.84,252.33c0,1.5-1.21,2.72-2.72,2.72c-1.5,0-2.72-1.21-2.72-2.72c0-1.5,1.22-2.72,2.72-2.72
			C473.62,249.62,474.84,250.84,474.84,252.33z"/>
		<g>
			<polygon class="st14" points="467.67,269.54 467.84,255.04 469.64,255.06 469.47,269.56 467.67,269.54 			"/>
		</g>
		<g>
			<polygon class="st14" points="470.66,259.34 472.43,259.01 474.24,268.73 472.47,269.06 470.66,259.34 			"/>
		</g>
		<g>
			<path class="st14" d="M474.76,254.09l1.8-0.06c0.01,0.01,0.34,10.81,0.48,11.58l0,0l-1.78,0.3
				C475.08,264.7,474.77,254.14,474.76,254.09L474.76,254.09z"/>
		</g>
		<g>
			<polygon class="st14" points="461.91,238.52 463.7,238.29 465.35,251.15 463.56,251.38 461.91,238.52 			"/>
		</g>
		<g>
			<polygon class="st14" points="466.36,237.47 468.16,237.36 468.81,248.08 467.02,248.19 466.36,237.47 			"/>
		</g>
		<g>
			<polygon class="st14" points="471.3,248.73 472.13,236.7 473.92,236.82 473.1,248.85 471.3,248.73 			"/>
		</g>
		<g>
			<polygon class="st14" points="473.96,246.77 476.11,237.71 477.86,238.12 475.71,247.19 473.96,246.77 			"/>
		</g>
	</g>
	<path class="st18" d="M530.6,199.23c9.67,9.48,24.35,30.06,14.55,61.74c28.62-15.68,20.1-40.1,9.97-56.69
		C550.98,197.52,541.82,196.75,530.6,199.23z"/>
	<g>
		<path class="st19" d="M497.25,232.33c0,5.17-4.19,9.35-9.35,9.35c-5.17,0-9.36-4.19-9.36-9.35c0-5.17,4.19-9.35,9.36-9.35
			C493.06,222.98,497.25,227.17,497.25,232.33z"/>
		<g>
			<g>
				<path class="st20" d="M487.72,233.39l-6.15,5.82c1.67,1.53,3.89,2.48,6.33,2.48c3.72,0,6.93-2.18,8.43-5.33L487.72,233.39z
					 M494.68,225.91c-1.7-1.8-4.11-2.93-6.78-2.93c-4.1,0-7.58,2.64-8.84,6.31l8.84,3.05L494.68,225.91z"/>
			</g>
		</g>
	</g>
	<path class="st18" d="M445.85,261.6l-0.5,1.55l6.56,5.54c59.31-3.54,95.99-28.66,95.99-28.66
		C515.72,256.39,465.91,260.56,445.85,261.6z"/>
	<g>
		<path d="M147.03,235.9l8.4,25.84l-15.28,12.91l-3.03-0.01c-118.67-2.82-106.94-46.44-91.46-71.76
			C60.52,178.54,140.76,231.69,147.03,235.9z"/>
		<path class="st9" d="M147.51,237.31l8.39,25.84l-15.28,12.91l-3.03-0.02c-118.67-2.82-106.94-46.44-91.46-71.77
			C61,179.95,141.23,233.1,147.51,237.31z"/>
		<g>
			<path class="st10" d="M52.9,235.47c0,14.3,11.59,25.89,25.89,25.89c14.3,0,25.89-11.59,25.89-25.89
				c0-14.29-11.59-25.89-25.89-25.89C64.49,209.58,52.9,221.18,52.9,235.47z"/>
			
				<radialGradient id="SVGID_9_" cx="-202.014" cy="235.4742" r="25.8911" gradientTransform="matrix(-1 0 0 1 -128.7047 0)" gradientUnits="userSpaceOnUse">
				<stop  offset="0" style="stop-color:#969696"/>
				<stop  offset="0.2489" style="stop-color:#868686"/>
				<stop  offset="0.7394" style="stop-color:#5A5A5A"/>
				<stop  offset="1" style="stop-color:#404040"/>
			</radialGradient>
			<path class="st21" d="M47.42,235.47c0,14.3,11.6,25.89,25.89,25.89c14.3,0,25.89-11.59,25.89-25.89
				c0-14.29-11.59-25.89-25.89-25.89C59.01,209.58,47.42,221.18,47.42,235.47z"/>
			<g>
				
					<linearGradient id="SVGID_10_" gradientUnits="userSpaceOnUse" x1="-202.014" y1="291.7253" x2="-202.014" y2="200.3138" gradientTransform="matrix(-1 0 0 1 -128.7047 0)">
					<stop  offset="0" style="stop-color:#616161"/>
					<stop  offset="0.043" style="stop-color:#737373"/>
					<stop  offset="0.1947" style="stop-color:#AFAFAF"/>
					<stop  offset="0.324" style="stop-color:#DADADA"/>
					<stop  offset="0.4244" style="stop-color:#F5F5F5"/>
					<stop  offset="0.4835" style="stop-color:#FFFFFF"/>
					<stop  offset="0.579" style="stop-color:#EEEEEE"/>
					<stop  offset="0.7681" style="stop-color:#C2C2C2"/>
					<stop  offset="0.989" style="stop-color:#878787"/>
				</linearGradient>
				<path class="st22" d="M47.42,235.47c0,7.4,3.12,14.06,8.09,18.78c1.3-6.47,3.91-13.43,8.79-20.6c0,0-5.91-6.49-9.23-16.55
					C50.35,221.79,47.42,228.29,47.42,235.47z M78.21,238.44c0,0,12.78,7.53,8.44,17.34c0,0,1.21-0.04,3.06-0.27
					c5.79-4.75,9.49-11.96,9.49-20.03c0-5.29-1.59-10.2-4.31-14.3C90.31,227.38,83.23,236.15,78.21,238.44z"/>
			</g>
			
				<linearGradient id="SVGID_11_" gradientUnits="userSpaceOnUse" x1="-200.6466" y1="245.889" x2="-200.6466" y2="228.1053" gradientTransform="matrix(-1 0 0 1 -128.7047 0)">
				<stop  offset="0" style="stop-color:#616161"/>
				<stop  offset="0.043" style="stop-color:#737373"/>
				<stop  offset="0.1947" style="stop-color:#AFAFAF"/>
				<stop  offset="0.324" style="stop-color:#DADADA"/>
				<stop  offset="0.4244" style="stop-color:#F5F5F5"/>
				<stop  offset="0.4835" style="stop-color:#FFFFFF"/>
				<stop  offset="0.579" style="stop-color:#EEEEEE"/>
				<stop  offset="0.7681" style="stop-color:#C2C2C2"/>
				<stop  offset="0.989" style="stop-color:#878787"/>
			</linearGradient>
			<path class="st23" d="M68.18,235.13c0,2.08,1.68,3.76,3.76,3.76c2.08,0,3.77-1.68,3.77-3.76c0-2.08-1.69-3.76-3.77-3.76
				C69.86,231.37,68.18,233.05,68.18,235.13z"/>
			<g>
				<polygon class="st14" points="75.72,238.9 77.51,238.88 77.75,258.96 75.95,258.98 75.72,238.9 				"/>
			</g>
			<g>
				<polygon class="st14" points="69.34,257.89 71.85,244.43 73.62,244.76 71.12,258.22 69.34,257.89 				"/>
			</g>
			<g>
				<path class="st14" d="M65.46,253.57c0.2-1.15,0.68-16.05,0.67-16.07l0,0l1.8,0.05c-0.01,0.05-0.45,14.73-0.7,16.32l0,0
					L65.46,253.57L65.46,253.57z"/>
			</g>
			<g>
				<polygon class="st14" points="81.65,233.53 83.94,215.74 85.72,215.97 83.44,233.76 81.65,233.53 				"/>
			</g>
			<g>
				<polygon class="st14" points="76.86,229.26 77.77,214.43 79.57,214.54 78.66,229.37 76.86,229.26 				"/>
			</g>
			<g>
				<polygon class="st14" points="69.79,213.64 71.59,213.51 72.72,230.17 70.93,230.29 69.79,213.64 				"/>
			</g>
			<g>
				<polygon class="st14" points="64.34,215.38 66.09,214.97 69.05,227.51 67.3,227.93 64.34,215.38 				"/>
			</g>
		</g>
		<g>
			
				<radialGradient id="SVGID_12_" cx="-258.8167" cy="252.5835" r="18.706" gradientTransform="matrix(-1 0 0 1 -128.7047 0)" gradientUnits="userSpaceOnUse">
				<stop  offset="0" style="stop-color:#969696"/>
				<stop  offset="0.2489" style="stop-color:#868686"/>
				<stop  offset="0.7394" style="stop-color:#5A5A5A"/>
				<stop  offset="1" style="stop-color:#404040"/>
			</radialGradient>
			<path class="st24" d="M111.41,252.58c0,10.33,8.37,18.71,18.7,18.71c10.33,0,18.71-8.38,18.71-18.71
				c0-10.33-8.38-18.71-18.71-18.71C119.78,233.88,111.41,242.25,111.41,252.58z"/>
			<g>
				
					<linearGradient id="SVGID_13_" gradientUnits="userSpaceOnUse" x1="-258.8167" y1="293.2163" x2="-258.8167" y2="227.1869" gradientTransform="matrix(-1 0 0 1 -128.7047 0)">
					<stop  offset="0" style="stop-color:#616161"/>
					<stop  offset="0.043" style="stop-color:#737373"/>
					<stop  offset="0.1947" style="stop-color:#AFAFAF"/>
					<stop  offset="0.324" style="stop-color:#DADADA"/>
					<stop  offset="0.4244" style="stop-color:#F5F5F5"/>
					<stop  offset="0.4835" style="stop-color:#FFFFFF"/>
					<stop  offset="0.579" style="stop-color:#EEEEEE"/>
					<stop  offset="0.7681" style="stop-color:#C2C2C2"/>
					<stop  offset="0.989" style="stop-color:#878787"/>
				</linearGradient>
				<path class="st25" d="M111.41,252.58c0,5.34,2.25,10.15,5.85,13.56c0.94-4.67,2.82-9.7,6.35-14.88c0,0-4.27-4.69-6.67-11.95
					C113.52,242.7,111.41,247.39,111.41,252.58z M133.65,254.73c0,0,9.23,5.44,6.1,12.52c0,0,0.87-0.02,2.21-0.2
					c4.18-3.43,6.85-8.64,6.85-14.47c0-3.82-1.15-7.37-3.12-10.33C142.39,246.74,137.28,253.07,133.65,254.73z"/>
			</g>
			
				<linearGradient id="SVGID_14_" gradientUnits="userSpaceOnUse" x1="-257.8255" y1="260.1047" x2="-257.8255" y2="247.2557" gradientTransform="matrix(-1 0 0 1 -128.7047 0)">
				<stop  offset="0" style="stop-color:#616161"/>
				<stop  offset="0.043" style="stop-color:#737373"/>
				<stop  offset="0.1947" style="stop-color:#AFAFAF"/>
				<stop  offset="0.324" style="stop-color:#DADADA"/>
				<stop  offset="0.4244" style="stop-color:#F5F5F5"/>
				<stop  offset="0.4835" style="stop-color:#FFFFFF"/>
				<stop  offset="0.579" style="stop-color:#EEEEEE"/>
				<stop  offset="0.7681" style="stop-color:#C2C2C2"/>
				<stop  offset="0.989" style="stop-color:#878787"/>
			</linearGradient>
			<path class="st26" d="M126.4,252.33c0,1.5,1.22,2.72,2.72,2.72c1.5,0,2.72-1.21,2.72-2.72c0-1.5-1.22-2.72-2.72-2.72
				C127.62,249.62,126.4,250.84,126.4,252.33z"/>
			<g>
				<polygon class="st14" points="131.6,255.06 133.4,255.04 133.56,269.54 131.76,269.56 131.6,255.06 				"/>
			</g>
			<g>
				<polygon class="st14" points="127,268.73 128.81,259.01 130.58,259.34 128.77,269.06 127,268.73 				"/>
			</g>
			<g>
				<path class="st14" d="M124.2,265.62c0.14-0.77,0.48-11.57,0.48-11.58l0,0l1.8,0.05c0,0.05-0.32,10.61-0.51,11.82l0,0v0.01
					L124.2,265.62L124.2,265.62z"/>
			</g>
			<g>
				<polygon class="st14" points="135.89,251.15 137.54,238.29 139.33,238.52 137.68,251.38 135.89,251.15 				"/>
			</g>
			<g>
				<polygon class="st14" points="132.43,248.08 133.08,237.36 134.88,237.47 134.22,248.19 132.43,248.08 				"/>
			</g>
			<g>
				<polygon class="st14" points="127.31,236.82 129.11,236.7 129.94,248.73 128.14,248.85 127.31,236.82 				"/>
			</g>
			<g>
				<polygon class="st14" points="123.38,238.12 125.14,237.71 127.28,246.77 125.53,247.19 123.38,238.12 				"/>
			</g>
		</g>
		<path class="st18" d="M70.64,199.23c-9.67,9.48-24.35,30.06-14.55,61.74c-28.62-15.68-20.1-40.1-9.97-56.69
			C50.25,197.52,59.42,196.75,70.64,199.23z"/>
		<g>
			<path class="st19" d="M103.99,232.33c0,5.17,4.19,9.35,9.35,9.35c5.17,0,9.35-4.19,9.35-9.35c0-5.17-4.19-9.35-9.35-9.35
				C108.18,222.98,103.99,227.17,103.99,232.33z"/>
			<g>
				<g>
					<path class="st20" d="M104.91,236.36c1.51,3.15,4.71,5.33,8.43,5.33c2.45,0,4.67-0.95,6.33-2.48l-6.15-5.82L104.91,236.36z
						 M113.34,232.33l8.84-3.05c-1.26-3.66-4.74-6.31-8.84-6.31c-2.67,0-5.08,1.13-6.79,2.93L113.34,232.33z"/>
				</g>
			</g>
		</g>
		<path class="st18" d="M155.39,261.6l0.51,1.55l-6.56,5.54c-59.31-3.54-95.99-28.66-95.99-28.66
			C85.52,256.39,135.33,260.56,155.39,261.6z"/>
	</g>
	<polygon points="150.84,273.38 302.28,274.25 304.7,274.23 307.18,274.25 307.15,274.22 451.09,273.38 445.64,268.78 
		156.29,268.78 	"/>
	<g>
		<path d="M160.17,260.9h281.59l2.16-6.66H158L160.17,260.9z M154.11,242.25l1.28,3.94h291.14l1.28-3.94H154.11z"/>
	</g>
	<path class="st27" d="M301.32,333.97c-0.03,0-0.07,0-0.1,0c-0.02,0-0.07,0-0.09,0c-8.26,0.02-76.07,0.12-139.28-1.52
		c5.36,15.85,20.55,48.55,55.05,49.92c30.83,1.23,70.42,1.42,92.84,1.42c22.43,0,62.01-0.19,92.85-1.42
		c34.87-1.39,50.01-34.76,55.22-50.42C390.31,334.12,310.33,334,301.32,333.97z"/>
	<path class="st28" d="M309.06,376.22c-46.3,0-85.52-1.37-113.17-2.74c-2.16-0.11-4.25-0.21-6.27-0.32
		c0.72,0.51,1.46,1.01,2.22,1.48c27.82,1.44,68.63,2.94,117.22,2.94c47.95,0,89.54-1.47,118.5-2.88c0.75-0.48,1.5-0.97,2.22-1.48
		c-1.71,0.09-3.47,0.17-5.28,0.26C395.72,374.85,355.35,376.22,309.06,376.22z"/>
	<path class="st28" d="M309.06,368.01c-46.3,0-85.52-1.37-113.17-2.74c-5.9-0.29-11.27-0.58-16.06-0.86
		c0.44,0.49,0.89,0.97,1.36,1.45c27.48,1.57,72.65,3.52,127.88,3.52c54.19,0,100.25-1.87,129.16-3.43c0.46-0.48,0.92-0.96,1.36-1.44
		c-4.59,0.25-9.62,0.51-15.08,0.77C395.72,366.64,355.35,368.01,309.06,368.01z"/>
	<path class="st28" d="M424.5,340.63c-28.79,1.38-69.16,2.74-115.45,2.74c-46.3,0-85.52-1.36-113.17-2.74
		c-13.5-0.66-24.23-1.33-31.68-1.84c0.19,0.46,0.39,0.94,0.59,1.41c23.14,1.57,76.02,4.54,144.26,4.54c66.04,0,120-2.78,145.56-4.38
		c0.21-0.48,0.4-0.95,0.58-1.41C447.51,339.44,437.13,340.04,424.5,340.63z"/>
	<path class="st28" d="M309.06,351.58c-46.3,0-85.52-1.37-113.17-2.74c-11.29-0.56-20.65-1.12-27.76-1.58
		c0.24,0.47,0.49,0.94,0.75,1.42c24.9,1.61,75.68,4.27,140.18,4.27c62.7,0,114.51-2.51,141.47-4.13c0.25-0.47,0.5-0.94,0.75-1.41
		c-7.17,0.44-16.18,0.94-26.77,1.44C395.72,350.21,355.35,351.58,309.06,351.58z"/>
	<path class="st28" d="M309.06,359.8c-46.3,0-85.52-1.37-113.17-2.74c-8.81-0.43-16.43-0.87-22.74-1.26
		c0.32,0.48,0.64,0.95,0.97,1.43c26.4,1.62,74.68,3.94,134.93,3.94c58.84,0,108.09-2.21,136.21-3.82c0.33-0.47,0.66-0.95,0.98-1.43
		c-6.21,0.36-13.5,0.75-21.75,1.14C395.72,358.43,355.35,359.8,309.06,359.8z"/>
	<g>
		<path class="st29" d="M447.98,381.01c22.19-2.92,50.18-8.68,63.51-12.36c3.22-0.89,6.46-1.79,9.86-2.69
			c9.51-2.51,16.23-7.16,19.95-13.82c4.07-7.27,3.89-15.61,3.21-20.78c-13.01,2.37-36.67,4.04-64.38,5.23
			C477.54,347.44,474.67,373.83,447.98,381.01z"/>
		<path class="st30" d="M467.21,369.69c6.65-12.75,10.56-24.41,12.83-33.04c26.02-1.17,45.29-2.65,57.41-4.43
			c0.11,4.34-0.52,9.46-3.06,13.99c-3.16,5.65-9.02,9.64-17.42,11.86c-3.1,0.82-6.07,1.64-9.01,2.45l-0.89,0.24
			C495.41,363.98,484.32,367.04,467.21,369.69L467.21,369.69z"/>
		<g>
			<path class="st28" d="M477.31,345.79c-0.16,0.47-0.31,0.93-0.47,1.41c22.33-1.78,42.42-3.68,59.41-5.44
				c0.14-0.47,0.28-0.94,0.39-1.42C519.69,342.11,499.63,344.01,477.31,345.79z M473.67,355.69c21.34-1.66,40.72-3.45,57.41-5.15
				c0.48-0.49,0.92-1,1.35-1.52c-16.85,1.72-36.5,3.55-58.2,5.24C474.04,354.74,473.87,355.2,473.67,355.69z"/>
		</g>
	</g>
	<g>
		<path class="st29" d="M156.18,381.01c-22.19-2.92-50.18-8.68-63.51-12.36c-3.22-0.89-6.47-1.79-9.86-2.69
			c-9.52-2.51-16.23-7.16-19.96-13.82c-4.07-7.27-3.89-15.61-3.21-20.78c13.01,2.37,36.67,4.04,64.39,5.23
			C126.62,347.44,129.49,373.83,156.18,381.01z"/>
		<path class="st30" d="M136.95,369.69c-6.65-12.75-10.56-24.41-12.82-33.04c-26.02-1.17-45.29-2.65-57.41-4.43
			c-0.11,4.34,0.52,9.46,3.07,13.99c3.16,5.65,9.02,9.64,17.42,11.86c3.09,0.82,6.07,1.64,9.01,2.45l0.89,0.24
			C108.75,363.98,119.84,367.04,136.95,369.69L136.95,369.69z"/>
		<g>
			<path class="st28" d="M67.53,340.34c0.11,0.47,0.25,0.94,0.39,1.42c16.99,1.76,37.07,3.66,59.4,5.44
				c-0.16-0.48-0.31-0.94-0.47-1.41C104.54,344.01,84.47,342.11,67.53,340.34z M129.93,354.27c-21.7-1.7-41.36-3.52-58.2-5.24
				c0.42,0.52,0.87,1.03,1.35,1.52c16.69,1.69,36.07,3.48,57.41,5.15C130.29,355.2,130.12,354.74,129.93,354.27z"/>
		</g>
	</g>
</g>
</svg>
