<svg xmlns="http://www.w3.org/2000/svg" xmlns:xlink="http://www.w3.org/1999/xlink" width="94.441" height="89.995" viewBox="0 0 94.441 89.995">
  <defs>
    <linearGradient id="linear-gradient" x1="0.5" y1="1" x2="0.5" gradientUnits="objectBoundingBox">
      <stop offset="0" stop-color="gray" stop-opacity="0.251"/>
      <stop offset="0.54" stop-color="gray" stop-opacity="0.122"/>
      <stop offset="1" stop-color="gray" stop-opacity="0.102"/>
    </linearGradient>
    <linearGradient id="linear-gradient-2" x1="0.367" y1="1.185" x2="0.462" y2="-0.429" xlink:href="#linear-gradient"/>
    <linearGradient id="linear-gradient-3" x1="0.5" y1="1.418" x2="0.5" y2="-0.418" xlink:href="#linear-gradient"/>
    <linearGradient id="linear-gradient-4" x1="0.637" y1="0.767" x2="0.728" y2="0.223" xlink:href="#linear-gradient"/>
    <linearGradient id="linear-gradient-6" x1="0.5" y1="1" x2="0.5" gradientUnits="objectBoundingBox">
      <stop offset="0" stop-color="#b3b3b3" stop-opacity="0.251"/>
      <stop offset="0.54" stop-color="#b3b3b3" stop-opacity="0.102"/>
      <stop offset="1" stop-color="#b3b3b3" stop-opacity="0.051"/>
    </linearGradient>
    <clipPath id="clip-path">
      <rect id="Rectangle_1781" data-name="Rectangle 1781" width="37.764" height="25.117" rx="8.85" fill="#fff"/>
    </clipPath>
  </defs>
  <g id="undraw_folder_x4ft" transform="translate(0.004 0.041)">
    <path id="Path_2715" data-name="Path 2715" d="M527.181,314.2H513.53V258.73h25.49Z" transform="translate(-447.049 -225.269)" fill="url(#linear-gradient)"/>
    <path id="Path_2716" data-name="Path 2716" d="M523.75,314.2H510.37V258.73h24.984Z" transform="translate(-444.298 -225.269)" fill="#f5f5f5"/>
    <rect id="Rectangle_1764" data-name="Rectangle 1764" width="56.86" height="21.86" transform="matrix(0.963, -0.269, 0.269, 0.963, -0.004, 15.269)" fill="url(#linear-gradient-2)"/>
    <rect id="Rectangle_1765" data-name="Rectangle 1765" width="55.909" height="21.16" transform="matrix(0.963, -0.269, 0.269, 0.963, 0.649, 15.415)" fill="#f4f4f4"/>
    <rect id="Rectangle_1766" data-name="Rectangle 1766" width="14.066" height="1.073" transform="matrix(0.963, -0.269, 0.269, 0.963, 17.284, 18.469)" fill="#f5f5f5"/>
    <rect id="Rectangle_1767" data-name="Rectangle 1767" width="14.066" height="1.073" transform="matrix(0.963, -0.269, 0.269, 0.963, 18.44, 22.602)" fill="#fff"/>
    <rect id="Rectangle_1768" data-name="Rectangle 1768" width="22.605" height="1.073" transform="matrix(0.963, -0.269, 0.269, 0.963, 17.861, 20.535)" fill="#fff"/>
    <circle id="Ellipse_713" data-name="Ellipse 713" cx="2.504" cy="2.504" r="2.504" transform="matrix(0.963, -0.269, 0.269, 0.963, 9.124, 20.936)" fill="#fff"/>
    <rect id="Rectangle_1769" data-name="Rectangle 1769" width="57.128" height="22.16" transform="translate(16.195 24.587) rotate(-20.42)" fill="url(#linear-gradient-3)"/>
    <rect id="Rectangle_1770" data-name="Rectangle 1770" width="55.909" height="21.16" transform="translate(16.934 24.935) rotate(-20.42)" fill="#f7f7f7"/>
    <rect id="Rectangle_1771" data-name="Rectangle 1771" width="14.066" height="1.073" transform="translate(33.766 26.586) rotate(-20.42)" fill="#f5f5f5"/>
    <rect id="Rectangle_1772" data-name="Rectangle 1772" width="14.066" height="1.073" transform="translate(35.264 30.607) rotate(-20.42)" fill="#fff"/>
    <rect id="Rectangle_1773" data-name="Rectangle 1773" width="22.673" height="1.077" transform="matrix(0.937, -0.349, 0.349, 0.937, 34.739, 28.634)" fill="#fff"/>
    <circle id="Ellipse_714" data-name="Ellipse 714" cx="2.504" cy="2.504" r="2.504" transform="translate(25.84 29.728) rotate(-20.42)" fill="#fff"/>
    <rect id="Rectangle_1774" data-name="Rectangle 1774" width="22.29" height="56.983" transform="matrix(0.175, -0.984, 0.984, 0.175, 34.429, 40.702)" fill="url(#linear-gradient-4)"/>
    <rect id="Rectangle_1775" data-name="Rectangle 1775" width="55.909" height="21.16" transform="matrix(0.984, 0.175, -0.175, 0.984, 38.606, 19.277)" fill="#fafafa"/>
    <rect id="Rectangle_1776" data-name="Rectangle 1776" width="1.073" height="14.066" transform="matrix(0.175, -0.984, 0.984, 0.175, 52.08, 30.305)" fill="#f5f5f5"/>
    <rect id="Rectangle_1777" data-name="Rectangle 1777" width="1.073" height="14.066" transform="matrix(0.175, -0.984, 0.984, 0.175, 51.328, 34.531)" fill="#fff"/>
    <rect id="Rectangle_1778" data-name="Rectangle 1778" width="1.073" height="22.605" transform="matrix(0.175, -0.984, 0.984, 0.175, 51.703, 32.418)" fill="#fff"/>
    <circle id="Ellipse_715" data-name="Ellipse 715" cx="2.504" cy="2.504" r="2.504" transform="matrix(0.175, -0.984, 0.984, 0.175, 42.966, 32.859)" fill="#fff"/>
    <path id="Path_2717" data-name="Path 2717" d="M24.041,210.311l-9.214-6.451H2.07v63.6H81.8V210.311Z" transform="translate(-1.805 -177.503)" fill="url(#linear-gradient)"/>
    <path id="Path_2718" data-name="Path 2718" d="M28.974,216.622,19.9,210.36H7.34v61.734h78.5V216.622Z" transform="translate(-6.393 -183.161)" fill="#fff"/>
    <path id="Path_2719" data-name="Path 2719" d="M422.966,493.635a.939.939,0,0,1-.933.942H380.983a.939.939,0,0,1-.933-.943V465.592a.939.939,0,0,1,.933-.943h41.049a.939.939,0,0,1,.933.943" transform="translate(-361.308 -417.793)" fill="url(#linear-gradient-6)"/>
    <path id="Path_2720" data-name="Path 2720" d="M425.965,496.634a.906.906,0,0,1-.906.906h-40.1a.906.906,0,0,1-.906-.906V469.526a.906.906,0,0,1,.906-.906h40.1a.906.906,0,0,1,.906.906" transform="translate(-364.79 -421.249)" fill="#fff"/>
    <g id="_Rectangle_" data-name="&lt;Rectangle&gt;" transform="translate(20.856 48.624)">
      <rect id="Rectangle_1779" data-name="Rectangle 1779" width="38.758" height="26.509" rx="8.85" fill="url(#linear-gradient-6)"/>
    </g>
    <rect id="Rectangle_1780" data-name="Rectangle 1780" width="37.764" height="25.117" rx="8.85" transform="translate(21.332 49.27)" fill="#fff"/>
    <g id="Group_3006" data-name="Group 3006" transform="translate(21.334 49.271)" clip-path="url(#clip-path)">
      <path id="Path_2721" data-name="Path 2721" d="M380.369,556.41l10.544-12.08a2.1,2.1,0,0,1,2.97-.194l2.949,2.6a2.1,2.1,0,0,0,2.74.032l9.024-7.584a2.1,2.1,0,0,1,2.905.193l11.073,12.188a2.1,2.1,0,0,1,.537,1.226l.427,4.807a2.1,2.1,0,0,1-2.091,2.285h-39.5a2.1,2.1,0,0,1-2.1-2.035h0A2.1,2.1,0,0,1,380.369,556.41Z" transform="translate(-382.47 -531.523)" fill="#1c3496"/>
    </g>
    <circle id="Ellipse_716" data-name="Ellipse 716" cx="2.338" cy="2.338" r="2.338" transform="translate(23.542 50.96)" fill="#5bcadd"/>
  </g>
</svg>
