<?xml version="1.0" encoding="utf-8"?>
<!-- Generator: Adobe Illustrator 26.5.0, SVG Export Plug-In . SVG Version: 6.00 Build 0)  -->
<svg version="1.1" id="Illustration" xmlns="http://www.w3.org/2000/svg" xmlns:xlink="http://www.w3.org/1999/xlink" x="0px"
	 y="0px" viewBox="0 0 2906.6 2912.3" style="enable-background:new 0 0 2906.6 2912.3;" xml:space="preserve">
<style type="text/css">
	.st0{fill:#ACEBB7;}
	.st1{fill:url(#SVGID_1_);}
	.st2{fill:url(#SVGID_00000093160725036845342480000009904391968916879805_);}
	.st3{fill:url(#SVGID_00000109002381638523885190000015100574098944940732_);}
	.st4{fill:url(#SVGID_00000075160901939282822020000003401044984436309655_);}
	.st5{fill:url(#SVGID_00000105408822686470299090000013914761372691904154_);}
	.st6{opacity:0.3;}
	.st7{fill:url(#SVGID_00000070112341906203565800000016141508462639193484_);}
	.st8{fill:url(#SVGID_00000012442362608715524690000009385167681867922306_);}
	.st9{opacity:0.3;fill:url(#SVGID_00000023274373487004402650000016318595952786976655_);}
	.st10{fill:url(#SVGID_00000092449608434167337660000000038541136664593585_);}
	.st11{fill:url(#SVGID_00000016793701710562839180000018333775779858475448_);}
	.st12{fill:url(#SVGID_00000055672036263874925300000014781915864227588481_);}
	.st13{fill:url(#SVGID_00000144301365720649975030000014058350378637123979_);}
	.st14{fill:url(#SVGID_00000087386817583311909720000006800263423939068044_);}
	.st15{fill:url(#SVGID_00000008846041816727533100000009294565440323264168_);}
	.st16{fill:url(#SVGID_00000181787546132535722380000018146583934956151953_);}
	.st17{fill:url(#SVGID_00000053532462749826973910000003391626582588063885_);}
	.st18{fill:url(#SVGID_00000116931999560939949900000016404073946499335601_);}
	.st19{opacity:0.7;fill:url(#SVGID_00000112632466405897936600000004601225833375948479_);}
	.st20{fill:url(#SVGID_00000003093596482398057590000000306129957145138621_);}
	.st21{fill:url(#SVGID_00000062878809391740450640000008857257901597274524_);}
	.st22{fill:url(#SVGID_00000093170054349628452810000014103571309781397150_);}
	.st23{opacity:0.3;fill:url(#SVGID_00000172436905323391442150000004918155391324475832_);}
	.st24{fill:url(#SVGID_00000111892234482450018500000014482799314364296116_);}
	.st25{fill:url(#SVGID_00000017509609706676909320000002963089157231330205_);}
	.st26{fill:url(#SVGID_00000181085652470410236960000005002410294634030525_);}
	.st27{fill:url(#SVGID_00000053523744573612938990000016494239642004218797_);}
	.st28{fill:url(#SVGID_00000028311647009246887270000015334391699474423696_);}
	.st29{opacity:0.3;fill:url(#SVGID_00000171715158684314554860000011590267264027851686_);}
	.st30{fill:url(#SVGID_00000078762124700967312030000000796547005418914210_);}
	.st31{fill:url(#SVGID_00000134968036075780227500000009720646552094395311_);}
	.st32{fill:url(#SVGID_00000137105955138980134820000007087971312987556757_);}
	.st33{fill:url(#SVGID_00000018926584834296231260000012014196616022225794_);}
	.st34{fill:url(#SVGID_00000007421680967454893150000010079355358556056255_);}
	.st35{fill:url(#SVGID_00000131365721578080085440000000610522101061453463_);}
	.st36{fill:url(#SVGID_00000096758853226269939870000006667394028563659161_);}
	.st37{fill:#FFFFFF;}
	.st38{fill:url(#SVGID_00000173842610089207039140000009135719127752404396_);}
	.st39{opacity:0.3;fill:url(#SVGID_00000046318697484105253340000003987530356893988020_);}
	.st40{fill:url(#SVGID_00000080911164373518318590000008611435435011694748_);}
	.st41{opacity:0.2;fill:url(#SVGID_00000031887753147910724000000005063655096793448602_);}
	.st42{opacity:0.2;fill:url(#SVGID_00000140000472379566990270000004878613766346812582_);}
	.st43{opacity:0.2;fill:url(#SVGID_00000081628480019719495120000008012339914148374699_);}
	.st44{fill:url(#SVGID_00000033367229858346454500000001637700227017726623_);}
	.st45{opacity:0.2;fill:url(#SVGID_00000084500368259021375990000016723293981031160453_);}
	.st46{fill:url(#SVGID_00000062888392183842778580000010740932170486116502_);}
	.st47{opacity:0.3;fill:url(#SVGID_00000122689524340364698530000005103063968052949153_);}
	.st48{opacity:0.3;fill:url(#SVGID_00000029011222927746446580000001958196639974605446_);}
	.st49{opacity:0.3;fill:url(#SVGID_00000071525498224607760070000007565387640742891663_);}
	.st50{fill:url(#SVGID_00000060739931999358976630000011779857863702424462_);}
	.st51{fill:url(#SVGID_00000027567989433270159010000012067524480928349088_);}
	.st52{fill:url(#SVGID_00000087404677672180602950000004912507520071334566_);}
	.st53{fill:url(#SVGID_00000034791584519419733120000007861970556658056627_);}
	.st54{fill:url(#SVGID_00000066497826040605593580000008153331386809211811_);}
</style>
<g>
	<path class="st0" d="M2630.7,526.5C2587.4,467.2,2216.6-23,1615.6,0.8C1585.5,2,999.3,33,783.1,417.3
		c-159.9,284.3,9.4,536.5-185.7,730.2c-170,168.8-379,57.1-483.4,193.5c-159.1,207.9,94.3,769.4,483.7,1082.5
		c402.1,323.3,1171.3,560.5,1769.2,129.2C3038.1,2068.4,3031.3,1074.8,2630.7,526.5z"/>
	<g>
		<g>
			<g>
				<g>
					
						<linearGradient id="SVGID_1_" gradientUnits="userSpaceOnUse" x1="-1120.1945" y1="30.5403" x2="-871.0386" y2="30.5403" gradientTransform="matrix(-0.9298 -0.3679 -0.3679 0.9298 1547.5016 600.9669)">
						<stop  offset="0" style="stop-color:#444B8C"/>
						<stop  offset="0.9964" style="stop-color:#26264F"/>
					</linearGradient>
					<path class="st1" d="M2429.6,834.7c0,0,141.2,86.7,108.8,304.3c-3,20.3-27,29.5-42.9,16.6l-101.4-82.3
						c-16.2-13.2-26.2-32.6-27.3-53.5l-5.9-107.3L2429.6,834.7z"/>
					
						<linearGradient id="SVGID_00000067201177891517892330000003526740242334111120_" gradientUnits="userSpaceOnUse" x1="-627.5626" y1="30.5521" x2="-378.414" y2="30.5521" gradientTransform="matrix(-0.9298 -0.3679 -0.3679 0.9298 1547.5016 600.9669)">
						<stop  offset="0" style="stop-color:#444B8C"/>
						<stop  offset="0.9964" style="stop-color:#26264F"/>
					</linearGradient>
					<path style="fill:url(#SVGID_00000067201177891517892330000003526740242334111120_);" d="M2137.7,719.2
						c0,0-162.3-33.4-287.6,147.5c-11.7,16.8-0.5,40,19.9,41.5l130.2,9.3c20.9,1.5,41.4-5.9,56.6-20.3l77.7-74.2L2137.7,719.2z"/>
				</g>
				<g>
					
						<linearGradient id="SVGID_00000098205517889431874550000003839065832942762402_" gradientUnits="userSpaceOnUse" x1="-1120.194" y1="13.0123" x2="-871.0381" y2="13.0123" gradientTransform="matrix(-0.9298 -0.3679 -0.3679 0.9298 1547.5016 600.9669)">
						<stop  offset="0" style="stop-color:#AA80F9"/>
						<stop  offset="0.9964" style="stop-color:#6165D7"/>
					</linearGradient>
					<path style="fill:url(#SVGID_00000098205517889431874550000003839065832942762402_);" d="M2436,818.4
						c0,0,141.2,86.7,108.8,304.3c-3,20.3-27,29.5-42.9,16.6l-101.4-82.3c-16.2-13.2-26.2-32.6-27.3-53.5l-5.9-107.3L2436,818.4z"/>
					
						<linearGradient id="SVGID_00000160912119921598733220000000264457860651295118_" gradientUnits="userSpaceOnUse" x1="1308.0614" y1="580.5181" x2="1744.8228" y2="357.6803" gradientTransform="matrix(0.9832 -0.1825 0.1825 0.9832 553.7669 532.2306)">
						<stop  offset="0" style="stop-color:#AA80F9"/>
						<stop  offset="0.9964" style="stop-color:#6165D7"/>
					</linearGradient>
					<path style="fill:url(#SVGID_00000160912119921598733220000000264457860651295118_);" d="M2144.1,702.9
						c0,0-162.3-33.4-287.6,147.5c-11.7,16.8-0.5,40,19.9,41.5l130.2,9.3c20.9,1.5,41.4-5.9,56.6-20.3l77.7-74.2L2144.1,702.9z"/>
				</g>
				
					<linearGradient id="SVGID_00000116942605980619116300000015796199968057249430_" gradientUnits="userSpaceOnUse" x1="-894.6189" y1="-151.843" x2="-362.2305" y2="-712.1656" gradientTransform="matrix(-0.9298 -0.3679 -0.3679 0.9298 1547.5016 600.9669)">
					<stop  offset="0" style="stop-color:#FFC444"/>
					<stop  offset="0.9964" style="stop-color:#F36F56"/>
				</linearGradient>
				<path style="fill:url(#SVGID_00000116942605980619116300000015796199968057249430_);" d="M2164.2,371.3
					c102.9-194.1,364.4-214.2,364.6-213.9c0.3,0,177.3,193.5,119.5,405.4c-52.4,192.3-242,377.7-278.7,412.2
					c-4,3.7-10.5,9.2-14.6,5.6c-79.6-69.3-167.9-101.6-263-104c-5.3-0.1-6.2-8.5-6.5-13.8C2082.3,813.3,2070.7,547.7,2164.2,371.3z"
					/>
				<g class="st6">
					
						<linearGradient id="SVGID_00000056401516250704239240000001855991807668306845_" gradientUnits="userSpaceOnUse" x1="-937.8051" y1="-192.8777" x2="-405.4087" y2="-753.2088" gradientTransform="matrix(-0.9298 -0.3679 -0.3679 0.9298 1547.5016 600.9669)">
						<stop  offset="0" style="stop-color:#FFC444"/>
						<stop  offset="0.9964" style="stop-color:#F36F56"/>
					</linearGradient>
					<path style="fill:url(#SVGID_00000056401516250704239240000001855991807668306845_);" d="M2327.8,568.5
						c57.8-108,145.7-97.4,203.9-193.8c21.2-35.2,40.3-87.6,36-166.9c48.5,71.1,120.6,208.7,80.7,355.1
						c-52.4,192.3-242,377.7-278.7,412.2c-4,3.7-10.5,9.2-14.6,5.6c-40.2-35-82.6-60.6-127-77.6c25.6-27.9,41.7-55.3,52.2-80.1
						C2322.7,723.1,2275.1,666.9,2327.8,568.5z"/>
				</g>
				
					<linearGradient id="SVGID_00000157304448979242183830000008972836116618532532_" gradientUnits="userSpaceOnUse" x1="-969.0193" y1="-669.3444" x2="-529.5556" y2="-669.3444" gradientTransform="matrix(-0.9298 -0.3679 -0.3679 0.9298 1547.5016 600.9669)">
					<stop  offset="0" style="stop-color:#AA80F9"/>
					<stop  offset="0.9964" style="stop-color:#6165D7"/>
				</linearGradient>
				<path style="fill:url(#SVGID_00000157304448979242183830000008972836116618532532_);" d="M2468.3,310.2
					c-70.6-27.9-153.2-47.6-219.9-41.5c103.4-86.1,238.5-106.7,272.4-110.5c5-0.6,10,1.4,13.2,5.2c22.1,25.9,106.5,133.4,123,266.9
					C2618.9,385.1,2539,338.1,2468.3,310.2z"/>
				
					<linearGradient id="SVGID_00000131354264036435489790000010979509771206975890_" gradientUnits="userSpaceOnUse" x1="-909.2614" y1="-588.0417" x2="-709.7999" y2="-797.9689" gradientTransform="matrix(-0.9298 -0.3679 -0.3679 0.9298 1547.5016 600.9669)">
					<stop  offset="0" style="stop-color:#AA80F9"/>
					<stop  offset="0.9964" style="stop-color:#6165D7"/>
				</linearGradient>
				<path style="opacity:0.3;fill:url(#SVGID_00000131354264036435489790000010979509771206975890_);" d="M2567.6,207.8
					c0.2,0.3,0.5,0.7,0.7,1c0.4,0.6,0.8,1.1,1.2,1.7c0.4,0.6,0.8,1.2,1.2,1.7c0.4,0.6,0.7,1.1,1.1,1.7c0.4,0.6,0.8,1.2,1.2,1.9
					c0.4,0.5,0.7,1.1,1.1,1.6c0.4,0.7,0.9,1.3,1.3,2c0.3,0.5,0.7,1,1,1.6c0.5,0.7,0.9,1.4,1.4,2.1c0.3,0.5,0.7,1,1,1.5
					c0.5,0.8,1,1.5,1.4,2.3c0.3,0.5,0.6,1,0.9,1.5c0.5,0.8,1,1.6,1.5,2.4c0.3,0.5,0.6,1,0.9,1.5c0.5,0.8,1,1.7,1.5,2.5
					c0.3,0.5,0.6,1,0.9,1.4c0.5,0.9,1.1,1.7,1.6,2.6c0.3,0.5,0.6,0.9,0.8,1.4c0.5,0.9,1.1,1.8,1.6,2.7c0.3,0.5,0.5,0.9,0.8,1.4
					c0.6,0.9,1.1,1.9,1.7,2.9c0.3,0.4,0.5,0.9,0.8,1.3c0.6,1,1.1,2,1.7,3c0.2,0.4,0.5,0.9,0.7,1.3c0.6,1,1.2,2.1,1.7,3.1
					c0.2,0.4,0.5,0.8,0.7,1.3c0.6,1.1,1.2,2.1,1.7,3.2c0.2,0.4,0.5,0.8,0.7,1.2c0.6,1.1,1.2,2.2,1.8,3.3c0.2,0.4,0.4,0.8,0.6,1.2
					c0.6,1.1,1.2,2.3,1.8,3.4c0.2,0.4,0.4,0.8,0.6,1.2c0.6,1.2,1.2,2.3,1.8,3.5c0.2,0.4,0.4,0.8,0.6,1.2c0.6,1.2,1.2,2.4,1.8,3.6
					c0.2,0.4,0.4,0.7,0.5,1.1c0.6,1.2,1.2,2.5,1.8,3.7c0.2,0.4,0.3,0.7,0.5,1.1c0.6,1.3,1.2,2.5,1.8,3.8c0.2,0.3,0.3,0.7,0.5,1
					c0.6,1.3,1.2,2.6,1.8,3.9c0.2,0.3,0.3,0.7,0.5,1c0.6,1.3,1.2,2.7,1.8,4c0.1,0.3,0.3,0.7,0.4,1c0.6,1.4,1.2,2.7,1.8,4.1
					c0.1,0.3,0.3,0.6,0.4,1c0.6,1.4,1.2,2.8,1.8,4.2c0.1,0.3,0.3,0.6,0.4,0.9c0.6,1.4,1.2,2.9,1.8,4.3c0.1,0.3,0.2,0.6,0.4,0.9
					c0.6,1.5,1.2,2.9,1.8,4.4c0.1,0.3,0.2,0.6,0.3,0.8c0.6,1.5,1.2,3,1.8,4.5c0.1,0.3,0.2,0.5,0.3,0.8c0.6,1.5,1.2,3.1,1.8,4.6
					c0.1,0.2,0.2,0.5,0.3,0.7c0.6,1.6,1.2,3.1,1.7,4.7c0.1,0.2,0.2,0.5,0.3,0.7c0.6,1.6,1.1,3.2,1.7,4.8c0.1,0.2,0.1,0.4,0.2,0.6
					c0.6,1.6,1.1,3.3,1.7,5c0.1,0.2,0.1,0.4,0.2,0.6c0.6,1.7,1.1,3.4,1.7,5.1c0.1,0.2,0.1,0.4,0.2,0.5c0.5,1.7,1.1,3.4,1.6,5.2
					c0,0.1,0.1,0.3,0.1,0.4c0.5,1.8,1.1,3.5,1.6,5.3c0,0.1,0.1,0.2,0.1,0.4c0.5,1.8,1,3.6,1.6,5.5c0,0.1,0,0.2,0.1,0.3
					c0.5,1.9,1,3.7,1.5,5.6c0,0,0,0.1,0,0.1c4.6,17.6,8.3,35.8,10.6,54.5c-24.4-28.9-65.9-58.5-111.1-83.4
					C2560.6,313.4,2571,268.4,2567.6,207.8z"/>
				
					<linearGradient id="SVGID_00000006667527007352436730000010682136582589994656_" gradientUnits="userSpaceOnUse" x1="-926.4575" y1="-371.1223" x2="-572.1268" y2="-371.1223" gradientTransform="matrix(-0.9298 -0.3679 -0.3679 0.9298 1547.5016 600.9669)">
					<stop  offset="3.597120e-03" style="stop-color:#EBEFF2"/>
					<stop  offset="1" style="stop-color:#FFFFFF"/>
				</linearGradient>
				<path style="fill:url(#SVGID_00000006667527007352436730000010682136582589994656_);" d="M2216,466.4
					c-32.4,81.9,15.1,177.5,106,213.5c91,36,191-1.2,223.4-83.2s-15.1-177.5-106-213.5C2348.4,347.2,2248.4,384.5,2216,466.4z"/>
				
					<linearGradient id="SVGID_00000083071632170409579920000001051442219729266571_" gradientUnits="userSpaceOnUse" x1="-926.4574" y1="-365.3166" x2="-572.1293" y2="-365.3166" gradientTransform="matrix(-0.9298 -0.3679 -0.3679 0.9298 1547.5016 600.9669)">
					<stop  offset="3.597120e-03" style="stop-color:#EBEFF2"/>
					<stop  offset="1" style="stop-color:#FFFFFF"/>
				</linearGradient>
				<path style="fill:url(#SVGID_00000083071632170409579920000001051442219729266571_);" d="M2327.8,568.5
					c47.2-88.1,114.4-97.3,169.1-150.1c51.7,45.9,73.2,116,48.5,178.3C2513,678.7,2413,715.9,2322,679.9c-7.4-2.9-14.6-6.3-21.4-10
					C2301.9,639.1,2307.1,607.1,2327.8,568.5z"/>
				
					<linearGradient id="SVGID_00000177464341256133482590000011132233599175866292_" gradientUnits="userSpaceOnUse" x1="-694.2276" y1="-484.3683" x2="-781.315" y2="-305.2639" gradientTransform="matrix(-0.9298 -0.3679 -0.3679 0.9298 1547.5016 600.9669)">
					<stop  offset="3.597120e-03" style="stop-color:#EBEFF2"/>
					<stop  offset="1" style="stop-color:#FFFFFF"/>
				</linearGradient>
				<path style="fill:url(#SVGID_00000177464341256133482590000011132233599175866292_);" d="M2229.7,471.8
					c-29.7,75.1,13.8,162.7,97.2,195.7s175.1-1.1,204.8-76.2c29.7-75.1-13.8-162.7-97.2-195.7
					C2351.1,362.6,2259.4,396.7,2229.7,471.8z"/>
				
					<linearGradient id="SVGID_00000067235292372394943410000016254424911971973794_" gradientUnits="userSpaceOnUse" x1="-903.6191" y1="-145.9122" x2="-639.7996" y2="-530.9052" gradientTransform="matrix(-0.9298 -0.3679 -0.3679 0.9298 1547.5016 600.9669)">
					<stop  offset="0" style="stop-color:#444B8C"/>
					<stop  offset="0.9964" style="stop-color:#26264F"/>
				</linearGradient>
				<path style="fill:url(#SVGID_00000067235292372394943410000016254424911971973794_);" d="M2249.2,479.5
					c-25.9,65.4,12,141.8,84.7,170.5c72.6,28.7,152.5-1,178.4-66.4c25.9-65.4-12-141.8-84.7-170.5
					C2355,384.4,2275.1,414.1,2249.2,479.5z"/>
				
					<linearGradient id="SVGID_00000026851206661410009890000018008437954621912746_" gradientUnits="userSpaceOnUse" x1="-758.8704" y1="189.0363" x2="-747.9157" y2="46.0762" gradientTransform="matrix(-0.9298 -0.3679 -0.3679 0.9298 1547.5016 600.9669)">
					<stop  offset="0" style="stop-color:#FFC444"/>
					<stop  offset="0.9964" style="stop-color:#F36F56"/>
				</linearGradient>
				<path style="fill:url(#SVGID_00000026851206661410009890000018008437954621912746_);" d="M2085.9,874.8
					c-8.8,22.4,45.3,64.7,121,94.7c75.7,29.9,144.2,36.1,153,13.7c8.8-22.4-45.3-64.7-121-94.7
					C2163.2,858.6,2094.7,852.4,2085.9,874.8z"/>
				
					<linearGradient id="SVGID_00000005265474585668873920000009506979923952431516_" gradientUnits="userSpaceOnUse" x1="-870.7373" y1="87.2041" x2="-627.8701" y2="87.2041" gradientTransform="matrix(-0.9298 -0.3679 -0.3679 0.9298 1547.5016 600.9669)">
					<stop  offset="0" style="stop-color:#AA80F9"/>
					<stop  offset="0.9964" style="stop-color:#6165D7"/>
				</linearGradient>
				<path style="fill:url(#SVGID_00000005265474585668873920000009506979923952431516_);" d="M2201.8,897.8l58.8,23.3
					c31.3,12.4,51.9,42.5,52.2,76.1l0.3,31.9c0.1,11.8-11.7,19.9-22.7,15.5l-195-77.1c-10.9-4.3-14-18.3-5.9-26.8l22-23.1
					C2134.9,893.2,2170.6,885.4,2201.8,897.8z"/>
				
					<linearGradient id="SVGID_00000176734278226481784980000010397542176770317220_" gradientUnits="userSpaceOnUse" x1="-733.1616" y1="82.3089" x2="-792.8644" y2="261.9652" gradientTransform="matrix(-0.9298 -0.3679 -0.3679 0.9298 1547.5016 600.9669)">
					<stop  offset="0" style="stop-color:#AA80F9"/>
					<stop  offset="0.9964" style="stop-color:#6165D7"/>
				</linearGradient>
				<path style="fill:url(#SVGID_00000176734278226481784980000010397542176770317220_);" d="M2083,953.5
					c-8.3,21.1,35.5,58.2,98,82.9c62.4,24.7,119.8,27.6,128.2,6.5c8.3-21.1-35.5-58.2-98-82.9S2091.3,932.4,2083,953.5z"/>
				
					<linearGradient id="SVGID_00000164495177578163090940000001076418691600419000_" gradientUnits="userSpaceOnUse" x1="-737.0269" y1="93.9402" x2="-782.401" y2="230.479" gradientTransform="matrix(-0.9298 -0.3679 -0.3679 0.9298 1547.5016 600.9669)">
					<stop  offset="0" style="stop-color:#444B8C"/>
					<stop  offset="0.9964" style="stop-color:#26264F"/>
				</linearGradient>
				<path style="fill:url(#SVGID_00000164495177578163090940000001076418691600419000_);" d="M2110.1,964.2c-6.3,16,27,44.3,74.4,63
					c47.5,18.8,91.1,21,97.4,5c6.3-16-27-44.3-74.4-63C2160.1,950.4,2116.5,948.2,2110.1,964.2z"/>
				<g class="st6">
					
						<linearGradient id="SVGID_00000079459536224014480260000002171670604453038237_" gradientUnits="userSpaceOnUse" x1="-920.0247" y1="-157.152" x2="-656.2025" y2="-542.149" gradientTransform="matrix(-0.9298 -0.3679 -0.3679 0.9298 1547.5016 600.9669)">
						<stop  offset="0" style="stop-color:#444B8C"/>
						<stop  offset="0.9964" style="stop-color:#26264F"/>
					</linearGradient>
					<path style="fill:url(#SVGID_00000079459536224014480260000002171670604453038237_);" d="M2327.8,568.5
						c40.1-74.9,94.7-92.8,143.9-128.9c42.6,36.6,60.6,93.5,40.6,144c-25.9,65.4-105.8,95.2-178.4,66.4
						c-10.6-4.2-20.5-9.4-29.5-15.5C2308,614.2,2314.9,592.6,2327.8,568.5z"/>
				</g>
			</g>
		</g>
		
			<linearGradient id="SVGID_00000011717296986400723620000016011508193535300008_" gradientUnits="userSpaceOnUse" x1="3364.0383" y1="941.1094" x2="2826.5579" y2="1698.7277" gradientTransform="matrix(0.9289 0.3702 -0.3702 0.9289 -619.5515 -1103.7174)">
			<stop  offset="0" style="stop-color:#FF9085"/>
			<stop  offset="1" style="stop-color:#FB6FBB"/>
		</linearGradient>
		<path style="opacity:0.7;fill:url(#SVGID_00000011717296986400723620000016011508193535300008_);" d="M913,1416.2
			c-21.8-65.7-71.6-156.7-27.5-204.9c129.9-142.4,278.7,63,540.3-69.3c152.5-77.1,165.4-185.2,302-192.4
			c111.6-5.8,132.9,64.8,268.1,53c105.8-9.2,188.3-60.8,238.4-16c14.9,13.3,20.4,29.3,22.7,35.9c27.3,81.2-73.9,179.1-91.4,195.6
			c-121.7,114.2-256,98.2-320.1,156.9c-92,84.3,43,247.6,29.6,382.9c-9.6,96.7-2.9,87.3-92.6,117.9c-115.1,39.2-144.1,85-388-34.3
			C1069.4,1682.7,958.9,1554.1,913,1416.2z"/>
	</g>
	<g>
		<g>
			
				<linearGradient id="SVGID_00000082361288612634300890000015760943194358773433_" gradientUnits="userSpaceOnUse" x1="-2719.1501" y1="-8182.8921" x2="-2739.8127" y2="-8028.7427" gradientTransform="matrix(0.6026 -0.798 -0.798 -0.6026 -4032.2207 -5949.2241)">
				<stop  offset="0" style="stop-color:#AA80F9"/>
				<stop  offset="0.9964" style="stop-color:#6165D7"/>
			</linearGradient>
			<polygon style="fill:url(#SVGID_00000082361288612634300890000015760943194358773433_);" points="853.3,978.9 822.1,1143.1 
				672.6,1218.1 669.4,1222.5 667.8,1221.3 667.4,1221 700.2,1050.1 855.4,971.7 856,972.1 857.5,973.3 			"/>
			
				<linearGradient id="SVGID_00000018940776712930239820000010264807555687004551_" gradientUnits="userSpaceOnUse" x1="-2722.1196" y1="-836.6857" x2="-2749.1633" y2="-493.0319" gradientTransform="matrix(0.6026 -0.798 0.798 0.6026 2957.1033 -671.3111)">
				<stop  offset="0" style="stop-color:#AA80F9"/>
				<stop  offset="0.9964" style="stop-color:#6165D7"/>
			</linearGradient>
			<polygon style="fill:url(#SVGID_00000018940776712930239820000010264807555687004551_);" points="701.9,1051.7 669.4,1222.5 
				824.8,1144.5 857.3,973.6 			"/>
			
				<linearGradient id="SVGID_00000022526067864191900630000002181707772880077458_" gradientUnits="userSpaceOnUse" x1="-3248.5696" y1="479.8511" x2="-3206.1736" y2="-698.1325" gradientTransform="matrix(0.5176 -0.6855 0.798 0.6026 2971.6626 -691.0115)">
				<stop  offset="0" style="stop-color:#AA80F9"/>
				<stop  offset="0.9964" style="stop-color:#6165D7"/>
			</linearGradient>
			<path style="fill:url(#SVGID_00000022526067864191900630000002181707772880077458_);" d="M823.2,1033.1l73.5,55.5l-0.1,0.2
				c3.7,3.3-17.7,35.1-46.2,72.7c-26.1,34.6-39.8,67.4-46.5,69.5c-0.6,0.2-83.8-61.4-83.8-61.4c-0.6-0.4-1.1-0.9-1.5-1.5
				c-1.1-1.4-1.9-3.3-2.2-5.6c-2.3-14.8,11.2-45.7,34.6-76.7c23.4-31,49.5-52.5,64.3-54.3C818.5,1031.1,821.2,1031.6,823.2,1033.1z"
				/>
			
				<linearGradient id="SVGID_00000026138544214964891990000005496964371779227830_" gradientUnits="userSpaceOnUse" x1="-3210.8416" y1="-569.5203" x2="-3207.0698" y2="-674.3192" gradientTransform="matrix(0.5176 -0.6855 0.798 0.6026 2971.6626 -691.0115)">
				<stop  offset="0" style="stop-color:#AA80F9"/>
				<stop  offset="0.9964" style="stop-color:#6165D7"/>
			</linearGradient>
			<path style="opacity:0.3;fill:url(#SVGID_00000026138544214964891990000005496964371779227830_);" d="M890.1,1083.6l6.7,5
				l-0.1,0.2c3.7,3.3-17.7,35.1-46.2,72.7c-26.1,34.6-41.7,66.3-48.5,68.5l-83.6-61.8c0.1-0.1,0.2-0.1,0.3-0.2
				c12.3-6.6,34.3-15.2,53.1-5.5c27.7,14.3,59-10,76.6-44.8C856.7,1101.2,873,1089.2,890.1,1083.6z"/>
			<g>
				<g>
					
						<linearGradient id="SVGID_00000088842077664795607590000008270138684815529658_" gradientUnits="userSpaceOnUse" x1="84.4115" y1="576.8145" x2="-154.0485" y2="991.5712" gradientTransform="matrix(0.9764 -0.2158 0.2158 0.9764 545.3629 460.7895)">
						<stop  offset="0" style="stop-color:#FFC444"/>
						<stop  offset="0.9964" style="stop-color:#F36F56"/>
					</linearGradient>
					<path style="fill:url(#SVGID_00000088842077664795607590000008270138684815529658_);" d="M689.9,1117.2l-2.6,6.9
						c-1.3,0.9-1.3,2.7-0.9,4.7l19,97.6l0,0.1l4.4,23.1c0.3,1.3-1.1,2.8-2.5,3c-1.3,0.3-3.2-0.5-3.5-1.9l-4.9-25l-18.5-95.7
						c-1.1-5.5,1.8-11.3,7.2-12.4L689.9,1117.2z"/>
				</g>
				
					<linearGradient id="SVGID_00000087414813164214336980000015371402260598977946_" gradientUnits="userSpaceOnUse" x1="273.2873" y1="926.0225" x2="287.7862" y2="790.4895" gradientTransform="matrix(-0.9817 0.1905 0.1905 0.9817 823.9474 376.5028)">
					<stop  offset="0" style="stop-color:#FFC444"/>
					<stop  offset="0.9964" style="stop-color:#F36F56"/>
				</linearGradient>
				<path style="fill:url(#SVGID_00000087414813164214336980000015371402260598977946_);" d="M695.5,1232.2l1.6-4.2
					c0.5-1.6,2-2.8,3.6-3.1s3.4,0.3,4.4,1.6l2.9,3.5c0.7,0.8,1.2,1.8,1.4,2.9l6.4,32.8c0.1,0.7-3.3,2-7.1,2.7
					c-3.8,0.7-7.5,0.9-7.6,0.1l-6.4-32.9C694.6,1234.5,695.1,1233.2,695.5,1232.2z"/>
			</g>
		</g>
		<g>
			
				<linearGradient id="SVGID_00000011001521688025114920000015959953891633092262_" gradientUnits="userSpaceOnUse" x1="600.3051" y1="987.074" x2="793.3042" y2="1183.5194" gradientTransform="matrix(0.9374 -0.3484 0.3484 0.9374 906.5232 793.8146)">
				<stop  offset="0" style="stop-color:#AB316D"/>
				<stop  offset="1" style="stop-color:#792D3D"/>
			</linearGradient>
			<path style="fill:url(#SVGID_00000011001521688025114920000015959953891633092262_);" d="M1845.5,1637.9c0,0-25-59.5-8.1-112.8
				c16.9-53.3,39.4-127.6,41.8-86.6c2.4,41-10.6,68.6-10.6,68.6s56.5,7.4,38.7,55.2c-17.8,47.8-16.1,65.6-14.9,68.7
				C1893.6,1634.2,1845.5,1637.9,1845.5,1637.9z"/>
			
				<linearGradient id="SVGID_00000090281779119042564140000010755266654037808300_" gradientUnits="userSpaceOnUse" x1="416.1553" y1="1815.4232" x2="1122.4271" y2="1840.9072" gradientTransform="matrix(-1 0 0 1 2245.4016 0)">
				<stop  offset="3.597000e-03" style="stop-color:#F36F56"/>
				<stop  offset="1" style="stop-color:#FFC444"/>
			</linearGradient>
			<path style="fill:url(#SVGID_00000090281779119042564140000010755266654037808300_);" d="M1825.7,1614.9
				c26.1-1.8,52.2-3.6,78.3-5.5c61.6,248.7,17.4,490-121.5,578.7c-217,138.6-620.4-122.6-707.8-407c-38.4-124.8-29.6-305,47.1-340
				c21.3-9.7,54.3-11.2,125.9,29c213.7,120,219.3,346.8,328,366C1623.8,1844.7,1701.8,1813.9,1825.7,1614.9z"/>
			
				<linearGradient id="SVGID_00000083780594525095654510000016777846474562633659_" gradientUnits="userSpaceOnUse" x1="-683.2393" y1="3693.1028" x2="-1973.9799" y2="1840.0586" gradientTransform="matrix(-0.9968 7.990000e-02 7.990000e-02 0.9968 -1080.8971 95.685)">
				<stop  offset="3.597000e-03" style="stop-color:#F36F56"/>
				<stop  offset="1" style="stop-color:#FFC444"/>
			</linearGradient>
			<path style="fill:url(#SVGID_00000083780594525095654510000016777846474562633659_);" d="M1228.1,2790.3
				c37.6-62.4-9.6-122.5-20.4-240.7c-12.2-133.9,39.4-156.2,90.4-378.2c33.9-147.6,66.5-289.3,27.6-455.2
				c-18.6-79.5-50.2-214.3-161.8-279.5c-57.6-33.6-136.2-30.2-291.1-22.1c-191.6,10-287.3,15-358.8,52.6
				c-10.5,5.5-227.8,123.7-242.7,316.4c-15.2,196.1,198.3,222.5,226.8,484c12.8,117.4-10,297.9-24.8,415
				c-14.2,112.4-24,141.2-1.8,175.3c53.5,82.1,217.2,58.7,544.7,11.9C1144.8,2851.5,1200.1,2836.8,1228.1,2790.3z"/>
			
				<linearGradient id="SVGID_00000111188748112385914210000013786001290852435585_" gradientUnits="userSpaceOnUse" x1="-683.3577" y1="3693.2021" x2="-1974.121" y2="1840.1255" gradientTransform="matrix(-0.9968 7.990000e-02 7.990000e-02 0.9968 -1080.8971 95.685)">
				<stop  offset="3.597000e-03" style="stop-color:#F36F56"/>
				<stop  offset="1" style="stop-color:#FFC444"/>
			</linearGradient>
			<path style="opacity:0.3;fill:url(#SVGID_00000111188748112385914210000013786001290852435585_);" d="M729.9,2225.5
				c-13.8,51-63.6,89-98.3,213c-7.5,26.8-60.8,217.4,8.4,264.3c39.9,27.1,75.8-24.2,172.7-30.9c168-11.6,248,129.6,357.7,91
				c19-6.7,44.2-21,69.3-53.7c5,29.5,4.1,55.2-11.5,81.2c-28,46.5-83.3,61.2-211.8,79.5c-327.5,46.8-491.2,70.1-544.7-11.9
				c-22.2-34-12.4-62.8,1.8-175.3c14.8-117.1,37.6-297.7,24.8-415c-28.5-261.5-242-287.9-226.8-484c4.1-52.4,23.4-99.1,49.1-139.7
				C591.5,1753.5,773.4,2065.4,729.9,2225.5z"/>
			
				<linearGradient id="SVGID_00000170969657220250440510000001597838627363108019_" gradientUnits="userSpaceOnUse" x1="-1469.3485" y1="2665.3071" x2="-1261.1512" y2="2665.3071" gradientTransform="matrix(-0.9968 7.990000e-02 7.990000e-02 0.9968 -1080.8971 95.685)">
				<stop  offset="0" style="stop-color:#AB316D"/>
				<stop  offset="1" style="stop-color:#792D3D"/>
			</linearGradient>
			<path style="fill:url(#SVGID_00000170969657220250440510000001597838627363108019_);" d="M387.7,2611.3l54.2,34.6
				c9.7-11.2,32.3-33.9,67.4-41.7c39.6-8.7,85.1,3.8,86.2,16.4c0.8,10.1-26.9,20.4-31.1,21.9c-34.6,12.8-60.2,2.2-74.2,16.1
				c-4.9,4.9-11.1,14.1-25.3,22.5c-3.7,2.2-7.6,4.2-9.7,5c-23.1,9-62.7-31.2-66.1-34.7L387.7,2611.3z"/>
			
				<linearGradient id="SVGID_00000143580230573485603630000004949880891748728213_" gradientUnits="userSpaceOnUse" x1="-321.2614" y1="3440.9656" x2="-1612.0149" y2="1587.903" gradientTransform="matrix(-0.9968 7.990000e-02 7.990000e-02 0.9968 -1080.8971 95.685)">
				<stop  offset="3.597000e-03" style="stop-color:#F36F56"/>
				<stop  offset="1" style="stop-color:#FFC444"/>
			</linearGradient>
			<path style="fill:url(#SVGID_00000143580230573485603630000004949880891748728213_);" d="M547.8,1900.4
				c39.2-93.9,66.4-237.7,4.4-451.2c-408.1,160.8-616.2,542-534.9,844.1c67,249.1,310.7,370.4,365.1,396
				c12.6-28.8,25.3-57.6,37.9-86.4c-63-70.2-134-173.9-124-292.3C310.3,2146.5,468.5,2090.5,547.8,1900.4z"/>
			
				<linearGradient id="SVGID_00000016038837972171461310000009787824170640228494_" gradientUnits="userSpaceOnUse" x1="-3459.613" y1="3791.3179" x2="-3459.613" y2="3422.3276" gradientTransform="matrix(-0.7795 0.6265 0.6265 0.7795 -4091.1316 777.7862)">
				<stop  offset="0" style="stop-color:#AB316D"/>
				<stop  offset="1" style="stop-color:#792D3D"/>
			</linearGradient>
			<path style="fill:url(#SVGID_00000016038837972171461310000009787824170640228494_);" d="M862.9,1221.4c0,0-3.2,71.4-25.4,124.8
				c-20,48.3-125.3,78.7-146.7,89.5c-21.4,10.8,40,42.3,101.6,48.5c61.6,6.2,237.5-7.8,269.3-31.2c31.7-23.4-25.5-21.6-69.5-37.7
				c-44-16.1-69.4-102.1-61.6-141.2C938.3,1235.1,862.9,1221.4,862.9,1221.4z"/>
			
				<linearGradient id="SVGID_00000092426052049381194710000013770850391492269220_" gradientUnits="userSpaceOnUse" x1="1322.8567" y1="1488.3677" x2="1333.7233" y2="1354.3485" gradientTransform="matrix(-1 0 0 1 2245.4016 0)">
				<stop  offset="0" style="stop-color:#444B8C"/>
				<stop  offset="0.9964" style="stop-color:#26264F"/>
			</linearGradient>
			<path style="fill:url(#SVGID_00000092426052049381194710000013770850391492269220_);" d="M960.3,1195.6
				c32-31.4,36.4-35.1,39.9-45.9c14-43.6-19.8-103.2-64.2-117.9c-2.3-0.8-32-10.3-43.4,2.6c-9.6,11,4.5,26.1-2.2,47.2
				c-6.3,19.8-23.4,21.2-55.2,47.2c-26.2,21.3-42.4,34.6-46.2,53.3c-7.7,38.5,38.8,94.2,80.1,92.7
				C884,1274.1,888.1,1266.5,960.3,1195.6z"/>
			<g>
				
					<linearGradient id="SVGID_00000176742665879218507960000014775802308736062085_" gradientUnits="userSpaceOnUse" x1="-3720.437" y1="3684.9783" x2="-3547.9207" y2="3349.5293" gradientTransform="matrix(-0.7795 0.6265 0.6265 0.7795 -4091.1316 777.7862)">
					<stop  offset="0" style="stop-color:#AB316D"/>
					<stop  offset="1" style="stop-color:#792D3D"/>
				</linearGradient>
				<path style="fill:url(#SVGID_00000176742665879218507960000014775802308736062085_);" d="M873.2,1280.6c0,0,34,38.5,85.7,25.8
					c46.3-11.4,34.5-117.8,0.6-134.8c-11.3-5.7-31.9-5.2-47.3,2.3c-9.1,4.4-11.7,9-26.7,15.9c-13.9,6.4-18.3,5.5-22,10
					c-4.7,5.6-6.7,17.7,8,46.8c-10.6-7.5-21.9-9-28.9-4.1c-1.1,0.8-3.9,3.6-5.2,7.2C833,1262.7,846.7,1276.1,873.2,1280.6z"/>
			</g>
		</g>
		<g>
			
				<linearGradient id="SVGID_00000026148921648321340300000015049763243785758084_" gradientUnits="userSpaceOnUse" x1="807.0965" y1="1232.5847" x2="904.1354" y2="1232.5847">
				<stop  offset="0" style="stop-color:#D0D1D3"/>
				<stop  offset="0.9964" style="stop-color:#EBEFF2"/>
			</linearGradient>
			<path style="fill:url(#SVGID_00000026148921648321340300000015049763243785758084_);" d="M878.9,1200.1
				c-2.3,4.2-5.2,8.4-8.9,12.6c-19.5,22.5-47.2,27.4-59.1,28.7c-0.4,0.1-2.2,0.7-3.2,2.7c-0.6,1.3-0.8,2.8-0.4,4.2l2.4,7.5
				c2.2,7,9.7,10.8,16.6,8.6c8.1-3.9,24-10.2,44.5-9.6c14.4,0.4,25.9,4.1,33.3,7.1C895.7,1241.3,887.3,1220.7,878.9,1200.1z"/>
			<g>
				
					<linearGradient id="SVGID_00000057105690423257342760000005583253098852492473_" gradientUnits="userSpaceOnUse" x1="-93.4607" y1="609.4716" x2="117.6568" y2="609.4716" gradientTransform="matrix(0.9531 -0.3028 0.3028 0.9531 781.0504 624.1682)">
					<stop  offset="0" style="stop-color:#D0D1D3"/>
					<stop  offset="0.9964" style="stop-color:#EBEFF2"/>
				</linearGradient>
				<path style="fill:url(#SVGID_00000057105690423257342760000005583253098852492473_);" d="M1018.2,1140.7l-109.6,34.8
					c-25.3,8-40.1,32.6-32.1,57.8c8,25.3,34.3,36.7,59.6,28.7l109.6-34.8c25.3-8,40.1-32.6,32.1-57.8
					C1069.7,1144.2,1043.4,1132.7,1018.2,1140.7z"/>
				<g>
					<path class="st37" d="M953.4,1256.6c-25.3,8-51.5-3.5-59.6-28.7c-8-25.3,6.8-49.8,32.1-57.8l109.6-34.8
						c25.3-8,51.5,3.5,59.6,28.7c8,25.3-6.8,49.8-32.1,57.8L953.4,1256.6z"/>
					<g>
						
							<linearGradient id="SVGID_00000016793177542801826200000013158100118199815297_" gradientUnits="userSpaceOnUse" x1="-59.4624" y1="609.4712" x2="119.9736" y2="609.4712" gradientTransform="matrix(0.9531 -0.3028 0.3028 0.9531 781.0504 624.1682)">
							<stop  offset="3.597000e-03" style="stop-color:#F36F56"/>
							<stop  offset="1" style="stop-color:#FFC444"/>
						</linearGradient>
						<path style="fill:url(#SVGID_00000016793177542801826200000013158100118199815297_);" d="M1079.9,1168.7
							c4.8,15.1-0.8,31.1-12.8,40.1c-3.2,2.4-6.9,4.4-10.9,5.6l-101.5,32.3c-19.2,6.1-39.7-4.5-45.8-23.7
							c-3.1-9.6-1.9-19.5,2.3-27.8c1.2-2.2,2.6-4.3,4.1-6.3c4.3-5.3,10.2-9.5,17.2-11.7l101.5-32.3
							C1053.4,1138.9,1073.8,1149.5,1079.9,1168.7z"/>
						
							<linearGradient id="SVGID_00000013177213049135957240000012258256559693097378_" gradientUnits="userSpaceOnUse" x1="-59.4624" y1="612.3491" x2="95.6394" y2="612.3491" gradientTransform="matrix(0.9531 -0.3028 0.3028 0.9531 781.0504 624.1682)">
							<stop  offset="3.597000e-03" style="stop-color:#F36F56"/>
							<stop  offset="1" style="stop-color:#FFC444"/>
						</linearGradient>
						<path style="opacity:0.3;fill:url(#SVGID_00000013177213049135957240000012258256559693097378_);" d="M1067.2,1208.9
							c-3.2,2.4-6.9,4.4-10.9,5.6l-101.5,32.3c-19.2,6.1-39.7-4.5-45.8-23.7c-3.1-9.6-1.9-19.5,2.3-27.8c1.2-2.2,2.6-4.3,4.1-6.3
							c14.9-5.9,31.5-7.5,44.5,4.6C985,1216.9,1043,1178.6,1067.2,1208.9z"/>
					</g>
				</g>
			</g>
		</g>
	</g>
	<g>
		<g>
			
				<linearGradient id="SVGID_00000090252765111268374000000010397503253444077982_" gradientUnits="userSpaceOnUse" x1="-160.2387" y1="-333.192" x2="372.4359" y2="-333.192" gradientTransform="matrix(0.8995 -0.4368 0.4368 0.8995 1298.8734 851.7178)">
				<stop  offset="3.597120e-03" style="stop-color:#E38DDD"/>
				<stop  offset="1" style="stop-color:#9571F6"/>
			</linearGradient>
			<path style="fill:url(#SVGID_00000090252765111268374000000010397503253444077982_);" d="M1488.3,389.3c0.2,0.5,0.5,1.1,0.7,1.6
				c31.8,66.5,33.5,139.7,10.6,204.1c-22.6,63.4-69.1,118.4-134.5,150.2c-37.4,18.2-76.9,26.7-115.9,26.8c0,0,0,0,0,0
				c-79.1,0.1-155.8-35.2-206.9-98c-12.7-15.7-23.9-33-33.1-52c-12.2-25.1-20.1-51.1-24-77.3c-6.4-43-2-86.5,12-126.6
				c22.3-64.2,69.2-120,135.2-152c65.7-31.9,138.1-34.4,202.2-12.5c43.3,14.7,82.8,40.5,113.9,75.8
				C1464.1,347.1,1477.6,367.1,1488.3,389.3z"/>
			
				<linearGradient id="SVGID_00000049208900642705749250000003402070715738711209_" gradientUnits="userSpaceOnUse" x1="-160.2387" y1="-336.1595" x2="372.4359" y2="-336.1595" gradientTransform="matrix(0.8995 -0.4368 0.4368 0.8995 1298.8734 851.7178)">
				<stop  offset="3.597120e-03" style="stop-color:#E38DDD"/>
				<stop  offset="1" style="stop-color:#9571F6"/>
			</linearGradient>
			<path style="opacity:0.2;fill:url(#SVGID_00000049208900642705749250000003402070715738711209_);" d="M1488.3,389.3
				c0.2,0.5,0.5,1.1,0.7,1.6c-5.6,5.1-12.5,10.5-20.7,16.2c-83.8,57.8-155.1,41.1-226.1,138.8c-60.5,83.2-138.2,147.9-200,128.1
				c-12.7-15.7-23.9-33-33.1-52c-12.2-25.1-20.1-51.1-24-77.3c38.6,11.4,112,24.1,157.8-24.3c64.3-68.1,76-119.8,190.7-149.2
				c73.9-18.9,103-26.6,114.8-41.8C1464.1,347.1,1477.6,367.1,1488.3,389.3z"/>
			
				<linearGradient id="SVGID_00000056413761378251742280000014386769334661224084_" gradientUnits="userSpaceOnUse" x1="-9.8529" y1="-112.2683" x2="292.7243" y2="-112.2683" gradientTransform="matrix(0.8995 -0.4368 0.4368 0.8995 1298.8734 851.7178)">
				<stop  offset="3.597120e-03" style="stop-color:#E38DDD"/>
				<stop  offset="1" style="stop-color:#9571F6"/>
			</linearGradient>
			<path style="opacity:0.2;fill:url(#SVGID_00000056413761378251742280000014386769334661224084_);" d="M1499.6,595
				c-22.6,63.4-69.1,118.4-134.5,150.2c-37.4,18.2-76.9,26.7-115.9,26.8c8.2-4.8,15.9-10.8,23-18.3c64.3-68.1,76-119.8,190.7-149.2
				C1476.6,601,1488.8,597.9,1499.6,595z"/>
			
				<linearGradient id="SVGID_00000032611528139277889270000013266562321119033500_" gradientUnits="userSpaceOnUse" x1="-81.9072" y1="-554.3199" x2="293.4617" y2="-554.3199" gradientTransform="matrix(0.8995 -0.4368 0.4368 0.8995 1298.8734 851.7178)">
				<stop  offset="3.597120e-03" style="stop-color:#E38DDD"/>
				<stop  offset="1" style="stop-color:#9571F6"/>
			</linearGradient>
			<path style="opacity:0.2;fill:url(#SVGID_00000032611528139277889270000013266562321119033500_);" d="M1334.6,253.6
				c-15.7,15.7-41.5,29.7-80.9,36.7c-102.9,18.4-141.4,96.3-222.7,123.9c-13.7,4.7-24.8,5.6-33.7,3.8c22.3-64.2,69.2-120,135.2-152
				C1198.1,234.2,1270.5,231.7,1334.6,253.6z"/>
		</g>
		
			<linearGradient id="SVGID_00000055705423483544935540000014021349714729098404_" gradientUnits="userSpaceOnUse" x1="-408.5545" y1="-335.6577" x2="619.3677" y2="-335.6577" gradientTransform="matrix(0.8995 -0.4368 0.4368 0.8995 1298.8734 851.7178)">
			<stop  offset="0" style="stop-color:#311944"/>
			<stop  offset="1" style="stop-color:#893976"/>
		</linearGradient>
		<path style="fill:url(#SVGID_00000055705423483544935540000014021349714729098404_);" d="M1375.9,271.9c1.6,0.8,3.2,1.7,4.7,2.6
			c4,2.2,7.8,4.5,11.7,7c80.2-15.3,138.8-8.9,154.1,22.6c12.6,26-6.4,64.7-48.3,107.7c-50.8,52-135,110.3-236.6,159.6
			c-85.1,41.3-167.5,69.2-234.6,81.7c-79,14.8-136.6,8.1-151.7-23.1c-17.8-36.6,27.2-98.3,110-161.6c0.4-2.6,0.8-5.2,1.3-7.8
			c-96.8,65.5-167,132.5-195.8,187.2c-15.1,28.6-18.8,53.8-9.2,73.6c27.3,56.2,154.8,54.5,317.6,4.7c67-20.6,140.1-49.2,214.5-85.4
			c75-36.4,143.2-76.4,201-116.7c139.1-96.8,218.6-195.5,191.4-251.6C1678.1,214.9,1544.7,218.2,1375.9,271.9z"/>
		
			<linearGradient id="SVGID_00000021810327741996880910000002221899083802788257_" gradientUnits="userSpaceOnUse" x1="-408.5545" y1="-335.5559" x2="619.3677" y2="-335.5559" gradientTransform="matrix(0.8995 -0.4368 0.4368 0.8995 1298.8734 851.7178)">
			<stop  offset="0" style="stop-color:#311944"/>
			<stop  offset="1" style="stop-color:#893976"/>
		</linearGradient>
		<path style="opacity:0.2;fill:url(#SVGID_00000021810327741996880910000002221899083802788257_);" d="M1706.2,272.6
			c27.2,56-52.4,154.8-191.4,251.6c-57.9,40.3-126,80.3-201,116.7c-74.5,36.2-147.5,64.9-214.5,85.4
			c-162.8,49.8-290.3,51.6-317.6-4.7c-9.6-19.9-5.9-45.1,9.2-73.6c7.4,21.5,21.2,39.2,46.8,38.5c64.3-1.6,71.8-16.6,116.4,24.4
			c44.7,41,180.5-18.6,231-60.9c50.5-42.3,92.3-82.3,182.9-90.8c90.6-8.5,196.2-71.6,199.3-134.3c3.1-62.7,40.2-108.2,79.3-125.3
			c39.1-17.1-14.4-62.2-71.8-46.2c-57.4,16-106.7-1.6-138.2,4c-13.5,2.4-35.3,9.6-55.8,17c-1.6-0.9-3.1-1.8-4.7-2.6
			C1544.7,218.2,1678.1,214.9,1706.2,272.6z"/>
	</g>
	<g>
		<g>
			
				<linearGradient id="SVGID_00000025424093029807989470000005476065408205595575_" gradientUnits="userSpaceOnUse" x1="3932.2839" y1="1772.7933" x2="4356.8125" y2="1772.7933" gradientTransform="matrix(0.9056 0.4242 -0.4242 0.9056 -619.2485 -1388.8074)">
				<stop  offset="0" style="stop-color:#AA80F9"/>
				<stop  offset="0.9964" style="stop-color:#6165D7"/>
			</linearGradient>
			<path style="fill:url(#SVGID_00000025424093029807989470000005476065408205595575_);" d="M2574.3,2064.7
				c-0.2,0.4-0.4,0.8-0.6,1.2c-1.9,3.9-3.8,7.7-5.9,11.4c-2.1,3.7-4.2,7.4-6.5,10.9c-26.1,41.4-64.9,71.1-108.8,86.6
				c-6.3,2.2-12.8,4.1-19.3,5.8c-3.3,0.8-6.5,1.5-9.8,2.2c-42.9,8.6-88.9,4.2-131.5-15.7c-30-14.1-55.5-33.4-74.8-58.1l0,0
				c-28.5-37.4-45.7-81-47.3-127.2c-0.1-1.9-0.1-3.9-0.1-5.8c-0.1-14.8,1.4-29.9,4.5-44.7c1.4-6.6,3.1-13.3,5.2-19.8
				c2.1-6.6,4.5-13.1,7.2-19.6c1-2.4,2.1-4.9,3.2-7.3c8.2-17.5,18.4-33.3,30.3-47.3c1.8-2.1,3.6-4.3,5.5-6.3
				c23.5-25.5,52.6-44.6,84.5-56.1c51-18.4,109-17.3,162,7.5c52.7,24.7,90.5,68.3,109.2,119c12.6,34.2,16.4,71.6,10.2,108.6
				c-0.4,2.4-0.9,4.8-1.4,7.3c-2.1,10-4.9,20-8.5,29.8c-1.4,3.9-3,7.8-4.7,11.8C2576.1,2060.8,2575.2,2062.7,2574.3,2064.7z"/>
			
				<linearGradient id="SVGID_00000127736977760996906210000015581987742246205854_" gradientUnits="userSpaceOnUse" x1="3932.2839" y1="1787.7264" x2="4356.8125" y2="1787.7264" gradientTransform="matrix(0.9056 0.4242 -0.4242 0.9056 -619.2485 -1388.8074)">
				<stop  offset="0" style="stop-color:#AA80F9"/>
				<stop  offset="0.9964" style="stop-color:#6165D7"/>
			</linearGradient>
			<path style="opacity:0.3;fill:url(#SVGID_00000127736977760996906210000015581987742246205854_);" d="M2574.3,2064.7
				c-0.2,0.4-0.4,0.8-0.6,1.2c-1.9,3.9-3.8,7.7-5.9,11.4c-2.1,3.7-4.2,7.4-6.5,10.9c-78.2-25.3-105.8-82.6-209.6-71.3
				c-75.7,8.2-148.3,0-182-35.2c-0.1-1.9-0.1-3.9-0.1-5.8c-0.1-14.8,1.4-29.9,4.5-44.7c1.4-6.6,3.1-13.3,5.2-19.8
				c2.1-6.6,4.5-13.1,7.2-19.6c1-2.4,2.1-4.9,3.2-7.3c8.2-17.5,18.4-33.3,30.3-47.3c13.5,36,42.8,89.3,97.9,91
				c83.2,2.6,126.9-22.5,208.5,41.8c29.4,23.2,48.9,38.4,63.4,47.1c-2,10.1-4.8,20-8.4,29.9c-1.4,3.9-3,7.8-4.7,11.8
				C2576.1,2060.8,2575.2,2062.7,2574.3,2064.7z"/>
			
				<linearGradient id="SVGID_00000021091353869181253280000010680986889075972010_" gradientUnits="userSpaceOnUse" x1="4052.1262" y1="1948.7249" x2="4293.2749" y2="1948.7249" gradientTransform="matrix(0.9056 0.4242 -0.4242 0.9056 -619.2485 -1388.8074)">
				<stop  offset="0" style="stop-color:#AA80F9"/>
				<stop  offset="0.9964" style="stop-color:#6165D7"/>
			</linearGradient>
			<path style="opacity:0.3;fill:url(#SVGID_00000021091353869181253280000010680986889075972010_);" d="M2452.5,2174.8
				c-50.6,17.8-108,16.6-160.5-8c-30-14.1-55.1-34.2-74.7-58.4c7.1,2.7,14.6,4.4,22.8,5.1c74.4,5.7,112.3-13,188.1,43.3
				C2437.3,2163.6,2445.3,2169.6,2452.5,2174.8z"/>
			
				<linearGradient id="SVGID_00000025408961883454990890000007845027147283000746_" gradientUnits="userSpaceOnUse" x1="3994.7212" y1="1596.4153" x2="4293.8809" y2="1596.4153" gradientTransform="matrix(0.9056 0.4242 -0.4242 0.9056 -619.2485 -1388.8074)">
				<stop  offset="0" style="stop-color:#AA80F9"/>
				<stop  offset="0.9964" style="stop-color:#6165D7"/>
			</linearGradient>
			<path style="opacity:0.3;fill:url(#SVGID_00000025408961883454990890000007845027147283000746_);" d="M2581.3,1901.4
				c-17.6-1.8-39.2-10.8-63.3-31.7c-63-54.5-130.6-39.3-188.5-75.8c-9.8-6.2-15.9-12.6-19.3-19c51-18.4,109-17.3,162,7.5
				C2524.9,1807.1,2562.7,1850.7,2581.3,1901.4z"/>
		</g>
	</g>
	
		<linearGradient id="SVGID_00000145767867922566569870000006242304349522707088_" gradientUnits="userSpaceOnUse" x1="1955.4475" y1="2437.4702" x2="1916.9404" y2="2491.7488">
		<stop  offset="0" style="stop-color:#FFC444"/>
		<stop  offset="0.9964" style="stop-color:#F36F56"/>
	</linearGradient>
	<circle style="fill:url(#SVGID_00000145767867922566569870000006242304349522707088_);" cx="1930.7" cy="2472.3" r="48.7"/>
	
		<linearGradient id="SVGID_00000165200844387571409460000014468100289751167410_" gradientUnits="userSpaceOnUse" x1="2683.9346" y1="1345.9672" x2="2640.7373" y2="1406.8567">
		<stop  offset="0" style="stop-color:#FF9085"/>
		<stop  offset="1" style="stop-color:#FB6FBB"/>
	</linearGradient>
	<circle style="fill:url(#SVGID_00000165200844387571409460000014468100289751167410_);" cx="2656.2" cy="1385.1" r="54.6"/>
	
		<linearGradient id="SVGID_00000047035665188682131330000014653481940483584130_" gradientUnits="userSpaceOnUse" x1="2209.5547" y1="1539.2688" x2="2187.7258" y2="1570.0381">
		<stop  offset="3.597120e-03" style="stop-color:#E38DDD"/>
		<stop  offset="1" style="stop-color:#9571F6"/>
	</linearGradient>
	<circle style="fill:url(#SVGID_00000047035665188682131330000014653481940483584130_);" cx="2195.5" cy="1559" r="27.6"/>
	
		<linearGradient id="SVGID_00000160149629436114978410000016240340728445155456_" gradientUnits="userSpaceOnUse" x1="401.0592" y1="1365.0146" x2="368.5271" y2="1410.8711">
		<stop  offset="0" style="stop-color:#AA80F9"/>
		<stop  offset="0.9964" style="stop-color:#6165D7"/>
	</linearGradient>
	<circle style="fill:url(#SVGID_00000160149629436114978410000016240340728445155456_);" cx="380.2" cy="1394.5" r="41.1"/>
	
		<linearGradient id="SVGID_00000178884480653108219910000001884598187168172980_" gradientUnits="userSpaceOnUse" x1="1864.7273" y1="478.2486" x2="1836.1882" y2="518.4765">
		<stop  offset="0" style="stop-color:#FF9085"/>
		<stop  offset="1" style="stop-color:#FB6FBB"/>
	</linearGradient>
	<circle style="fill:url(#SVGID_00000178884480653108219910000001884598187168172980_);" cx="1846.4" cy="504.1" r="36.1"/>
</g>
</svg>
