<?xml version="1.0" encoding="utf-8"?>
<!-- Generator: Adobe Illustrator 25.0.1, SVG Export Plug-In . SVG Version: 6.00 Build 0)  -->
<svg version="1.1" id="Layer_1" xmlns="http://www.w3.org/2000/svg" xmlns:xlink="http://www.w3.org/1999/xlink" x="0px" y="0px"
	 viewBox="0 0 461.11 109.02" style="enable-background:new 0 0 461.11 109.02;" xml:space="preserve">
<style type="text/css">
	.st0{fill:#EFBB54;}
	.st1{fill:url(#SVGID_1_);}
	.st2{fill:url(#SVGID_2_);}
	.st3{fill:url(#SVGID_3_);}
</style>
<g>
	<g>
		<path class="st0" d="M88.58,47.6c0.78,5.04,4.12,7.97,9.48,7.97c5.62,0,8.19-2.59,8.19-6.69c0-4.73-2.62-6.69-10.13-8.91
			c-10.85-3.1-14.7-6.9-14.7-13.88c0-8.54,6.71-13.47,15.87-13.47c11.21,0,15.96,6.08,16.51,13.54h-8.42
			c-0.65-4.04-2.76-6.91-8.2-6.91c-4.8,0-7.17,2.28-7.17,6.01c0,3.93,2.46,5.22,9.63,7.33c12.22,3.62,15.34,8.43,15.34,15.28
			c0,7.95-5.36,14.4-17.31,14.4c-10.39,0-16.94-5.35-17.56-14.68H88.58z"/>
		<path class="st0" d="M121.7,13.26h8.54v19.55h19.38V13.26h8.57v48.43h-8.57V39.96h-19.38v21.73h-8.54V13.26z"/>
		<path class="st0" d="M175.13,49.08l-3.86,12.61h-8.44c1.58-4.7,13.36-43.1,15.13-48.43h11l15.87,48.43h-9.02l-4.08-12.61H175.13z
			 M189.97,41.93c-3.38-10.72-5.65-17.75-6.69-22.05h-0.09c-1.23,5.5-3.54,13.02-6.35,22.05H189.97z"/>
		<path class="st0" d="M209.48,61.69V13.26h11.01c16.07,31.18,18.5,35.91,19.28,38.15h0.12c-0.47-5.99-0.54-13.87-0.54-21.76V13.26
			h7.87v48.43h-10.48c-17.22-34.09-18.88-37.67-19.71-39.56h-0.07c0.35,6.17,0.36,14.45,0.36,23.12v16.44H209.48z"/>
		<path class="st0" d="M294.29,61.69h-6.37c-0.31-1.52-0.55-3.69-0.67-6.09c-2.51,5.07-7.33,6.79-13.69,6.79
			c-12.66,0-19.15-10.64-19.15-24.66c0-13.94,7.67-25.13,21.69-25.13c11.1,0,17.01,6.12,18.28,14.36h-8.4
			c-1.09-3.8-3.6-7.41-10.35-7.41c-8.96,0-12.42,8.33-12.42,18.23c0,9.6,3.52,17.71,12.16,17.71c8.35,0,10.44-5.8,10.44-12.95v-0.25
			h-10.95v-7.32h19.42C294.29,49.15,294.29,60.45,294.29,61.69z"/>
		<path class="st0" d="M311.45,40.99v20.7h-8.42V13.26h18.84c8.94,0,15.29,4.43,15.29,12.89c0,6.74-3.71,9.89-7.68,11.32
			c4.89,1.78,6.77,5.64,6.77,11.85v1.13c0,4.36,0.2,8.48,0.65,11.24h-8.29c-0.68-2-0.88-5.68-0.88-11.33v-1.17
			c0-6-2.18-8.2-9.07-8.2H311.45z M311.45,34.13h7.91c5.25,0,9.28-1.44,9.28-7.29c0-4.72-3.32-6.72-7.9-6.72h-9.29V34.13z"/>
		<path class="st0" d="M353.31,13.26v48.43h-8.54V13.26H353.31z"/>
		<path class="st0" d="M378.27,33.79v7.07h-17.89v-7.07H378.27z"/>
		<path class="st0" d="M385.31,13.26h8.54v41.35h22.2l-1,7.08h-29.75V13.26z"/>
		<path class="st0" d="M428.16,49.08l-3.86,12.61h-8.44c1.58-4.7,13.36-43.1,15.13-48.43h11l15.87,48.43h-9.02l-4.08-12.61H428.16z
			 M443,41.93c-3.38-10.72-5.65-17.75-6.69-22.05h-0.09c-1.23,5.5-3.54,13.02-6.35,22.05H443z"/>
	</g>
</g>
<g>
	<g>
		<path class="st0" d="M96.05,91.31c-0.63,3.47-2.92,6.69-8.07,6.69c-6.41,0-8.82-4.83-8.82-11.22c0-5.76,2.82-10.97,8.97-10.97
			c5.12,0,7.43,3.15,7.81,6.73h-2.99c-0.53-2.38-1.76-4.22-4.92-4.22c-4.13,0-5.76,4.03-5.76,8.46c0,4.45,1.34,8.73,5.79,8.73
			c3.14,0,4.39-1.92,5.01-4.2H96.05z"/>
		<path class="st0" d="M104.22,76.1h3v8.97h9.66V76.1h3.02v21.58h-3.02V87.64h-9.66v10.04h-3V76.1z"/>
		<path class="st0" d="M132.18,91.39l-1.99,6.29h-2.99c1.28-3.81,5.51-17.26,6.94-21.58h3.83l7.25,21.58h-3.2l-2.07-6.29H132.18z
			 M139.26,88.82c-1.73-5.33-2.85-8.52-3.28-10.3h-0.05c-0.59,2.52-1.68,5.85-3.1,10.3H139.26z"/>
		<path class="st0" d="M155.32,76.1v13.73c0,3.23,1.15,5.65,4.87,5.65c3.71,0,4.77-2.3,4.77-5.66V76.1h3.06v13.83
			c0,4.54-1.89,8.06-7.92,8.06c-5.65,0-7.82-2.99-7.82-7.93V76.1H155.32z"/>
		<path class="st0" d="M177.24,76.1h12.86v2.55h-9.91v6.83h9.29V88h-9.29v9.68h-2.96V76.1z"/>
		<path class="st0" d="M198.06,76.1h12.86v2.55h-9.91v6.83h9.29V88h-9.29v9.68h-2.96V76.1z"/>
		<path class="st0" d="M231.45,87.66h-9.64v7.49h10.61l-0.39,2.53h-13.16V76.1h13.03v2.55h-10.09v6.44h9.64V87.66z"/>
		<path class="st0" d="M243.14,76.1v13.73c0,3.23,1.15,5.65,4.87,5.65c3.71,0,4.77-2.3,4.77-5.66V76.1h3.06v13.83
			c0,4.54-1.89,8.06-7.92,8.06c-5.65,0-7.82-2.99-7.82-7.93V76.1H243.14z"/>
		<path class="st0" d="M268.04,88.04v9.64h-2.97V76.1h7.86c3.86,0,6.58,1.92,6.58,5.61c0,3.08-1.79,4.48-3.51,5.04
			c2.23,0.74,3.16,2.5,3.16,5.39v0.42c0,1.98,0.06,3.85,0.3,5.11h-2.95c-0.3-0.87-0.37-2.77-0.37-5.1v-0.46
			c0-2.95-1.07-4.09-4.48-4.09H268.04z M268.04,85.58h3.85c2.68,0,4.58-0.76,4.58-3.66c0-2.25-1.53-3.35-3.95-3.35h-4.48V85.58z"/>
		<path class="st0" d="M289.7,91.54c0.4,2.64,2.18,3.98,4.69,3.98c2.56,0,4.11-1.27,4.11-3.51c0-2.31-1.14-3.28-4.8-4.4
			c-4.61-1.38-6.33-2.93-6.33-6.03c0-3.54,2.7-5.75,6.73-5.75c4.75,0,6.76,2.73,7,5.86h-2.97c-0.32-2.09-1.49-3.45-4.09-3.45
			c-2.42,0-3.62,1.17-3.62,3.06c0,1.95,1.12,2.68,4.5,3.7c5.35,1.61,6.67,3.68,6.67,6.68c0,3.58-2.46,6.27-7.34,6.27
			c-4.52,0-7.24-2.4-7.54-6.39H289.7z"/>
	</g>
</g>
<g>
	<linearGradient id="SVGID_1_" gradientUnits="userSpaceOnUse" x1="1.008" y1="52.9611" x2="58.0019" y2="52.9611">
		<stop  offset="2.024560e-07" style="stop-color:#FACA6D"/>
		<stop  offset="1" style="stop-color:#E0B245"/>
	</linearGradient>
	<path class="st1" d="M57.81,61.59v-3.97c0,0,1.19-2.86-2.38-4.44C51.86,51.6,5.68,32.16,5.68,32.16L1.16,43.9
		c0,0-1.43,5.63,4.52,8.57c5.95,2.94,48.56,20.55,48.56,20.55S58,75.16,58,72.19C58,69.21,57.81,61.59,57.81,61.59z"/>
	<linearGradient id="SVGID_2_" gradientUnits="userSpaceOnUse" x1="1.008" y1="85.6863" x2="56.151" y2="85.6863">
		<stop  offset="6.819570e-07" style="stop-color:#866126"/>
		<stop  offset="1" style="stop-color:#DCB257"/>
	</linearGradient>
	<path class="st2" d="M55.96,95.15v-3.97c0,0,1.19-2.86-2.38-4.44C50.01,85.15,1.09,64.05,1.09,64.05L1.01,77.31
		c0,0-0.06,7.32,3.82,8.72c6.24,2.25,47.56,20.55,47.56,20.55s3.76,2.14,3.76-0.83C56.15,102.77,55.96,95.15,55.96,95.15z"/>
	<linearGradient id="SVGID_3_" gradientUnits="userSpaceOnUse" x1="1.008" y1="22.7963" x2="58.0133" y2="22.7963">
		<stop  offset="6.819570e-07" style="stop-color:#866126"/>
		<stop  offset="1" style="stop-color:#DCB257"/>
	</linearGradient>
	<path class="st3" d="M40.43,23.9v9.44c0,0,0,4.13,3.17,5.71s11.19,4.76,11.19,4.76S58,46.12,58,42.47c0-3.65,0-30.15,0-30.15
		s0.33-6.15-2.49-8.57S48.61-0.49,40.71,3S9.41,16.13,9.41,16.13s-8.4,4.6-8.4,11.21s0,17.2,0,17.2s0.09-4.41,13.18-9.76
		S40.43,23.9,40.43,23.9z"/>
</g>
</svg>
