<?xml version="1.0" encoding="utf-8"?>
<!-- Generator: Adobe Illustrator 25.0.1, SVG Export Plug-In . SVG Version: 6.00 Build 0)  -->
<svg version="1.1" id="Layer_1" xmlns="http://www.w3.org/2000/svg" xmlns:xlink="http://www.w3.org/1999/xlink" x="0px" y="0px"
	 viewBox="0 0 58.98 109.02" style="enable-background:new 0 0 58.98 109.02;" xml:space="preserve">
<style type="text/css">
	.st0{fill:url(#SVGID_1_);}
	.st1{fill:url(#SVGID_2_);}
	.st2{fill:url(#SVGID_3_);}
</style>
<g>
	<linearGradient id="SVGID_1_" gradientUnits="userSpaceOnUse" x1="1.008" y1="52.9611" x2="58.0019" y2="52.9611">
		<stop  offset="2.024560e-07" style="stop-color:#FACA6D"/>
		<stop  offset="1" style="stop-color:#E0B245"/>
	</linearGradient>
	<path class="st0" d="M57.81,61.59v-3.97c0,0,1.19-2.86-2.38-4.44C51.86,51.6,5.68,32.16,5.68,32.16L1.16,43.9
		c0,0-1.43,5.63,4.52,8.57c5.95,2.94,48.56,20.55,48.56,20.55S58,75.16,58,72.19C58,69.21,57.81,61.59,57.81,61.59z"/>
	<linearGradient id="SVGID_2_" gradientUnits="userSpaceOnUse" x1="1.008" y1="85.6863" x2="56.151" y2="85.6863">
		<stop  offset="6.819570e-07" style="stop-color:#866126"/>
		<stop  offset="1" style="stop-color:#DCB257"/>
	</linearGradient>
	<path class="st1" d="M55.96,95.15v-3.97c0,0,1.19-2.86-2.38-4.44C50.01,85.15,1.09,64.05,1.09,64.05L1.01,77.31
		c0,0-0.06,7.32,3.82,8.72c6.24,2.25,47.56,20.55,47.56,20.55s3.76,2.14,3.76-0.83C56.15,102.77,55.96,95.15,55.96,95.15z"/>
	<linearGradient id="SVGID_3_" gradientUnits="userSpaceOnUse" x1="1.008" y1="22.7963" x2="58.0133" y2="22.7963">
		<stop  offset="6.819570e-07" style="stop-color:#866126"/>
		<stop  offset="1" style="stop-color:#DCB257"/>
	</linearGradient>
	<path class="st2" d="M40.43,23.9v9.44c0,0,0,4.13,3.17,5.71s11.19,4.76,11.19,4.76S58,46.12,58,42.47c0-3.65,0-30.15,0-30.15
		s0.33-6.15-2.49-8.57S48.61-0.49,40.71,3S9.41,16.13,9.41,16.13s-8.4,4.6-8.4,11.21s0,17.2,0,17.2s0.09-4.41,13.18-9.76
		S40.43,23.9,40.43,23.9z"/>
</g>
</svg>
