<svg xmlns="http://www.w3.org/2000/svg" xmlns:xlink="http://www.w3.org/1999/xlink" width="70" height="70" viewBox="0 0 70 70">
  <defs>
    <clipPath id="clip-path">
      <circle id="Ellipse_318" data-name="Ellipse 318" cx="35" cy="35" r="35" transform="translate(-0.046 -0.046)" fill="#fff" stroke="#707070" strokeWidth="1"/>
    </clipPath>
  </defs>
  <g id="Group_1568" data-name="Group 1568" transform="translate(-481 -266)">
    <g id="Mask_Group_7" data-name="Mask Group 7" transform="translate(481.046 266.046)" clip-path="url(#clip-path)">
      <g id="Group_1567" data-name="Group 1567" transform="translate(6.562 9.595)">
        <g id="Group_1566" data-name="Group 1566" transform="translate(0.002 42.251)">
          <path id="Path_7431" data-name="Path 7431" d="M242.743,180.918l-.239-.3a.617.617,0,0,1-.175.3H190.347c-.009-.046-.028-.092-.037-.138v-.009c-3.41-13.825,2.739-15.756,9.928-16.647a12.421,12.421,0,0,0,3.677-1.02c.046-.028.092-.046.138-.074.009-.009.018-.009.037-.009a.185.185,0,0,1,.1-.028.083.083,0,0,1,.046-.009c6.37,7.933,19.313,5.993,24.378-.074a.313.313,0,0,1,.092.009h.009a.391.391,0,0,1,.1.018c.009,0,.009,0,.018.009a11.857,11.857,0,0,0,1.25.524c.009.009.009.009.018.009a12.569,12.569,0,0,0,2.739.643C240.059,165.015,246.227,166.964,242.743,180.918Z" transform="translate(-189.342 -162.855)" fill="#2d6bea"/>
          <path id="Path_7432" data-name="Path 7432" d="M205.665,163.119c6.409,7.776,19.232,5.823,24.268-.209" transform="translate(-190.661 -162.855)" fill="none" stroke="#4b4a4a" stroke-linecap="round" stroke-linejoin="round" strokeWidth="1"/>
          <path id="Path_7433" data-name="Path 7433" d="M205.514,162.96l-.028.037a.185.185,0,0,0-.1.028C205.431,163.006,205.468,162.978,205.514,162.96Z" transform="translate(-190.638 -162.859)" fill="#a7d19d"/>
          <path id="Path_7434" data-name="Path 7434" d="M232.271,162.933a.39.39,0,0,0-.1-.018h-.009l-.046-.064C232.17,162.878,232.216,162.905,232.271,162.933Z" transform="translate(-192.797 -162.85)" fill="#a7d19d"/>
          <path id="Path_7435" data-name="Path 7435" d="M205.782,162.96a.949.949,0,0,0-.239.028c0-.009-.009-.018-.018-.028Z" transform="translate(-190.649 -162.859)" fill="#a7d19d"/>
          <path id="Path_7436" data-name="Path 7436" d="M190.428,182.488h-.083l.046-.138C190.4,182.4,190.419,182.442,190.428,182.488Z" transform="translate(-189.423 -164.425)" fill="#a7d19d"/>
        </g>
        <path id="Path_7437" data-name="Path 7437" d="M190.343,180.04c-3.488-13.95,2.677-15.9,9.9-16.79,6.816-.842,10.305-6.385,9.649-11.166" transform="translate(-189.34 -119.73)" fill="none" stroke="#4b4a4a" stroke-linecap="round" stroke-linejoin="round" strokeWidth="1"/>
        <path id="Path_7438" data-name="Path 7438" d="M245.707,180.04c3.488-13.95-2.677-15.9-9.9-16.79-6.816-.842-10.305-6.385-9.649-11.166" transform="translate(-192.307 -119.73)" fill="none" stroke="#4b4a4a" stroke-linecap="round" stroke-linejoin="round" strokeWidth="1"/>
        <path id="Path_7440" data-name="Path 7440" d="M230.177,135.622c2.547-3.434.127-13.233-1.89-13.961a4.252,4.252,0,0,0,3.649-3.291c-1.866,2.215-13.283-3.677-20.821-.542s-9.358,10.3-5.911,17.907l.5,1.131a3.627,3.627,0,0,1,1.388-.524,6.251,6.251,0,0,1,.432-1.177c.083-.193.184-.377.285-.57.028-.055.055-.11.083-.156.184-.331.377-.653.579-.974.4-.662.855-1.324,1.278-2.031.074-.12.138-.239.211-.358s.138-.239.2-.359.129-.248.193-.368c.1-.193.193-.386.285-.579s.175-.4.257-.6c0-.009.009-.018.009-.028.092-.239.184-.478.257-.726l.028-.083c.074-.221.129-.45.184-.68a4.554,4.554,0,0,0,.129-.634.069.069,0,0,0,.009-.046,2.809,2.809,0,0,0,.046-.294c.037-.221.055-.45.074-.689a5.74,5.74,0,0,0,4.486,3.456c2.611.552,5.23.175,5.359,2.712a4.756,4.756,0,0,1,1.03-1.691c1.636-1.664,4.228-.919,5.782,3.962a3.133,3.133,0,0,1,1.608,1.246c-.073-.117.033.042.132.222a4.224,4.224,0,0,1-2.016,7.1,7.3,7.3,0,0,1-.221.91,10.258,10.258,0,0,1-19.874.11,1,1,0,0,1-.165.009,3.875,3.875,0,0,1-2.05-7.161,3.627,3.627,0,0,1,1.388-.524,7.86,7.86,0,0,1,.432-1.177c.092-.193.184-.377.285-.57.028-.055.055-.11.083-.156.184-.322.377-.643.579-.974.4-.662.855-1.324,1.278-2.031.074-.12.147-.239.211-.358s.138-.239.2-.359.129-.239.193-.368c.1-.193.193-.386.285-.579s.175-.4.257-.6c0-.009.009-.018.009-.028.092-.23.184-.478.257-.726l.028-.083a5.711,5.711,0,0,0,.184-.68,4.554,4.554,0,0,0,.129-.634.069.069,0,0,0,.009-.046,2.809,2.809,0,0,0,.046-.294c.037-.221.055-.45.074-.689a5.74,5.74,0,0,0,4.486,3.456c2.611.552,5.23.175,5.359,2.712a4.756,4.756,0,0,1,1.03-1.691c1.636-1.664,4.228-.919,5.782,3.962" transform="translate(-190.486 -116.887)" fill="none" stroke="#4b4a4a" stroke-linecap="round" stroke-linejoin="round" strokeWidth="1"/>
      </g>
    </g>
    <g id="Path_7442" data-name="Path 7442" transform="translate(481 266)" fill="none">
      <path d="M35,0A35,35,0,1,1,0,35,35,35,0,0,1,35,0Z" stroke="none"/>
      <path d="M 35 1 C 30.40959167480469 1 25.9570198059082 1.898818969726562 21.7659797668457 3.671478271484375 C 17.71739959716797 5.383880615234375 14.08119964599609 7.835548400878906 10.95837020874023 10.95837020874023 C 7.835548400878906 14.08119964599609 5.383880615234375 17.71739959716797 3.671478271484375 21.7659797668457 C 1.898818969726562 25.9570198059082 1 30.40959167480469 1 35 C 1 39.59040832519531 1.898818969726562 44.0429801940918 3.671478271484375 48.2340202331543 C 5.383880615234375 52.28260040283203 7.835548400878906 55.91880035400391 10.95837020874023 59.04162979125977 C 14.08119964599609 62.16445159912109 17.71739959716797 64.61611938476562 21.7659797668457 66.32852172851562 C 25.9570198059082 68.10118103027344 30.40959167480469 69 35 69 C 39.59040832519531 69 44.0429801940918 68.10118103027344 48.2340202331543 66.32852172851562 C 52.28260040283203 64.61611938476562 55.91880035400391 62.16445159912109 59.04162979125977 59.04162979125977 C 62.16445159912109 55.91880035400391 64.61611938476562 52.28260040283203 66.32852172851562 48.2340202331543 C 68.10118103027344 44.0429801940918 69 39.59040832519531 69 35 C 69 30.40959167480469 68.10118103027344 25.9570198059082 66.32852172851562 21.7659797668457 C 64.61611938476562 17.71739959716797 62.16445159912109 14.08119964599609 59.04162979125977 10.95837020874023 C 55.91880035400391 7.835548400878906 52.28260040283203 5.383880615234375 48.2340202331543 3.671478271484375 C 44.0429801940918 1.898818969726562 39.59040832519531 1 35 1 M 35 0 C 54.32995986938477 0 70 15.67004013061523 70 35 C 70 54.32995986938477 54.32995986938477 70 35 70 C 15.67004013061523 70 0 54.32995986938477 0 35 C 0 15.67004013061523 15.67004013061523 0 35 0 Z" stroke="none" fill="#4b4a4a"/>
    </g>
  </g>
</svg>
