<?xml version="1.0" encoding="utf-8"?>
<!-- Generator: Adobe Illustrator 25.0.1, SVG Export Plug-In . SVG Version: 6.00 Build 0)  -->
<svg version="1.1" id="Layer_1" xmlns="http://www.w3.org/2000/svg" xmlns:xlink="http://www.w3.org/1999/xlink" x="0px" y="0px"
	 viewBox="0 0 139.72 186.38" style="enable-background:new 0 0 139.72 186.38;" xml:space="preserve">
<style type="text/css">
	.st0{fill:#FCC3A2;}
	.st1{fill:#D1D3D4;}
	.st2{fill:none;stroke:#3C2415;stroke-width:2.2281;stroke-linecap:round;stroke-miterlimit:10;}
	.st3{fill:#CDA187;}
	.st4{fill:#FFFFFF;}
	.st5{fill:#DA9285;}
	.st6{fill:#3C2415;}
	.st7{fill:#EC524F;}
	.st8{fill:#2D1307;}
</style>
<g>
	<rect x="30.33" y="98.13" width="80.51" height="51.37"/>
	<rect x="58.24" y="134.11" class="st0" width="21.75" height="18.4"/>
	<path class="st1" d="M75.4,140.23c1.64,0,3.17,0.18,4.59,0.5v-6.62H58.24v17.93C60.59,145.46,66.3,140.23,75.4,140.23z"/>
	<path class="st0" d="M78.43,149.72h-9.32H59.8c0,0-37.26-2-44.43,36.66h53.75h53.74C115.69,147.72,78.43,149.72,78.43,149.72z"/>
	<path class="st0" d="M113.82,81.41c0,31.64-18.51,57.29-44.71,57.29c-26.2,0-44.71-25.65-44.71-57.29
		c0-31.64,18.51-57.3,44.71-57.3C95.31,24.12,113.82,49.77,113.82,81.41z"/>
	<g>
		<path class="st0" d="M108.14,95.05c-0.94,4.99,0.84,9.51,3.98,10.09c3.14,0.59,6.44-2.97,7.37-7.96
			c0.94-4.99-0.85-9.51-3.98-10.09C112.38,86.51,109.08,90.07,108.14,95.05z"/>
		<path class="st1" d="M113.79,91.95c0,0,0.21,0.1,0.58,0.23c0.18,0.07,0.44,0.11,0.6,0.3c0.17,0.18,0.37,0.25,0.51,0.5
			c0.17,0.19,0.29,0.43,0.37,0.72c0.14,0.23,0.09,0.61,0.18,0.91c-0.01,0.68,0,1.43-0.21,2.19c-0.13,0.76-0.4,1.5-0.67,2.16
			c-0.28,0.67-0.64,1.2-0.99,1.61c-0.19,0.14-0.38,0.33-0.57,0.42c-0.19,0.03-0.41,0.18-0.57,0.11c-0.34-0.04-0.6-0.06-0.6-0.06
			s0.14,0.16,0.49,0.42c0.17,0.16,0.45,0.15,0.77,0.23c0.32,0.04,0.7-0.05,1.07-0.19c0.71-0.33,1.4-0.95,1.88-1.72
			c0.52-0.75,0.87-1.65,1.08-2.59c0.1-0.47,0.15-0.95,0.15-1.44c0.05-0.47-0.1-0.97-0.15-1.43c-0.17-0.47-0.27-0.92-0.59-1.29
			c-0.14-0.19-0.27-0.37-0.41-0.53c-0.18-0.12-0.36-0.25-0.53-0.36c-0.3-0.26-0.74-0.28-1.03-0.34c-0.32-0.08-0.53,0-0.73,0.03
			C114.02,91.89,113.79,91.95,113.79,91.95z"/>
	</g>
	<g>
		<path class="st0" d="M30.08,95.05c0.94,4.99-0.84,9.51-3.98,10.09c-3.14,0.59-6.44-2.97-7.37-7.96
			c-0.94-4.99,0.84-9.51,3.98-10.09C25.85,86.51,29.15,90.07,30.08,95.05z"/>
		<path class="st1" d="M24.43,91.95c0,0-0.21,0.1-0.58,0.23c-0.17,0.07-0.44,0.11-0.6,0.3c-0.17,0.18-0.37,0.25-0.51,0.5
			c-0.17,0.19-0.29,0.43-0.37,0.72c-0.14,0.23-0.09,0.61-0.18,0.91c0.01,0.68,0,1.43,0.21,2.19c0.13,0.76,0.4,1.5,0.67,2.16
			c0.28,0.67,0.64,1.2,1,1.61c0.19,0.14,0.38,0.33,0.57,0.42c0.19,0.03,0.41,0.18,0.57,0.11c0.34-0.04,0.6-0.06,0.6-0.06
			s-0.14,0.16-0.49,0.42c-0.17,0.16-0.45,0.15-0.77,0.23c-0.32,0.04-0.7-0.05-1.07-0.19c-0.71-0.33-1.4-0.95-1.88-1.72
			c-0.52-0.75-0.87-1.65-1.08-2.59c-0.1-0.47-0.15-0.95-0.15-1.44c-0.05-0.47,0.1-0.97,0.15-1.43c0.17-0.47,0.27-0.92,0.59-1.29
			c0.14-0.19,0.27-0.37,0.41-0.53c0.18-0.12,0.36-0.25,0.53-0.36c0.3-0.26,0.74-0.28,1.03-0.34c0.32-0.08,0.53,0,0.73,0.03
			C24.21,91.89,24.43,91.95,24.43,91.95z"/>
	</g>
	<path class="st2" d="M101.12,74.64c0,0-1.8-11.67-17.15-2.93"/>
	<path class="st2" d="M38.45,74.64c0,0,1.8-11.67,17.15-2.93"/>
	<g>
		<g>
			<path class="st3" d="M62.2,107.85c0.79,0.02,1.59,0.07,2.36,0.08c0.78,0.01,1.56,0.02,2.32-0.02c0.77-0.04,1.52-0.09,2.26-0.22
				c0.37-0.04,0.72-0.15,1.08-0.22c0.34-0.1,0.7-0.18,1.02-0.32c0.33-0.11,0.63-0.27,0.93-0.43c0.29-0.17,0.55-0.36,0.79-0.56
				c0.48-0.41,0.82-0.9,1.05-1.46c0.23-0.56,0.3-1.2,0.32-1.84c0-0.33-0.03-0.66-0.08-0.99c-0.05-0.31-0.13-0.69-0.2-0.92L74,100.81
				l-0.02-0.13c-0.08-0.61-0.14-1.22-0.17-1.84c-0.02-0.31-0.01-0.62-0.02-0.93c0-0.31-0.02-0.62,0.01-0.93
				c0.03-0.62,0.08-1.25,0.17-1.88c0.11-0.63,0.22-1.26,0.45-1.9c0.36,0.58,0.61,1.17,0.85,1.76c0.23,0.59,0.41,1.19,0.57,1.79
				c0.09,0.3,0.14,0.6,0.21,0.91c0.06,0.3,0.14,0.6,0.18,0.91c0.11,0.61,0.18,1.22,0.23,1.83l-0.05-0.25
				c0.15,0.52,0.22,0.92,0.27,1.38c0.05,0.45,0.07,0.9,0.05,1.36c-0.04,0.91-0.23,1.85-0.65,2.72c-0.21,0.44-0.47,0.85-0.78,1.22
				c-0.31,0.38-0.67,0.7-1.04,0.98c-0.39,0.27-0.79,0.49-1.21,0.67c-0.42,0.17-0.84,0.32-1.26,0.42c-0.84,0.22-1.69,0.3-2.52,0.3
				c-0.41,0-0.83,0-1.23-0.04c-0.41-0.02-0.81-0.07-1.21-0.13c-0.4-0.05-0.8-0.13-1.19-0.21c-0.39-0.07-0.78-0.16-1.17-0.27
				C63.69,108.37,62.94,108.11,62.2,107.85z"/>
		</g>
	</g>
	<g>
		<path class="st4" d="M58.36,116.2c2.23,4.68,6.2,7.81,10.75,7.81c4.55,0,8.52-3.13,10.75-7.81H58.36z"/>
		<g>
			<path class="st5" d="M58.36,116.2l0.97,1.46c0.34,0.47,0.73,0.9,1.08,1.35c0.36,0.44,0.81,0.81,1.2,1.22
				c0.4,0.4,0.9,0.7,1.33,1.05c0.44,0.34,0.96,0.57,1.43,0.86c0.49,0.26,1.03,0.41,1.53,0.63c0.52,0.16,1.06,0.25,1.59,0.38
				c0.54,0.05,1.08,0.05,1.62,0.09c0.44-0.06,1.13-0.11,1.67-0.19c0.49-0.16,0.98-0.27,1.47-0.45c0.48-0.25,0.99-0.43,1.44-0.71
				c0.44-0.31,0.93-0.55,1.34-0.91c0.4-0.37,0.85-0.68,1.21-1.1c0.35-0.42,0.75-0.8,1.07-1.25c0.3-0.46,0.65-0.89,0.94-1.36
				l0.81-1.45l0.81,1.27c-1.79,0-3.58-0.03-5.37-0.08c-1.79-0.03-3.58-0.09-5.37-0.16c-1.79-0.07-3.58-0.15-5.37-0.26
				C61.95,116.5,60.16,116.37,58.36,116.2z M58.36,116.2c1.79-0.17,3.58-0.29,5.37-0.4c1.79-0.11,3.58-0.19,5.37-0.26
				c1.79-0.06,3.58-0.13,5.37-0.16c1.79-0.04,3.58-0.07,5.37-0.08h0.04c0.48,0,0.87,0.39,0.87,0.86c0,0.15-0.04,0.29-0.1,0.41
				l-0.87,1.62c-0.32,0.52-0.69,1.02-1.04,1.53c-0.37,0.5-0.82,0.93-1.23,1.39c-0.42,0.46-0.94,0.82-1.4,1.24
				c-0.48,0.4-1.05,0.69-1.57,1.04c-0.54,0.31-1.15,0.51-1.73,0.77c-0.61,0.2-1.27,0.33-1.9,0.48c-0.62,0.06-1.1,0.08-1.82,0.13
				c-0.63-0.08-1.25-0.13-1.87-0.23c-0.6-0.18-1.21-0.33-1.78-0.55c-0.55-0.28-1.13-0.51-1.64-0.85c-0.49-0.37-1.03-0.67-1.47-1.09
				c-0.43-0.42-0.91-0.81-1.28-1.28c-0.37-0.48-0.77-0.92-1.09-1.42c-0.3-0.52-0.63-1.02-0.9-1.54L58.36,116.2z"/>
		</g>
	</g>
	<g>
		<path class="st6" d="M50.34,82.49c0,2.95-2.06,5.33-4.6,5.33c-2.54,0-4.6-2.39-4.6-5.33c0-2.94,2.06-5.33,4.6-5.33
			C48.28,77.16,50.34,79.54,50.34,82.49z"/>
		<g>
			<path class="st4" d="M44.34,80.35c0,1.18-0.96,2.14-2.14,2.14c-1.18,0-2.14-0.96-2.14-2.14c0-1.19,0.96-2.14,2.14-2.14
				C43.38,78.2,44.34,79.16,44.34,80.35z"/>
			<path class="st4" d="M44.23,83.46c0,0.56-0.46,1.02-1.02,1.02c-0.56,0-1.02-0.46-1.02-1.02c0-0.56,0.46-1.02,1.02-1.02
				C43.78,82.44,44.23,82.9,44.23,83.46z"/>
		</g>
	</g>
	<g>
		<path class="st6" d="M86.55,82.49c0,2.95,2.06,5.33,4.6,5.33c2.54,0,4.6-2.39,4.6-5.33c0-2.94-2.06-5.33-4.6-5.33
			C88.61,77.16,86.55,79.54,86.55,82.49z"/>
		<g>
			<path class="st4" d="M92.55,80.35c0,1.18,0.96,2.14,2.14,2.14c1.19,0,2.14-0.96,2.14-2.14c0-1.19-0.96-2.14-2.14-2.14
				C93.51,78.2,92.55,79.16,92.55,80.35z"/>
			<path class="st4" d="M92.66,83.46c0,0.56,0.45,1.02,1.02,1.02c0.56,0,1.02-0.46,1.02-1.02c0-0.56-0.46-1.02-1.02-1.02
				C93.11,82.44,92.66,82.9,92.66,83.46z"/>
		</g>
	</g>
	<path class="st7" d="M95.27,152.51c-1.63-0.66-1.19-0.43-2.73-0.87c0,0,2.99,26.95-22.76,27.75c-0.21,0-0.43,0.01-0.63,0
		c-0.21,0-0.42,0-0.63,0c-25.76-0.8-22.76-27.75-22.76-27.75c-1.54,0.44-1.1,0.21-2.73,0.87c0,0,8.13,19.96-13.72,33.88h37.8h4.1
		h37.8C87.14,172.47,95.27,152.51,95.27,152.51z"/>
	<path class="st8" d="M24.41,87.03"/>
	<path class="st8" d="M49.32,25.17"/>
	<path class="st8" d="M25.82,40.55c-19.13,36.61-7.34,90.5-7.34,90.5c4.62,29.5,32.4,18.54,32.4,18.54
		C16.19,116.2,32.64,56.43,32.64,56.43L25.82,40.55z"/>
	<path class="st8" d="M32.64,56.43c0,0,7.47-24.55,20.34-21.55c0,0,0.65-13.85-8.57-10.76c0,0-14.77,2.95-20.51,20.39L32.64,56.43z"
		/>
	<path class="st8" d="M116.95,32.55c19.13,36.61,10.36,97.67,10.36,97.67c-2.12,29.58-40.42,19.19-40.42,19.19
		c34.69-33.38,18.24-93.16,18.24-93.16L116.95,32.55z"/>
	<path class="st8" d="M105.13,56.24c0,0-7.47-24.55-20.34-21.55c0,0-0.65-13.85,8.57-10.76c0,0,14.77,2.95,20.51,20.39L105.13,56.24
		z"/>
	<path class="st8" d="M116.95,32.55l-9.8,33.52c0,0-69.19-2.04-61.41-42.28c0,0,0.11-15.24,19.45-16.57
		C65.19,7.21,95.75-1.12,116.95,32.55z"/>
</g>
</svg>
