<?xml version="1.0" encoding="utf-8"?>
<!-- Generator: Adobe Illustrator 25.0.1, SVG Export Plug-In . SVG Version: 6.00 Build 0)  -->
<svg version="1.1" id="Layer_1" xmlns="http://www.w3.org/2000/svg" xmlns:xlink="http://www.w3.org/1999/xlink" x="0px" y="0px"
	 viewBox="0 0 139.72 186.38" style="enable-background:new 0 0 139.72 186.38;" xml:space="preserve">
<style type="text/css">
	.st0{fill:#FCC3A2;}
	.st1{fill:#D1D3D4;}
	.st2{fill:#B73A44;}
	.st3{fill:#7E232A;}
	.st4{fill:none;stroke:#3C2415;stroke-width:2.2281;stroke-linecap:round;stroke-miterlimit:10;}
	.st5{fill:#CDA187;}
	.st6{fill:#FFFFFF;}
	.st7{fill:#DEAD91;}
	.st8{fill:#3C2415;}
	.st9{fill:#56362B;}
</style>
<g>
	<path class="st0" d="M80.73,149.7H69.86H58.99c0,0-56.09,7.64-58.99,31.78v4.9h69.86h69.86v-4.9
		C136.83,157.35,80.73,149.7,80.73,149.7z"/>
	<g>
		<path class="st0" d="M111.07,92.14c-0.94,4.99,0.84,9.5,3.98,10.09c3.14,0.59,6.44-2.97,7.38-7.96c0.94-4.99-0.85-9.51-3.98-10.09
			C115.3,83.59,112.01,87.15,111.07,92.14z"/>
		<path class="st1" d="M116.72,89.04c0,0,0.21,0.1,0.58,0.23c0.18,0.07,0.44,0.11,0.6,0.3c0.17,0.17,0.37,0.25,0.51,0.5
			c0.17,0.19,0.29,0.43,0.37,0.72c0.14,0.23,0.09,0.61,0.18,0.91c-0.01,0.68,0,1.43-0.21,2.19c-0.13,0.76-0.4,1.5-0.67,2.16
			c-0.28,0.67-0.64,1.2-0.99,1.61c-0.19,0.14-0.38,0.33-0.57,0.42c-0.19,0.03-0.41,0.18-0.57,0.12c-0.34-0.04-0.6-0.06-0.6-0.06
			s0.14,0.16,0.49,0.42c0.17,0.16,0.44,0.15,0.77,0.24c0.32,0.04,0.7-0.05,1.07-0.19c0.71-0.33,1.4-0.95,1.88-1.71
			c0.52-0.75,0.87-1.65,1.08-2.6c0.1-0.47,0.15-0.95,0.15-1.44c0.05-0.47-0.1-0.97-0.15-1.43c-0.17-0.47-0.27-0.92-0.59-1.29
			c-0.14-0.19-0.27-0.37-0.41-0.53c-0.18-0.13-0.36-0.25-0.53-0.36c-0.3-0.26-0.74-0.28-1.03-0.34c-0.32-0.08-0.53,0-0.73,0.03
			C116.94,88.97,116.72,89.04,116.72,89.04z"/>
	</g>
	<g>
		<path class="st0" d="M30.18,92.14c0.94,4.99-0.84,9.5-3.98,10.09c-3.14,0.59-6.44-2.97-7.38-7.96c-0.94-4.99,0.85-9.51,3.98-10.09
			C25.94,83.59,29.24,87.15,30.18,92.14z"/>
		<path class="st1" d="M24.53,89.04c0,0-0.21,0.1-0.58,0.23c-0.18,0.07-0.44,0.11-0.6,0.3c-0.17,0.17-0.37,0.25-0.51,0.5
			c-0.17,0.19-0.29,0.43-0.37,0.72c-0.14,0.23-0.09,0.61-0.18,0.91c0.01,0.68,0,1.43,0.21,2.19c0.13,0.76,0.39,1.5,0.67,2.16
			c0.28,0.67,0.64,1.2,1,1.61c0.19,0.14,0.38,0.33,0.57,0.42c0.19,0.03,0.41,0.18,0.57,0.12c0.34-0.04,0.6-0.06,0.6-0.06
			s-0.14,0.16-0.49,0.42c-0.17,0.16-0.44,0.15-0.77,0.24c-0.32,0.04-0.7-0.05-1.07-0.19c-0.71-0.33-1.4-0.95-1.88-1.71
			c-0.52-0.75-0.87-1.65-1.08-2.6c-0.1-0.47-0.15-0.95-0.15-1.44c-0.05-0.47,0.1-0.97,0.15-1.43c0.17-0.47,0.27-0.92,0.59-1.29
			c0.14-0.19,0.27-0.37,0.41-0.53c0.18-0.13,0.36-0.25,0.53-0.36c0.3-0.26,0.74-0.28,1.03-0.34c0.32-0.08,0.53,0,0.73,0.03
			C24.3,88.97,24.53,89.04,24.53,89.04z"/>
	</g>
	<rect x="58.99" y="135.36" class="st0" width="21.75" height="18.4"/>
	<path class="st1" d="M80.73,137.26v-1.9H58.99v14.14C62.6,141.72,71.97,137.57,80.73,137.26z"/>
	<path class="st0" d="M116.57,78.2c0,32.55-19.74,58.94-46.69,58.94c-26.95,0-46.18-27.35-46.18-59.91
		c-0.49-43.25,19.22-57.98,46.18-57.98C96.83,19.26,118.94,32.51,116.57,78.2z"/>
	<path class="st2" d="M83.77,150.19c-2.1,5.09-6.72,9.03-13.89,9.03c-7.18,0-11.8-3.95-13.89-9.04
		C44.33,152.17,2.49,160.71,0,181.48v4.9h139.72v-4.9C137.23,160.73,95.44,152.18,83.77,150.19z"/>
	<g>
		<path class="st3" d="M83.77,150.19c-2.1,5.09-6.72,9.03-13.89,9.03c-7.18,0-11.8-3.95-13.89-9.04c-1.21,0.21-2.77,0.49-4.57,0.85
			c2.32,7.89,9.69,13.79,18.25,13.79h0.21c8.57,0,15.95-5.92,18.26-13.83C86.42,150.65,84.94,150.39,83.77,150.19z"/>
	</g>
	<path class="st4" d="M37.34,68.8c0,0,5.94-10.88,17.15-2.93"/>
	<path class="st4" d="M102.38,68.8c0,0-5.94-10.88-17.15-2.93"/>
	<g>
		<path class="st5" d="M75.53,98.45c0,0,0.25,0.19,0.61,0.61c0.36,0.42,0.84,1.06,1.19,2c0.17,0.47,0.32,1.03,0.31,1.67
			c0,0.64-0.16,1.38-0.58,2.04c-0.41,0.66-1.04,1.2-1.69,1.52c-0.65,0.35-1.34,0.54-2.01,0.66c-0.67,0.11-1.32,0.16-1.96,0.15
			c-0.63,0.01-1.24-0.07-1.83-0.14c-1.16-0.18-2.21-0.44-3.08-0.76c-0.87-0.29-1.58-0.62-2.06-0.87c-0.48-0.24-0.75-0.41-0.75-0.41
			s0.32-0.05,0.85-0.08c0.54-0.02,1.3-0.06,2.19-0.07c0.87-0.01,1.89-0.03,2.99-0.04c0.53-0.02,1.08-0.03,1.62-0.07
			c0.54-0.04,1.08-0.09,1.58-0.19c1.02-0.17,1.88-0.5,2.33-1c0.48-0.48,0.66-1.33,0.66-2.15c-0.02-0.81-0.13-1.55-0.23-2.06
			C75.59,98.75,75.53,98.45,75.53,98.45z"/>
	</g>
	<g>
		<path class="st6" d="M57.08,115.93c2.72,5,7.58,8.35,13.14,8.35c5.56,0,10.42-3.35,13.14-8.35H57.08z"/>
		<g>
			<path class="st7" d="M57.08,115.93l1.23,1.64c0.45,0.51,0.92,0.99,1.36,1.48c0.49,0.45,1.01,0.88,1.51,1.31
				c0.54,0.39,1.11,0.73,1.64,1.11c0.58,0.31,1.17,0.59,1.75,0.88l1.84,0.63l1.9,0.36l1.92,0.08c-0.13,0-0.03,0-0.06,0l0.01,0
				l0.02,0l0.03,0l0.06-0.01l0.13-0.01l0.25-0.03l0.51-0.05l1.02-0.1l1.78-0.45l1.76-0.73c0.54-0.33,1.11-0.62,1.65-0.95
				c0.5-0.39,1.02-0.76,1.51-1.16c0.45-0.45,0.92-0.89,1.35-1.35l1.2-1.5l1.03-1.63l0.9,1.51c-4.38-0.02-8.76-0.1-13.14-0.26
				c-2.19-0.07-4.38-0.18-6.57-0.3C61.46,116.27,59.27,116.13,57.08,115.93z M57.08,115.93c2.19-0.2,4.38-0.34,6.57-0.47
				c2.19-0.12,4.38-0.23,6.57-0.3c4.38-0.16,8.76-0.25,13.14-0.26h0.05c0.55,0,1,0.44,1,0.99c0,0.19-0.05,0.37-0.15,0.52l-1.13,1.84
				c-0.43,0.58-0.89,1.14-1.35,1.69c-0.5,0.52-1.04,1.01-1.56,1.51c-0.56,0.46-1.16,0.87-1.74,1.3c-0.62,0.37-1.27,0.71-1.91,1.06
				c-0.68,0.27-1.37,0.51-2.05,0.76c-0.73,0.16-1.47,0.31-2.2,0.45l-2.11,0.11l-2.16-0.23l-2.09-0.54
				c-0.66-0.28-1.32-0.56-1.96-0.86c-0.61-0.38-1.22-0.73-1.8-1.13c-0.55-0.45-1.1-0.89-1.61-1.36c-0.47-0.52-0.96-1.02-1.4-1.55
				c-0.4-0.58-0.81-1.14-1.18-1.72L57.08,115.93z"/>
		</g>
	</g>
	<g>
		<path class="st8" d="M51.85,79.57c0,2.94-2.06,5.33-4.6,5.33c-2.54,0-4.6-2.39-4.6-5.33c0-2.94,2.06-5.33,4.6-5.33
			C49.79,74.24,51.85,76.63,51.85,79.57z"/>
		<g>
			<path class="st6" d="M45.85,77.43c0,1.18-0.96,2.14-2.14,2.14c-1.18,0-2.14-0.96-2.14-2.14c0-1.18,0.96-2.14,2.14-2.14
				C44.89,75.29,45.85,76.25,45.85,77.43z"/>
			<path class="st6" d="M45.75,80.54c0,0.56-0.46,1.02-1.02,1.02c-0.56,0-1.02-0.46-1.02-1.02c0-0.56,0.46-1.02,1.02-1.02
				C45.29,79.53,45.75,79.98,45.75,80.54z"/>
		</g>
	</g>
	<g>
		<path class="st8" d="M88.06,79.57c0,2.94,2.06,5.33,4.6,5.33c2.54,0,4.6-2.39,4.6-5.33c0-2.94-2.06-5.33-4.6-5.33
			C90.12,74.24,88.06,76.63,88.06,79.57z"/>
		<g>
			<path class="st6" d="M94.06,77.43c0,1.18,0.96,2.14,2.14,2.14c1.18,0,2.14-0.96,2.14-2.14c0-1.18-0.96-2.14-2.14-2.14
				C95.02,75.29,94.06,76.25,94.06,77.43z"/>
			<path class="st6" d="M94.17,80.54c0,0.56,0.46,1.02,1.02,1.02c0.56,0,1.02-0.46,1.02-1.02c0-0.56-0.45-1.02-1.02-1.02
				C94.62,79.53,94.17,79.98,94.17,80.54z"/>
		</g>
	</g>
	<path class="st9" d="M108.22,12.86c0,0,8.33,7.35,17-3.65c0,0-0.99,10.58-7.16,14.46c0,0,5.83,5.76,12.83-0.18c0,0,2,7.39-6,14.39
		c0,0,1.35,20.41-4.1,40.32l-2.34,5.98l-2.16,0.73l-1.16,8.3h-2.24l2.45-27.32c0,0,2.23-32.34-27.27-33.34
		c0,0-13.19-2.36-15.51,7.32c0,0-0.44-9.99-18.05-7.32c0,0-8.57-13.29,4.5-25C58.99,7.55,79.88-8.5,108.22,12.86z"/>
	<path class="st9" d="M32.74,12.86C61.07-8.5,89.22,3.19,89.22,3.19c13.07,11.71-2.76,29.35-2.76,29.35
		c-12.41-1.33-13.92,7.32-13.92,7.32c-0.16-10.49-19.64-7.32-19.64-7.32c-24.51,1.17-25.35,33.34-25.35,33.34l0.52,27.32h-2.23
		l-1.17-8.3l-2.16-0.73C22.51,84.18,7.92,31.84,32.74,12.86z"/>
</g>
</svg>
