<?xml version="1.0" encoding="utf-8"?>
<!-- Generator: Adobe Illustrator 25.0.1, SVG Export Plug-In . SVG Version: 6.00 Build 0)  -->
<svg version="1.1" id="Layer_1" xmlns="http://www.w3.org/2000/svg" xmlns:xlink="http://www.w3.org/1999/xlink" x="0px" y="0px"
	 viewBox="0 0 259.3 162" style="enable-background:new 0 0 259.3 162;" xml:space="preserve">
<style type="text/css">
	.st0{opacity:0.55;clip-path:url(#SVGID_1_);fill:none;stroke:url(#SVGID_2_);stroke-width:1.2998;stroke-miterlimit:10;}
	.st1{opacity:0.55;clip-path:url(#SVGID_1_);fill:none;stroke:url(#SVGID_3_);stroke-width:1.2045;stroke-miterlimit:10;}
	.st2{opacity:0.55;clip-path:url(#SVGID_1_);fill:none;stroke:url(#SVGID_4_);stroke-width:1.2998;stroke-miterlimit:10;}
	.st3{opacity:0.55;clip-path:url(#SVGID_1_);fill:none;stroke:url(#SVGID_5_);stroke-width:1.2007;stroke-miterlimit:10;}
	.st4{opacity:0.55;clip-path:url(#SVGID_1_);fill:none;stroke:url(#SVGID_6_);stroke-width:1.2998;stroke-miterlimit:10;}
	.st5{opacity:0.55;clip-path:url(#SVGID_1_);fill:none;stroke:url(#SVGID_7_);stroke-width:1.1812;stroke-miterlimit:10;}
	.st6{opacity:0.55;clip-path:url(#SVGID_1_);fill:none;stroke:url(#SVGID_8_);stroke-width:0.8567;stroke-miterlimit:10;}
	.st7{opacity:0.55;clip-path:url(#SVGID_1_);fill:none;stroke:url(#SVGID_9_);stroke-width:0.9945;stroke-miterlimit:10;}
	.st8{clip-path:url(#SVGID_1_);fill:url(#SVGID_10_);}
	.st9{opacity:0.55;clip-path:url(#SVGID_1_);fill:none;stroke:url(#SVGID_11_);stroke-width:0.9945;stroke-miterlimit:10;}
	.st10{opacity:0.55;clip-path:url(#SVGID_1_);fill:none;stroke:url(#SVGID_12_);stroke-width:0.8805;stroke-miterlimit:10;}
	.st11{opacity:0.55;clip-path:url(#SVGID_1_);fill:none;stroke:url(#SVGID_13_);stroke-width:0.9945;stroke-miterlimit:10;}
	.st12{opacity:0.55;clip-path:url(#SVGID_1_);fill:none;stroke:url(#SVGID_14_);stroke-width:0.4515;stroke-miterlimit:10;}
	.st13{opacity:0.55;clip-path:url(#SVGID_1_);fill:none;stroke:url(#SVGID_15_);stroke-width:0.5652;stroke-miterlimit:10;}
	.st14{opacity:0.55;clip-path:url(#SVGID_1_);fill:none;stroke:url(#SVGID_16_);stroke-width:0.5652;stroke-miterlimit:10;}
	.st15{opacity:0.69;clip-path:url(#SVGID_1_);fill:url(#SVGID_17_);}
	.st16{clip-path:url(#SVGID_1_);fill:url(#SVGID_18_);}
	.st17{clip-path:url(#SVGID_1_);fill:url(#SVGID_19_);}
</style>
<g>
	<defs>
		<path id="SVGID_21_" d="M247.6,0L11.7,0C5.2,0,0,5.2,0,11.7l0,138.6c0,6.5,5.2,11.7,11.7,11.7l235.9,0c6.5,0,11.7-5.2,11.7-11.7
			l0-138.6C259.3,5.2,254,0,247.6,0z"/>
	</defs>
	<clipPath id="SVGID_1_">
		<use xlink:href="#SVGID_21_"  style="overflow:visible;"/>
	</clipPath>
	
		<linearGradient id="SVGID_2_" gradientUnits="userSpaceOnUse" x1="4822.9751" y1="-744.3843" x2="4854.0273" y2="-555.5553" gradientTransform="matrix(0.4711 -0.882 0.882 0.4711 -1426.8082 4585.7529)">
		<stop  offset="0" style="stop-color:#7FD1E0"/>
		<stop  offset="1" style="stop-color:#18164D;stop-opacity:0"/>
	</linearGradient>
	<ellipse transform="matrix(0.7071 -0.7071 0.7071 0.7071 73.4307 201.1736)" class="st0" cx="279.6" cy="11.9" rx="95" ry="95"/>
	
		<linearGradient id="SVGID_3_" gradientUnits="userSpaceOnUse" x1="4824.1133" y1="-737.4614" x2="4852.8887" y2="-562.478" gradientTransform="matrix(0.4711 -0.882 0.882 0.4711 -1426.8082 4585.7529)">
		<stop  offset="0" style="stop-color:#7FD1E0"/>
		<stop  offset="1" style="stop-color:#18164D;stop-opacity:0"/>
	</linearGradient>
	
		<ellipse transform="matrix(0.7071 -0.7071 0.7071 0.7071 73.4306 201.1736)" class="st1" cx="279.6" cy="11.9" rx="88.1" ry="88.1"/>
	
		<linearGradient id="SVGID_4_" gradientUnits="userSpaceOnUse" x1="4685.7207" y1="-735.2073" x2="4716.7729" y2="-546.3784" gradientTransform="matrix(0.4711 -0.882 0.882 0.4711 -1426.8082 4585.7529)">
		<stop  offset="0" style="stop-color:#7FD1E0"/>
		<stop  offset="1" style="stop-color:#18164D;stop-opacity:0"/>
	</linearGradient>
	<ellipse transform="matrix(0.7071 -0.7071 0.7071 0.7071 -31.798 197.8943)" class="st2" cx="223" cy="137.3" rx="95" ry="95"/>
	
		<linearGradient id="SVGID_5_" gradientUnits="userSpaceOnUse" x1="4686.9038" y1="-728.0125" x2="4715.5894" y2="-553.5732" gradientTransform="matrix(0.4711 -0.882 0.882 0.4711 -1426.8082 4585.7529)">
		<stop  offset="0" style="stop-color:#7FD1E0"/>
		<stop  offset="1" style="stop-color:#18164D;stop-opacity:0"/>
	</linearGradient>
	
		<ellipse transform="matrix(0.7071 -0.7071 0.7071 0.7071 -31.798 197.8944)" class="st3" cx="223" cy="137.3" rx="87.8" ry="87.8"/>
	
		<linearGradient id="SVGID_6_" gradientUnits="userSpaceOnUse" x1="6073.4922" y1="2758.6926" x2="6104.5444" y2="2947.5222" gradientTransform="matrix(-0.6961 -0.7178 0.7178 -0.6961 2310.749 6319.9688)">
		<stop  offset="0" style="stop-color:#7FD1E0"/>
		<stop  offset="1" style="stop-color:#18164D;stop-opacity:0"/>
	</linearGradient>
	<ellipse transform="matrix(0.7071 -0.7071 0.7071 0.7071 61.4199 74.0128)" class="st4" cx="120.1" cy="-37.1" rx="95" ry="95"/>
	
		<linearGradient id="SVGID_7_" gradientUnits="userSpaceOnUse" x1="6074.9082" y1="2767.304" x2="6103.1284" y2="2938.9106" gradientTransform="matrix(-0.6961 -0.7178 0.7178 -0.6961 2310.749 6319.9688)">
		<stop  offset="0" style="stop-color:#7FD1E0"/>
		<stop  offset="1" style="stop-color:#18164D;stop-opacity:0"/>
	</linearGradient>
	<circle class="st5" cx="120.1" cy="-37.1" r="86.4"/>
	
		<linearGradient id="SVGID_8_" gradientUnits="userSpaceOnUse" x1="2425.7087" y1="-1456.3257" x2="2446.1741" y2="-1331.876" gradientTransform="matrix(0.945 -0.3271 0.3271 0.945 -1687.4894 2296.6482)">
		<stop  offset="0" style="stop-color:#7FD1E0"/>
		<stop  offset="1" style="stop-color:#18164D;stop-opacity:0"/>
	</linearGradient>
	
		<ellipse transform="matrix(0.7071 -0.7071 0.7071 0.7071 -82.6401 165.5583)" class="st6" cx="158.5" cy="182.5" rx="62.6" ry="62.6"/>
	
		<linearGradient id="SVGID_9_" gradientUnits="userSpaceOnUse" x1="-448.3894" y1="1411.3719" x2="-427.901" y2="1535.962" gradientTransform="matrix(0.5205 0.8538 -0.8538 0.5205 1501.7721 -375.2242)">
		<stop  offset="0" style="stop-color:#7FD1E0"/>
		<stop  offset="1" style="stop-color:#18164D;stop-opacity:0"/>
	</linearGradient>
	<ellipse transform="matrix(0.7071 -0.7071 0.7071 0.7071 -7.9567 16.1043)" class="st7" cx="15.5" cy="17.7" rx="62.6" ry="62.6"/>
	
		<linearGradient id="SVGID_10_" gradientUnits="userSpaceOnUse" x1="1433.6106" y1="-984.5515" x2="1436.0913" y2="-925.9175" gradientTransform="matrix(0.9992 -4.144144e-02 4.144144e-02 0.9992 -1336.0151 1030.1724)">
		<stop  offset="0" style="stop-color:#18164D"/>
		<stop  offset="1" style="stop-color:#18164D;stop-opacity:0"/>
	</linearGradient>
	<path class="st8" d="M62.9-23.2c-8-9.3-18.2-15.7-29.1-19c-1.6,28.1,10.5,56.4,34.8,74.5c2.1,1.6,4.3,3,6.5,4.4
		C81.5,16.6,77.6-6.1,62.9-23.2z"/>
	
		<linearGradient id="SVGID_11_" gradientUnits="userSpaceOnUse" x1="-444.7769" y1="1723.394" x2="-421.0195" y2="1867.8625" gradientTransform="matrix(0.4545 0.8907 -0.8907 0.4545 1818.8545 -314.0105)">
		<stop  offset="0" style="stop-color:#7FD1E0"/>
		<stop  offset="1" style="stop-color:#18164D;stop-opacity:0"/>
	</linearGradient>
	
		<ellipse transform="matrix(0.1569 -0.9876 0.9876 0.1569 -95.9721 120.6896)" class="st9" cx="22.7" cy="116.6" rx="72.7" ry="72.7"/>
	
		<linearGradient id="SVGID_12_" gradientUnits="userSpaceOnUse" x1="-443.4155" y1="1731.6727" x2="-422.3809" y2="1859.5839" gradientTransform="matrix(0.4545 0.8907 -0.8907 0.4545 1818.8545 -314.0105)">
		<stop  offset="0" style="stop-color:#7FD1E0"/>
		<stop  offset="1" style="stop-color:#18164D;stop-opacity:0"/>
	</linearGradient>
	
		<ellipse transform="matrix(0.7071 -0.7071 0.7071 0.7071 -75.7691 50.1947)" class="st10" cx="22.7" cy="116.6" rx="64.4" ry="64.4"/>
	
		<linearGradient id="SVGID_13_" gradientUnits="userSpaceOnUse" x1="-443.2794" y1="1731.5925" x2="-422.2264" y2="1859.6162" gradientTransform="matrix(0.4545 0.8907 -0.8907 0.4545 1818.8545 -314.0105)">
		<stop  offset="0" style="stop-color:#7FD1E0"/>
		<stop  offset="1" style="stop-color:#18164D;stop-opacity:0"/>
	</linearGradient>
	<path class="st11" d="M74.5,78.4c-4.5-6.2-10-11.3-16-15.3c-0.7,0.7-1.5,1.4-2.3,2C34.1,84.2,2.3,85-20.6,68.9
		c-24.2,21.9-28.3,59-8.6,85.8c21.1,28.6,61.4,34.7,90,13.7C89.5,147.3,95.6,107,74.5,78.4z"/>
	
		<linearGradient id="SVGID_14_" gradientUnits="userSpaceOnUse" x1="-425.9821" y1="1784.5635" x2="-415.1957" y2="1850.1561" gradientTransform="matrix(0.4545 0.8907 -0.8907 0.4545 1818.8545 -314.0105)">
		<stop  offset="0" style="stop-color:#7FD1E0"/>
		<stop  offset="1" style="stop-color:#18164D;stop-opacity:0"/>
	</linearGradient>
	<ellipse transform="matrix(0.8934 -0.4493 0.4493 0.8934 -60.7838 18.6702)" class="st12" cx="8.9" cy="137.4" rx="33" ry="33"/>
	
		<linearGradient id="SVGID_15_" gradientUnits="userSpaceOnUse" x1="3330.4438" y1="4797.9707" x2="3343.947" y2="4880.083" gradientTransform="matrix(-0.9473 0.3204 -0.3204 -0.9473 4827.9243 3502.8337)">
		<stop  offset="0" style="stop-color:#7FD1E0"/>
		<stop  offset="1" style="stop-color:#18164D;stop-opacity:0"/>
	</linearGradient>
	
		<ellipse transform="matrix(0.2704 -0.9628 0.9628 0.2704 96.0881 103.2627)" class="st13" cx="116.2" cy="-11.8" rx="41.3" ry="41.3"/>
	
		<linearGradient id="SVGID_16_" gradientUnits="userSpaceOnUse" x1="-59.5185" y1="2985.0361" x2="-46.0154" y2="3067.1487" gradientTransform="matrix(-1.821382e-02 0.9998 -0.9998 -1.821382e-02 3179.8464 276.4166)">
		<stop  offset="0" style="stop-color:#7FD1E0"/>
		<stop  offset="1" style="stop-color:#18164D;stop-opacity:0"/>
	</linearGradient>
	
		<ellipse transform="matrix(0.4386 -0.8987 0.8987 0.4386 -64.3327 234.0955)" class="st14" cx="155.2" cy="168.5" rx="41.3" ry="41.3"/>
	
		<linearGradient id="SVGID_17_" gradientUnits="userSpaceOnUse" x1="1507.2218" y1="-783.2026" x2="1527.5243" y2="-830.4139" gradientTransform="matrix(0.9992 -4.144144e-02 4.144144e-02 0.9992 -1336.0151 1030.1724)">
		<stop  offset="0" style="stop-color:#18164D"/>
		<stop  offset="1" style="stop-color:#18164D;stop-opacity:0"/>
	</linearGradient>
	<path class="st15" d="M127.9,137.5c-10.1,8.9-15.7,22.6-13.6,37c3.3,22.5,24.2,38.2,46.7,34.9C140.2,191.5,128,165.2,127.9,137.5z"
		/>
	
		<linearGradient id="SVGID_18_" gradientUnits="userSpaceOnUse" x1="1642.8724" y1="-862.1926" x2="1594.7229" y2="-935.5212" gradientTransform="matrix(0.9992 -4.144144e-02 4.144144e-02 0.9992 -1336.0151 1030.1724)">
		<stop  offset="0" style="stop-color:#18164D"/>
		<stop  offset="1" style="stop-color:#18164D;stop-opacity:0"/>
	</linearGradient>
	<path class="st16" d="M251.2,54.2c-16.7-5.7-34-6-50-1.9c10.1,19.6,27.5,35.4,49.9,43.1c16.7,5.7,34,6,49.9,2
		C291.1,77.7,273.7,61.9,251.2,54.2z"/>
	
		<linearGradient id="SVGID_19_" gradientUnits="userSpaceOnUse" x1="1354.1272" y1="-906.9375" x2="1433.4374" y2="-906.9375" gradientTransform="matrix(0.9992 -4.144144e-02 4.144144e-02 0.9992 -1336.0151 1030.1724)">
		<stop  offset="0" style="stop-color:#18164D"/>
		<stop  offset="1" style="stop-color:#18164D;stop-opacity:0"/>
	</linearGradient>
	<path class="st17" d="M56.3,65.1c0.8-0.7,1.5-1.4,2.3-2C36.7,48.4,7,48.2-15.5,64.7c-1.8,1.3-3.5,2.7-5.1,4.2
		C2.3,85,34.1,84.2,56.3,65.1z"/>
</g>
</svg>
