<?xml version="1.0" standalone="no"?>
<!DOCTYPE svg PUBLIC "-//W3C//DTD SVG 20010904//EN"
 "http://www.w3.org/TR/2001/REC-SVG-20010904/DTD/svg10.dtd">
<svg version="1.0" xmlns="http://www.w3.org/2000/svg"
 width="1744.000000pt" height="1744.000000pt" viewBox="0 0 1744.000000 1744.000000"
 preserveAspectRatio="xMidYMid meet">
<metadata>
Created by potrace 1.14, written by Peter Selinger 2001-2017
</metadata>
<g transform="translate(0.000000,1744.000000) scale(0.100000,-0.100000)"
fill="#000000" stroke="none">
<path d="M11735 17262 c-3 -3 -47 -6 -227 -15 -21 -1 -38 -4 -38 -7 0 -3 -10
-5 -22 -6 -13 0 -39 -3 -58 -7 -19 -4 -48 -9 -65 -12 -16 -3 -70 -16 -120 -27
-49 -12 -93 -21 -97 -20 -5 1 -8 -3 -8 -10 0 -6 -3 -9 -6 -6 -3 4 -20 2 -37
-3 -18 -6 -40 -12 -51 -14 -10 -2 -24 -9 -30 -15 -7 -5 -15 -8 -18 -5 -3 3
-47 -10 -98 -29 -51 -20 -106 -38 -122 -41 -15 -4 -28 -11 -28 -16 0 -5 -3 -8
-7 -7 -8 1 -21 -3 -83 -30 -19 -8 -39 -16 -45 -17 -5 -2 -35 -14 -65 -28 -51
-23 -88 -39 -100 -41 -3 -1 -14 -7 -25 -13 -11 -6 -84 -38 -162 -72 -79 -33
-162 -70 -185 -80 -89 -41 -124 -55 -141 -56 -9 -1 -26 -10 -37 -20 -11 -10
-20 -15 -20 -12 0 3 -50 -16 -110 -43 -61 -27 -114 -50 -118 -50 -4 -1 -27
-10 -52 -21 -25 -11 -88 -38 -140 -60 -52 -22 -115 -50 -140 -61 -25 -11 -49
-21 -55 -22 -5 -1 -27 -10 -47 -19 -21 -9 -55 -24 -75 -33 -21 -8 -47 -19 -58
-24 -167 -72 -220 -93 -231 -93 -8 0 -14 -3 -14 -7 0 -3 -17 -12 -37 -19 -21
-8 -60 -24 -88 -36 -48 -21 -85 -37 -95 -40 -3 -1 -18 -7 -35 -14 -16 -8 -39
-17 -50 -22 -39 -16 -120 -50 -140 -59 -11 -5 -103 -44 -205 -86 -102 -41
-198 -82 -215 -89 -30 -13 -262 -109 -300 -125 -11 -4 -45 -19 -75 -33 -30
-13 -66 -28 -80 -32 -14 -4 -38 -15 -55 -23 -16 -9 -34 -16 -40 -17 -5 -1 -32
-11 -58 -23 -27 -12 -51 -22 -53 -22 -3 0 -24 -9 -48 -19 -23 -11 -67 -30 -97
-41 -30 -12 -67 -27 -84 -34 -16 -7 -52 -23 -80 -34 -27 -12 -57 -23 -65 -24
-8 -2 -17 -5 -20 -8 -3 -3 -52 -25 -110 -49 -58 -24 -118 -49 -135 -56 -168
-72 -332 -138 -342 -138 -7 0 -13 -4 -13 -9 0 -4 -5 -8 -11 -8 -6 0 -27 -7
-47 -16 -21 -9 -46 -20 -57 -25 -101 -44 -185 -76 -189 -71 -4 3 -6 0 -6 -7 0
-7 -4 -9 -10 -6 -5 3 -10 2 -10 -3 0 -5 -6 -9 -12 -9 -13 -1 -179 -68 -255
-103 -24 -11 -45 -20 -48 -20 -9 0 -95 -38 -127 -56 -16 -8 -28 -13 -28 -10 0
3 -9 -3 -20 -14 -11 -11 -27 -20 -35 -20 -8 0 -15 -4 -15 -8 0 -4 -27 -24 -60
-43 -33 -18 -60 -37 -60 -41 0 -5 -6 -8 -14 -8 -8 0 -16 -3 -18 -7 -4 -10
-117 -94 -120 -91 -2 1 -16 -10 -33 -25 -16 -15 -64 -55 -105 -88 -41 -34 -85
-71 -98 -83 -49 -44 -248 -246 -269 -273 -12 -15 -33 -40 -46 -55 -13 -15 -32
-39 -43 -54 -10 -15 -27 -35 -37 -46 -9 -10 -14 -18 -11 -18 3 0 -1 -7 -10
-15 -24 -25 -119 -183 -162 -270 -21 -44 -42 -82 -47 -83 -4 -2 -4 -8 -1 -13
3 -6 0 -16 -6 -24 -7 -8 -9 -15 -5 -15 4 0 3 -6 -3 -12 -12 -16 -58 -170 -66
-223 -4 -22 -9 -51 -12 -65 -4 -14 -8 -665 -9 -1448 -3 -1079 0 -1420 8 -1415
7 4 6 -1 -2 -10 -10 -13 -10 -17 -1 -17 8 0 9 -4 3 -12 -16 -21 -7 -346 11
-406 3 -9 8 -32 11 -51 3 -19 10 -42 16 -52 5 -11 7 -19 5 -19 -3 0 3 -20 14
-45 11 -25 19 -48 19 -51 -1 -7 73 -158 80 -164 3 -3 12 -17 20 -32 8 -16 18
-28 23 -28 4 0 8 -5 8 -11 0 -25 189 -226 239 -253 9 -5 23 -17 31 -26 38 -41
311 -196 324 -183 3 3 6 1 6 -5 0 -6 9 -14 20 -17 11 -3 64 -27 117 -53 54
-25 104 -45 111 -43 6 1 12 -2 12 -7 0 -5 21 -17 48 -27 26 -10 76 -32 112
-49 36 -16 67 -30 70 -31 3 0 22 -8 43 -18 43 -20 61 -28 222 -97 66 -29 139
-61 163 -71 93 -42 158 -70 172 -74 3 -1 31 -13 64 -28 32 -15 60 -27 61 -27
1 0 20 -8 41 -17 22 -9 41 -17 44 -18 3 -1 28 -12 55 -24 90 -40 282 -122 295
-126 3 -1 35 -15 72 -32 37 -17 78 -34 90 -38 13 -4 43 -16 68 -28 25 -12 47
-22 50 -23 7 -1 49 -19 103 -42 53 -24 76 -32 81 -29 2 1 13 -7 25 -17 12 -11
21 -16 21 -11 0 4 7 2 15 -5 8 -7 15 -10 15 -6 0 3 17 -3 38 -13 20 -11 109
-50 197 -86 88 -37 178 -75 200 -85 22 -10 57 -23 78 -31 20 -7 37 -17 37 -23
0 -5 3 -7 6 -4 5 5 68 -18 139 -52 19 -9 74 -32 85 -35 3 -1 23 -9 45 -19 22
-9 78 -33 125 -53 47 -19 96 -40 110 -46 14 -6 27 -11 30 -12 3 -1 23 -9 45
-19 22 -10 63 -27 90 -38 28 -11 66 -26 85 -35 19 -8 44 -19 55 -24 11 -4 50
-21 88 -38 37 -16 67 -28 67 -26 0 3 17 -4 38 -15 31 -16 81 -38 102 -45 14
-5 67 -27 85 -35 20 -9 95 -42 105 -45 24 -9 174 -72 219 -93 18 -8 39 -15 47
-15 8 0 14 -4 14 -9 0 -5 4 -7 9 -3 5 3 17 -2 25 -11 9 -8 16 -13 16 -10 0 3
19 -3 43 -13 41 -19 296 -125 532 -223 66 -28 140 -59 165 -70 25 -11 50 -21
55 -23 12 -2 51 -18 108 -44 110 -49 136 -59 141 -53 3 3 6 -1 6 -8 0 -7 3
-10 6 -7 4 4 19 0 33 -8 14 -8 71 -32 126 -55 55 -22 109 -45 120 -50 11 -5
76 -32 145 -60 130 -53 141 -58 202 -84 20 -9 39 -16 42 -16 3 0 29 -11 58
-24 128 -58 149 -66 163 -66 8 0 15 -5 15 -10 0 -6 3 -9 8 -9 4 1 10 0 15 -1
4 -1 10 -3 15 -4 4 -1 23 -9 42 -17 19 -9 60 -26 90 -39 30 -13 74 -31 97 -41
24 -11 45 -19 48 -19 2 0 34 -14 70 -30 36 -17 70 -30 75 -30 6 0 18 -4 28 -9
68 -34 105 -51 113 -51 9 0 47 -16 147 -61 23 -10 49 -19 57 -19 8 0 15 -4 15
-10 0 -5 7 -10 16 -10 16 0 182 -68 234 -95 14 -7 27 -13 30 -13 3 0 23 -7 45
-17 22 -9 63 -25 90 -36 52 -21 62 -25 185 -82 219 -101 366 -116 462 -48 31
22 64 77 74 124 1 4 2 10 4 15 6 22 4 372 -3 372 -5 0 -5 4 -2 10 9 15 12 81
4 86 -5 3 -4 16 1 29 5 14 6 25 2 25 -6 0 -10 171 -15 708 -1 67 -4 122 -7
122 -4 0 -3 24 0 54 3 30 3 63 0 73 -8 23 -5 921 3 949 18 67 29 204 16 204
-4 0 -6 8 -5 17 7 47 -47 178 -98 238 -56 66 -161 154 -211 176 -11 5 -27 13
-35 18 -14 9 -36 19 -140 64 -19 9 -61 27 -93 41 -32 14 -60 26 -63 26 -3 0
-35 13 -71 30 -35 16 -66 30 -68 30 -3 0 -28 11 -57 24 -29 13 -93 40 -143 61
-49 20 -108 45 -130 55 -22 9 -69 30 -105 45 -36 15 -78 33 -95 41 -16 7 -91
38 -165 69 -74 31 -148 63 -164 71 -16 8 -35 14 -43 14 -7 0 -13 5 -13 10 0 6
-3 9 -7 9 -5 -1 -11 0 -15 1 -5 1 -11 3 -15 4 -5 1 -30 12 -57 24 -28 13 -60
25 -73 28 -13 4 -23 10 -23 15 0 5 -6 9 -14 9 -17 0 -295 118 -313 132 -7 6
-13 8 -13 5 0 -6 -46 12 -125 48 -16 8 -59 26 -95 40 -36 15 -81 34 -100 42
-19 8 -46 20 -60 25 -14 6 -32 14 -41 18 -8 4 -51 22 -95 40 -43 18 -107 45
-142 61 -34 16 -68 29 -76 29 -8 0 -16 4 -18 10 -2 5 -12 11 -23 13 -11 2 -38
12 -60 22 -22 10 -42 19 -45 20 -9 3 -62 25 -254 106 -105 44 -200 84 -211 89
-11 4 -46 20 -78 34 -32 14 -60 26 -62 26 -3 0 -24 9 -48 19 -23 11 -98 43
-167 71 -69 29 -130 56 -136 61 -7 6 -21 11 -31 13 -11 2 -37 12 -59 22 -21 9
-41 18 -44 18 -3 1 -34 14 -70 29 -36 16 -76 33 -90 39 -14 6 -33 14 -42 19
-10 5 -25 9 -33 9 -8 0 -15 5 -15 10 0 6 -8 10 -18 10 -10 0 -23 5 -30 12 -7
7 -12 8 -12 4 0 -5 -10 -2 -22 6 -13 8 -56 27 -96 43 -40 16 -75 32 -78 37 -3
4 -12 8 -20 8 -9 0 -41 12 -72 26 -31 15 -91 40 -132 56 -41 17 -79 33 -85 37
-17 12 -159 66 -167 63 -5 -1 -8 2 -8 7 0 5 -24 17 -52 27 -29 9 -57 20 -63
23 -5 4 -41 20 -80 36 -38 15 -94 39 -123 52 -29 12 -55 23 -57 23 -2 0 -28
11 -57 24 -54 24 -89 38 -98 41 -3 0 -27 11 -55 24 -27 12 -54 24 -60 25 -13
4 -47 18 -110 46 -28 12 -59 26 -70 30 -11 4 -36 15 -55 23 -19 8 -138 59
-265 112 -126 52 -244 102 -262 110 -17 8 -33 15 -36 15 -2 0 -31 12 -63 27
-33 15 -61 28 -64 28 -3 0 -55 22 -117 48 -62 26 -117 47 -123 47 -5 0 -10 5
-10 10 0 6 -7 10 -15 10 -8 0 -34 9 -58 19 -23 11 -52 22 -64 26 -13 3 -23 10
-23 14 0 7 43 31 65 37 6 1 43 16 83 33 76 33 123 53 132 56 3 1 19 7 35 14
17 6 55 22 85 34 30 12 57 25 60 29 3 4 15 9 25 11 11 3 36 10 55 18 19 7 38
12 43 11 4 -1 7 2 7 8 0 5 9 10 19 10 11 0 22 4 25 9 3 5 17 12 31 15 14 4 49
17 78 30 28 13 95 40 147 61 52 21 113 46 135 55 41 17 76 32 85 35 10 3 61
25 103 43 50 23 78 34 92 38 6 1 75 30 155 64 80 34 150 63 155 64 11 3 75 30
115 48 14 6 30 12 35 14 10 2 384 157 420 174 31 15 79 33 94 36 8 1 18 9 22
16 5 7 9 10 9 6 0 -7 27 3 115 42 39 16 75 31 85 35 3 1 17 7 31 13 15 6 105
43 200 82 96 40 193 81 216 91 23 11 44 19 46 19 3 0 26 10 53 22 27 12 51 23
54 23 9 3 44 17 75 30 17 7 41 18 55 23 14 6 45 19 70 30 235 100 326 136 333
134 4 -1 7 3 7 8 0 6 7 10 16 10 8 0 40 11 70 25 30 14 61 25 68 25 7 0 19 7
26 15 7 8 16 13 20 10 4 -2 16 2 26 10 10 8 25 15 32 15 11 0 41 12 127 50 11
5 43 18 70 30 28 12 64 27 80 34 17 7 46 19 65 27 19 7 51 21 70 30 19 10 37
15 40 13 2 -3 5 -363 6 -802 1 -438 5 -810 8 -827 3 -16 8 -48 11 -70 19 -131
124 -393 181 -450 9 -8 13 -15 10 -15 -8 0 36 -51 87 -102 83 -83 185 -145
402 -243 33 -15 93 -42 133 -61 40 -19 76 -34 79 -34 9 0 97 -42 103 -49 3 -3
13 -7 24 -9 17 -3 40 -13 166 -70 19 -9 37 -17 40 -17 5 0 117 -47 195 -81 22
-10 45 -18 50 -20 6 -1 30 -11 55 -22 25 -12 124 -53 220 -92 96 -39 185 -75
198 -80 12 -6 32 -14 45 -19 12 -4 36 -14 52 -21 34 -14 47 -19 130 -51 33
-13 64 -27 70 -31 5 -4 17 -8 27 -8 10 0 18 -3 18 -8 0 -8 67 -47 81 -47 4 0
14 -6 20 -12 7 -7 20 -13 29 -13 9 0 20 -3 24 -7 28 -28 215 -40 224 -14 2 6
9 11 16 11 13 0 52 41 48 53 -1 4 2 7 8 7 5 0 10 7 10 15 0 8 5 15 10 15 6 0
9 3 8 8 -1 4 2 18 5 32 4 14 9 43 13 65 7 47 7 5185 0 5260 -16 162 -18 174
-37 290 -6 39 -18 95 -26 125 -8 30 -19 72 -24 92 -41 168 -157 383 -261 485
-58 58 -172 153 -182 153 -4 0 -17 9 -29 21 -12 11 -43 32 -69 46 -27 15 -48
31 -48 36 0 6 -3 8 -6 4 -3 -3 -23 4 -43 17 -20 12 -58 33 -86 45 -27 12 -62
29 -77 37 -15 8 -30 14 -33 14 -3 -1 -40 10 -83 23 -102 33 -135 41 -207 51
-16 2 -37 6 -45 9 -8 3 -22 5 -30 6 -28 0 -175 10 -175 11 0 3 -77 5 -80 2z"/>
<path d="M4189 7188 c-1 -2 -3 -111 -4 -244 -1 -132 -5 -246 -9 -252 -4 -7 -3
-12 3 -12 7 0 7 -8 1 -24 -5 -13 -6 -27 -2 -30 9 -10 10 -46 0 -46 -5 0 -4 -9
2 -19 6 -12 6 -22 1 -26 -6 -3 -6 -17 -1 -34 4 -16 6 -32 3 -35 -8 -8 -7 -141
1 -155 4 -6 4 -11 -1 -11 -9 0 -8 -1397 1 -1475 3 -27 8 -66 10 -85 3 -19 7
-53 10 -75 3 -22 8 -51 11 -65 3 -14 7 -36 10 -50 3 -14 7 -36 10 -50 3 -14 7
-34 9 -46 8 -41 47 -169 57 -187 5 -10 7 -22 4 -27 -4 -6 -1 -10 6 -10 7 0 10
-3 6 -6 -3 -4 3 -24 13 -45 11 -21 20 -45 20 -52 0 -8 7 -20 15 -27 8 -7 12
-16 9 -21 -3 -5 0 -9 5 -9 6 0 11 -6 11 -12 0 -7 22 -47 49 -89 78 -122 171
-207 309 -282 17 -10 32 -16 32 -12 0 3 13 -1 29 -10 17 -8 38 -17 48 -18 10
-2 29 -9 43 -14 14 -6 61 -25 105 -43 44 -18 91 -37 105 -43 14 -6 28 -11 33
-12 4 -2 10 -4 15 -5 4 -1 10 -2 15 -1 4 0 7 -4 7 -9 0 -6 6 -10 14 -10 7 0
35 -9 62 -21 27 -11 58 -24 69 -29 11 -4 41 -17 67 -29 26 -12 50 -21 52 -21
3 0 54 -21 113 -46 59 -25 146 -61 193 -81 89 -37 129 -54 183 -77 17 -8 61
-27 97 -41 36 -15 84 -36 107 -46 44 -20 94 -41 103 -44 3 -1 21 -8 40 -17 19
-8 64 -27 100 -42 36 -15 83 -35 105 -45 22 -10 69 -31 105 -46 36 -15 87 -38
114 -51 28 -12 53 -21 58 -18 4 3 8 0 8 -5 0 -6 6 -11 13 -11 7 0 37 -11 65
-25 29 -14 54 -25 57 -25 2 0 28 -11 57 -24 29 -13 87 -38 128 -56 41 -18 91
-39 110 -48 19 -9 37 -16 40 -17 9 -3 59 -24 103 -44 23 -10 92 -40 152 -66
61 -25 128 -54 150 -64 39 -18 60 -27 155 -68 70 -31 84 -36 93 -35 4 1 7 -3
7 -8 0 -6 8 -10 18 -10 10 0 22 -4 28 -8 5 -5 50 -26 99 -46 50 -21 94 -42
100 -47 5 -5 15 -9 23 -9 7 0 40 -13 73 -30 33 -16 62 -29 64 -29 3 -1 20 -7
38 -15 70 -30 203 -88 234 -101 83 -37 101 -45 148 -65 59 -25 107 -46 155
-68 19 -9 37 -17 40 -17 12 -3 69 -28 125 -55 54 -26 111 -51 125 -55 3 -1 21
-8 40 -17 19 -8 60 -25 90 -38 30 -13 59 -27 65 -32 5 -4 17 -8 26 -8 9 0 22
-7 29 -15 7 -9 15 -13 18 -11 2 3 19 -2 36 -11 17 -9 36 -18 41 -19 6 -1 61
-25 122 -53 62 -28 116 -51 119 -51 4 0 33 -13 65 -30 33 -16 62 -29 64 -29 3
0 25 -8 48 -19 90 -42 137 -62 142 -62 3 0 36 -15 73 -33 37 -18 69 -34 72
-34 3 0 21 -7 40 -16 106 -45 201 -87 245 -107 28 -13 84 -37 125 -55 85 -37
157 -69 215 -96 22 -10 87 -38 145 -63 58 -24 134 -58 170 -74 36 -16 119 -53
185 -82 66 -29 140 -62 165 -73 25 -11 50 -22 55 -23 6 -1 48 -20 95 -43 47
-22 88 -41 92 -41 3 0 41 -16 85 -36 43 -20 93 -42 111 -50 17 -8 49 -22 70
-31 20 -10 39 -18 42 -19 3 0 32 -13 65 -28 33 -15 71 -33 85 -39 14 -5 27
-11 30 -13 3 -1 15 -5 28 -9 12 -4 22 -11 22 -16 0 -5 3 -8 8 -7 16 3 62 -15
62 -25 0 -6 3 -7 7 -4 3 4 20 -2 37 -12 17 -11 34 -20 38 -21 4 0 34 -12 65
-27 32 -14 63 -26 68 -27 6 -1 19 -5 30 -9 42 -14 83 -19 151 -22 58 -2 81 2
122 22 44 21 55 32 79 81 l28 57 -1 325 c-2 309 -7 626 -20 1130 -3 124 -5
234 -4 245 1 11 1 25 1 30 -6 85 -5 132 2 142 5 7 6 13 1 13 -5 0 -9 36 -9 80
0 44 4 80 8 80 5 0 5 6 0 13 -11 17 -11 129 -1 144 5 6 5 14 1 16 -7 4 -8 85
-2 187 1 8 8 50 16 93 23 118 8 218 -49 332 -35 68 -160 198 -223 230 -22 11
-46 26 -53 33 -8 7 -18 10 -23 7 -5 -4 -9 -1 -9 4 0 6 -9 11 -19 11 -11 0 -21
3 -23 8 -2 4 -39 22 -83 40 -44 19 -88 38 -97 43 -10 5 -24 9 -32 9 -8 0 -16
5 -18 11 -2 5 -10 11 -18 13 -8 1 -33 10 -55 20 -66 29 -152 66 -165 71 -5 2
-39 17 -130 57 -25 11 -58 26 -74 34 -16 8 -35 14 -43 14 -7 0 -13 5 -13 10 0
6 -6 10 -14 10 -15 0 -58 18 -236 98 -25 11 -74 32 -110 47 -36 15 -83 35
-105 45 -23 10 -47 20 -55 22 -8 2 -21 9 -28 16 -7 6 -22 12 -33 12 -10 0 -19
5 -19 10 0 6 -3 9 -7 8 -7 -2 -96 34 -228 92 -22 10 -74 32 -115 50 -41 18
-93 41 -115 50 -23 10 -90 40 -150 65 -60 26 -130 56 -155 67 -25 11 -54 24
-65 28 -11 5 -56 24 -100 43 -44 19 -90 38 -102 42 -13 3 -23 11 -23 16 0 5
-3 8 -7 7 -9 -3 -52 13 -141 54 -35 15 -65 28 -67 28 -3 0 -28 11 -57 24 -89
40 -253 111 -258 112 -3 0 -31 12 -64 27 -32 15 -60 27 -62 27 -5 0 -137 59
-167 75 -16 8 -33 15 -38 15 -6 0 -38 13 -72 29 -100 47 -155 70 -160 65 -2
-3 -10 2 -17 11 -7 8 -18 15 -25 15 -6 0 -25 6 -41 14 -41 20 -100 46 -254
111 -74 32 -157 68 -185 80 -45 20 -81 35 -95 40 -3 1 -22 9 -42 18 -21 10
-42 17 -48 17 -5 0 -10 5 -10 10 0 6 -11 10 -24 10 -13 0 -26 5 -28 10 -2 6
-12 12 -23 14 -11 3 -65 24 -120 49 -122 54 -136 59 -155 63 -8 2 -16 8 -18
13 -2 6 -9 11 -17 11 -7 0 -34 10 -61 22 -27 12 -51 23 -54 23 -3 0 -15 6 -26
13 -12 6 -24 8 -28 5 -3 -3 -6 -1 -6 5 0 7 -8 12 -18 12 -10 0 -22 4 -27 8 -6
5 -28 16 -50 24 -22 9 -66 28 -97 42 -31 14 -59 26 -62 26 -3 0 -34 13 -68 29
-35 16 -108 48 -163 71 -55 23 -106 47 -112 52 -7 6 -13 8 -13 4 0 -3 -17 3
-37 13 -21 11 -78 36 -128 57 -49 21 -92 40 -95 43 -3 3 -14 8 -25 9 -11 2
-22 7 -25 10 -3 4 -12 8 -20 10 -8 2 -49 18 -90 37 -41 18 -85 36 -97 40 -13
3 -23 10 -23 14 0 4 -7 8 -15 8 -8 0 -34 9 -57 21 -24 12 -72 33 -108 48 -36
14 -83 34 -105 44 -22 9 -69 30 -105 45 -36 15 -93 41 -128 56 -34 16 -65 29
-68 29 -3 0 -29 12 -58 26 -28 14 -51 25 -51 24 0 -2 -41 14 -98 39 -26 11
-51 21 -55 23 -4 1 -18 7 -31 14 -14 7 -28 11 -33 8 -4 -3 -8 -1 -8 4 0 5 -15
15 -32 22 -64 25 -95 38 -230 98 -36 17 -69 28 -72 24 -3 -3 -6 0 -6 6 0 7 -6
12 -12 12 -7 0 -68 25 -135 54 -67 30 -124 51 -127 48 -3 -3 -6 -1 -6 4 0 6
-17 16 -37 23 -21 8 -60 24 -88 36 -27 13 -131 57 -230 100 -99 42 -200 86
-225 97 -25 11 -47 21 -50 21 -3 0 -32 13 -65 29 -33 15 -66 28 -72 28 -7 0
-13 5 -13 10 0 6 -11 10 -25 10 -14 0 -25 5 -25 10 0 6 -7 10 -15 10 -9 0 -34
9 -55 20 -22 11 -41 19 -41 18z"/>
</g>
</svg>
